0
SECTION
2
HEADER
9
$ACADVER
1
AC1012
9
$INSUNITS
70
4
9
$MEASUREMENT
70
1
0
ENDSEC
0
SECTION
2
ENTITIES
0
POLYLINE
100
AcDbEntity
8
CUT
100
AcDb2dPolyline
66
1
10
0
20
0
30
0
70
1
0
VERTEX
100
AcDbEntity
8
CUT
100
AcDbVertex
100
AcDb2dVertex
10
18.960000
20
5.601309
30
0
70
0
0
VERTEX
100
AcDbEntity
8
CUT
100
AcDbVertex
100
AcDb2dVertex
10
18.955124
20
5.526917
30
0
70
0
0
VERTEX
100
AcDbEntity
8
CUT
100
AcDbVertex
100
AcDb2dVertex
10
18.940836
20
5.455084
30
0
70
0
0
VERTEX
100
AcDbEntity
8
CUT
100
AcDbVertex
100
AcDb2dVertex
10
18.917293
20
5.385730
30
0
70
0
0
VERTEX
100
AcDbEntity
8
CUT
100
AcDbVertex
100
AcDb2dVertex
10
18.884900
20
5.320043
30
0
70
0
0
VERTEX
100
AcDbEntity
8
CUT
100
AcDbVertex
100
AcDb2dVertex
10
18.844210
20
5.259146
30
0
70
0
0
VERTEX
100
AcDbEntity
8
CUT
100
AcDbVertex
100
AcDb2dVertex
10
18.795919
20
5.204081
30
0
70
0
0
VERTEX
100
AcDbEntity
8
CUT
100
AcDbVertex
100
AcDb2dVertex
10
18.740854
20
5.155790
30
0
70
0
0
VERTEX
100
AcDbEntity
8
CUT
100
AcDbVertex
100
AcDb2dVertex
10
18.679957
20
5.115100
30
0
70
0
0
VERTEX
100
AcDbEntity
8
CUT
100
AcDbVertex
100
AcDb2dVertex
10
18.614270
20
5.082707
30
0
70
0
0
VERTEX
100
AcDbEntity
8
CUT
100
AcDbVertex
100
AcDb2dVertex
10
18.544916
20
5.059164
30
0
70
0
0
VERTEX
100
AcDbEntity
8
CUT
100
AcDbVertex
100
AcDb2dVertex
10
18.473083
20
5.044876
30
0
70
0
0
VERTEX
100
AcDbEntity
8
CUT
100
AcDbVertex
100
AcDb2dVertex
10
18.398691
20
5.040000
30
0
70
0
0
VERTEX
100
AcDbEntity
8
CUT
100
AcDbVertex
100
AcDb2dVertex
10
5.601309
20
5.040000
30
0
70
0
0
VERTEX
100
AcDbEntity
8
CUT
100
AcDbVertex
100
AcDb2dVertex
10
5.526917
20
5.044876
30
0
70
0
0
VERTEX
100
AcDbEntity
8
CUT
100
AcDbVertex
100
AcDb2dVertex
10
5.455084
20
5.059164
30
0
70
0
0
VERTEX
100
AcDbEntity
8
CUT
100
AcDbVertex
100
AcDb2dVertex
10
5.385730
20
5.082707
30
0
70
0
0
VERTEX
100
AcDbEntity
8
CUT
100
AcDbVertex
100
AcDb2dVertex
10
5.320043
20
5.115100
30
0
70
0
0
VERTEX
100
AcDbEntity
8
CUT
100
AcDbVertex
100
AcDb2dVertex
10
5.259146
20
5.155790
30
0
70
0
0
VERTEX
100
AcDbEntity
8
CUT
100
AcDbVertex
100
AcDb2dVertex
10
5.204081
20
5.204081
30
0
70
0
0
VERTEX
100
AcDbEntity
8
CUT
100
AcDbVertex
100
AcDb2dVertex
10
5.155790
20
5.259146
30
0
70
0
0
VERTEX
100
AcDbEntity
8
CUT
100
AcDbVertex
100
AcDb2dVertex
10
5.115100
20
5.320043
30
0
70
0
0
VERTEX
100
AcDbEntity
8
CUT
100
AcDbVertex
100
AcDb2dVertex
10
5.082707
20
5.385730
30
0
70
0
0
VERTEX
100
AcDbEntity
8
CUT
100
AcDbVertex
100
AcDb2dVertex
10
5.059164
20
5.455084
30
0
70
0
0
VERTEX
100
AcDbEntity
8
CUT
100
AcDbVertex
100
AcDb2dVertex
10
5.044876
20
5.526917
30
0
70
0
0
VERTEX
100
AcDbEntity
8
CUT
100
AcDbVertex
100
AcDb2dVertex
10
5.040000
20
5.601309
30
0
70
0
0
VERTEX
100
AcDbEntity
8
CUT
100
AcDbVertex
100
AcDb2dVertex
10
5.040000
20
14.398691
30
0
70
0
0
VERTEX
100
AcDbEntity
8
CUT
100
AcDbVertex
100
AcDb2dVertex
10
5.044876
20
14.473083
30
0
70
0
0
VERTEX
100
AcDbEntity
8
CUT
100
AcDbVertex
100
AcDb2dVertex
10
5.059164
20
14.544916
30
0
70
0
0
VERTEX
100
AcDbEntity
8
CUT
100
AcDbVertex
100
AcDb2dVertex
10
5.082707
20
14.614270
30
0
70
0
0
VERTEX
100
AcDbEntity
8
CUT
100
AcDbVertex
100
AcDb2dVertex
10
5.115100
20
14.679957
30
0
70
0
0
VERTEX
100
AcDbEntity
8
CUT
100
AcDbVertex
100
AcDb2dVertex
10
5.155790
20
14.740854
30
0
70
0
0
VERTEX
100
AcDbEntity
8
CUT
100
AcDbVertex
100
AcDb2dVertex
10
5.204081
20
14.795919
30
0
70
0
0
VERTEX
100
AcDbEntity
8
CUT
100
AcDbVertex
100
AcDb2dVertex
10
5.259146
20
14.844210
30
0
70
0
0
VERTEX
100
AcDbEntity
8
CUT
100
AcDbVertex
100
AcDb2dVertex
10
5.320043
20
14.884900
30
0
70
0
0
VERTEX
100
AcDbEntity
8
CUT
100
AcDbVertex
100
AcDb2dVertex
10
5.385730
20
14.917293
30
0
70
0
0
VERTEX
100
AcDbEntity
8
CUT
100
AcDbVertex
100
AcDb2dVertex
10
5.455084
20
14.940836
30
0
70
0
0
VERTEX
100
AcDbEntity
8
CUT
100
AcDbVertex
100
AcDb2dVertex
10
5.526917
20
14.955124
30
0
70
0
0
VERTEX
100
AcDbEntity
8
CUT
100
AcDbVertex
100
AcDb2dVertex
10
5.601309
20
14.960000
30
0
70
0
0
VERTEX
100
AcDbEntity
8
CUT
100
AcDbVertex
100
AcDb2dVertex
10
18.398691
20
14.960000
30
0
70
0
0
VERTEX
100
AcDbEntity
8
CUT
100
AcDbVertex
100
AcDb2dVertex
10
18.473083
20
14.955124
30
0
70
0
0
VERTEX
100
AcDbEntity
8
CUT
100
AcDbVertex
100
AcDb2dVertex
10
18.544916
20
14.940836
30
0
70
0
0
VERTEX
100
AcDbEntity
8
CUT
100
AcDbVertex
100
AcDb2dVertex
10
18.614270
20
14.917293
30
0
70
0
0
VERTEX
100
AcDbEntity
8
CUT
100
AcDbVertex
100
AcDb2dVertex
10
18.679957
20
14.884900
30
0
70
0
0
VERTEX
100
AcDbEntity
8
CUT
100
AcDbVertex
100
AcDb2dVertex
10
18.740854
20
14.844210
30
0
70
0
0
VERTEX
100
AcDbEntity
8
CUT
100
AcDbVertex
100
AcDb2dVertex
10
18.795919
20
14.795919
30
0
70
0
0
VERTEX
100
AcDbEntity
8
CUT
100
AcDbVertex
100
AcDb2dVertex
10
18.844210
20
14.740854
30
0
70
0
0
VERTEX
100
AcDbEntity
8
CUT
100
AcDbVertex
100
AcDb2dVertex
10
18.884900
20
14.679957
30
0
70
0
0
VERTEX
100
AcDbEntity
8
CUT
100
AcDbVertex
100
AcDb2dVertex
10
18.917293
20
14.614270
30
0
70
0
0
VERTEX
100
AcDbEntity
8
CUT
100
AcDbVertex
100
AcDb2dVertex
10
18.940836
20
14.544916
30
0
70
0
0
VERTEX
100
AcDbEntity
8
CUT
100
AcDbVertex
100
AcDb2dVertex
10
18.955124
20
14.473083
30
0
70
0
0
VERTEX
100
AcDbEntity
8
CUT
100
AcDbVertex
100
AcDb2dVertex
10
18.960000
20
14.398691
30
0
70
0
0
SEQEND
100
AcDbEntity
8
CUT
0
POLYLINE
100
AcDbEntity
8
CUT
100
AcDb2dPolyline
66
1
10
0
20
0
30
0
70
1
0
VERTEX
100
AcDbEntity
8
CUT
100
AcDbVertex
100
AcDb2dVertex
10
41.040000
20
5.600000
30
0
70
0
0
VERTEX
100
AcDbEntity
8
CUT
100
AcDbVertex
100
AcDb2dVertex
10
41.039914
20
5.597384
30
0
70
0
0
VERTEX
100
AcDbEntity
8
CUT
100
AcDbVertex
100
AcDb2dVertex
10
41.034781
20
5.519068
30
0
70
0
0
VERTEX
100
AcDbEntity
8
CUT
100
AcDbVertex
100
AcDb2dVertex
10
41.034098
20
5.513881
30
0
70
0
0
VERTEX
100
AcDbEntity
8
CUT
100
AcDbVertex
100
AcDb2dVertex
10
41.018787
20
5.436905
30
0
70
0
0
VERTEX
100
AcDbEntity
8
CUT
100
AcDbVertex
100
AcDb2dVertex
10
41.017433
20
5.431851
30
0
70
0
0
VERTEX
100
AcDbEntity
8
CUT
100
AcDbVertex
100
AcDb2dVertex
10
40.992205
20
5.357532
30
0
70
0
0
VERTEX
100
AcDbEntity
8
CUT
100
AcDbVertex
100
AcDb2dVertex
10
40.990203
20
5.352698
30
0
70
0
0
VERTEX
100
AcDbEntity
8
CUT
100
AcDbVertex
100
AcDb2dVertex
10
40.955490
20
5.282308
30
0
70
0
0
VERTEX
100
AcDbEntity
8
CUT
100
AcDbVertex
100
AcDb2dVertex
10
40.952874
20
5.277777
30
0
70
0
0
VERTEX
100
AcDbEntity
8
CUT
100
AcDbVertex
100
AcDb2dVertex
10
40.909271
20
5.212520
30
0
70
0
0
VERTEX
100
AcDbEntity
8
CUT
100
AcDbVertex
100
AcDb2dVertex
10
40.906086
20
5.208369
30
0
70
0
0
VERTEX
100
AcDbEntity
8
CUT
100
AcDbVertex
100
AcDb2dVertex
10
40.854338
20
5.149362
30
0
70
0
0
VERTEX
100
AcDbEntity
8
CUT
100
AcDbVertex
100
AcDb2dVertex
10
40.850638
20
5.145662
30
0
70
0
0
VERTEX
100
AcDbEntity
8
CUT
100
AcDbVertex
100
AcDb2dVertex
10
40.791631
20
5.093914
30
0
70
0
0
VERTEX
100
AcDbEntity
8
CUT
100
AcDbVertex
100
AcDb2dVertex
10
40.787480
20
5.090729
30
0
70
0
0
VERTEX
100
AcDbEntity
8
CUT
100
AcDbVertex
100
AcDb2dVertex
10
40.722223
20
5.047126
30
0
70
0
0
VERTEX
100
AcDbEntity
8
CUT
100
AcDbVertex
100
AcDb2dVertex
10
40.717692
20
5.044510
30
0
70
0
0
VERTEX
100
AcDbEntity
8
CUT
100
AcDbVertex
100
AcDb2dVertex
10
40.647302
20
5.009797
30
0
70
0
0
VERTEX
100
AcDbEntity
8
CUT
100
AcDbVertex
100
AcDb2dVertex
10
40.642468
20
5.007795
30
0
70
0
0
VERTEX
100
AcDbEntity
8
CUT
100
AcDbVertex
100
AcDb2dVertex
10
40.568149
20
4.982567
30
0
70
0
0
VERTEX
100
AcDbEntity
8
CUT
100
AcDbVertex
100
AcDb2dVertex
10
40.563095
20
4.981213
30
0
70
0
0
VERTEX
100
AcDbEntity
8
CUT
100
AcDbVertex
100
AcDb2dVertex
10
40.486119
20
4.965902
30
0
70
0
0
VERTEX
100
AcDbEntity
8
CUT
100
AcDbVertex
100
AcDb2dVertex
10
40.480932
20
4.965219
30
0
70
0
0
VERTEX
100
AcDbEntity
8
CUT
100
AcDbVertex
100
AcDb2dVertex
10
40.402616
20
4.960086
30
0
70
0
0
VERTEX
100
AcDbEntity
8
CUT
100
AcDbVertex
100
AcDb2dVertex
10
40.400000
20
4.960000
30
0
70
0
0
VERTEX
100
AcDbEntity
8
CUT
100
AcDbVertex
100
AcDb2dVertex
10
27.600000
20
4.960000
30
0
70
0
0
VERTEX
100
AcDbEntity
8
CUT
100
AcDbVertex
100
AcDb2dVertex
10
27.597384
20
4.960086
30
0
70
0
0
VERTEX
100
AcDbEntity
8
CUT
100
AcDbVertex
100
AcDb2dVertex
10
27.519068
20
4.965219
30
0
70
0
0
VERTEX
100
AcDbEntity
8
CUT
100
AcDbVertex
100
AcDb2dVertex
10
27.513881
20
4.965902
30
0
70
0
0
VERTEX
100
AcDbEntity
8
CUT
100
AcDbVertex
100
AcDb2dVertex
10
27.436905
20
4.981213
30
0
70
0
0
VERTEX
100
AcDbEntity
8
CUT
100
AcDbVertex
100
AcDb2dVertex
10
27.431851
20
4.982567
30
0
70
0
0
VERTEX
100
AcDbEntity
8
CUT
100
AcDbVertex
100
AcDb2dVertex
10
27.357532
20
5.007795
30
0
70
0
0
VERTEX
100
AcDbEntity
8
CUT
100
AcDbVertex
100
AcDb2dVertex
10
27.352698
20
5.009797
30
0
70
0
0
VERTEX
100
AcDbEntity
8
CUT
100
AcDbVertex
100
AcDb2dVertex
10
27.282308
20
5.044510
30
0
70
0
0
VERTEX
100
AcDbEntity
8
CUT
100
AcDbVertex
100
AcDb2dVertex
10
27.277777
20
5.047126
30
0
70
0
0
VERTEX
100
AcDbEntity
8
CUT
100
AcDbVertex
100
AcDb2dVertex
10
27.212520
20
5.090729
30
0
70
0
0
VERTEX
100
AcDbEntity
8
CUT
100
AcDbVertex
100
AcDb2dVertex
10
27.208369
20
5.093914
30
0
70
0
0
VERTEX
100
AcDbEntity
8
CUT
100
AcDbVertex
100
AcDb2dVertex
10
27.149362
20
5.145662
30
0
70
0
0
VERTEX
100
AcDbEntity
8
CUT
100
AcDbVertex
100
AcDb2dVertex
10
27.145662
20
5.149362
30
0
70
0
0
VERTEX
100
AcDbEntity
8
CUT
100
AcDbVertex
100
AcDb2dVertex
10
27.093914
20
5.208369
30
0
70
0
0
VERTEX
100
AcDbEntity
8
CUT
100
AcDbVertex
100
AcDb2dVertex
10
27.090729
20
5.212520
30
0
70
0
0
VERTEX
100
AcDbEntity
8
CUT
100
AcDbVertex
100
AcDb2dVertex
10
27.047126
20
5.277777
30
0
70
0
0
VERTEX
100
AcDbEntity
8
CUT
100
AcDbVertex
100
AcDb2dVertex
10
27.044510
20
5.282308
30
0
70
0
0
VERTEX
100
AcDbEntity
8
CUT
100
AcDbVertex
100
AcDb2dVertex
10
27.009797
20
5.352698
30
0
70
0
0
VERTEX
100
AcDbEntity
8
CUT
100
AcDbVertex
100
AcDb2dVertex
10
27.007795
20
5.357532
30
0
70
0
0
VERTEX
100
AcDbEntity
8
CUT
100
AcDbVertex
100
AcDb2dVertex
10
26.982567
20
5.431851
30
0
70
0
0
VERTEX
100
AcDbEntity
8
CUT
100
AcDbVertex
100
AcDb2dVertex
10
26.981213
20
5.436905
30
0
70
0
0
VERTEX
100
AcDbEntity
8
CUT
100
AcDbVertex
100
AcDb2dVertex
10
26.965902
20
5.513881
30
0
70
0
0
VERTEX
100
AcDbEntity
8
CUT
100
AcDbVertex
100
AcDb2dVertex
10
26.965219
20
5.519068
30
0
70
0
0
VERTEX
100
AcDbEntity
8
CUT
100
AcDbVertex
100
AcDb2dVertex
10
26.960086
20
5.597384
30
0
70
0
0
VERTEX
100
AcDbEntity
8
CUT
100
AcDbVertex
100
AcDb2dVertex
10
26.960000
20
5.600000
30
0
70
0
0
VERTEX
100
AcDbEntity
8
CUT
100
AcDbVertex
100
AcDb2dVertex
10
26.960000
20
14.400000
30
0
70
0
0
VERTEX
100
AcDbEntity
8
CUT
100
AcDbVertex
100
AcDb2dVertex
10
26.960086
20
14.402616
30
0
70
0
0
VERTEX
100
AcDbEntity
8
CUT
100
AcDbVertex
100
AcDb2dVertex
10
26.965219
20
14.480932
30
0
70
0
0
VERTEX
100
AcDbEntity
8
CUT
100
AcDbVertex
100
AcDb2dVertex
10
26.965902
20
14.486119
30
0
70
0
0
VERTEX
100
AcDbEntity
8
CUT
100
AcDbVertex
100
AcDb2dVertex
10
26.981213
20
14.563095
30
0
70
0
0
VERTEX
100
AcDbEntity
8
CUT
100
AcDbVertex
100
AcDb2dVertex
10
26.982567
20
14.568149
30
0
70
0
0
VERTEX
100
AcDbEntity
8
CUT
100
AcDbVertex
100
AcDb2dVertex
10
27.007795
20
14.642468
30
0
70
0
0
VERTEX
100
AcDbEntity
8
CUT
100
AcDbVertex
100
AcDb2dVertex
10
27.009797
20
14.647302
30
0
70
0
0
VERTEX
100
AcDbEntity
8
CUT
100
AcDbVertex
100
AcDb2dVertex
10
27.044510
20
14.717692
30
0
70
0
0
VERTEX
100
AcDbEntity
8
CUT
100
AcDbVertex
100
AcDb2dVertex
10
27.047126
20
14.722223
30
0
70
0
0
VERTEX
100
AcDbEntity
8
CUT
100
AcDbVertex
100
AcDb2dVertex
10
27.090729
20
14.787480
30
0
70
0
0
VERTEX
100
AcDbEntity
8
CUT
100
AcDbVertex
100
AcDb2dVertex
10
27.093914
20
14.791631
30
0
70
0
0
VERTEX
100
AcDbEntity
8
CUT
100
AcDbVertex
100
AcDb2dVertex
10
27.145662
20
14.850638
30
0
70
0
0
VERTEX
100
AcDbEntity
8
CUT
100
AcDbVertex
100
AcDb2dVertex
10
27.149362
20
14.854338
30
0
70
0
0
VERTEX
100
AcDbEntity
8
CUT
100
AcDbVertex
100
AcDb2dVertex
10
27.208369
20
14.906086
30
0
70
0
0
VERTEX
100
AcDbEntity
8
CUT
100
AcDbVertex
100
AcDb2dVertex
10
27.212520
20
14.909271
30
0
70
0
0
VERTEX
100
AcDbEntity
8
CUT
100
AcDbVertex
100
AcDb2dVertex
10
27.277777
20
14.952874
30
0
70
0
0
VERTEX
100
AcDbEntity
8
CUT
100
AcDbVertex
100
AcDb2dVertex
10
27.282308
20
14.955490
30
0
70
0
0
VERTEX
100
AcDbEntity
8
CUT
100
AcDbVertex
100
AcDb2dVertex
10
27.352698
20
14.990203
30
0
70
0
0
VERTEX
100
AcDbEntity
8
CUT
100
AcDbVertex
100
AcDb2dVertex
10
27.357532
20
14.992205
30
0
70
0
0
VERTEX
100
AcDbEntity
8
CUT
100
AcDbVertex
100
AcDb2dVertex
10
27.431851
20
15.017433
30
0
70
0
0
VERTEX
100
AcDbEntity
8
CUT
100
AcDbVertex
100
AcDb2dVertex
10
27.436905
20
15.018787
30
0
70
0
0
VERTEX
100
AcDbEntity
8
CUT
100
AcDbVertex
100
AcDb2dVertex
10
27.513881
20
15.034098
30
0
70
0
0
VERTEX
100
AcDbEntity
8
CUT
100
AcDbVertex
100
AcDb2dVertex
10
27.519068
20
15.034781
30
0
70
0
0
VERTEX
100
AcDbEntity
8
CUT
100
AcDbVertex
100
AcDb2dVertex
10
27.597384
20
15.039914
30
0
70
0
0
VERTEX
100
AcDbEntity
8
CUT
100
AcDbVertex
100
AcDb2dVertex
10
27.600000
20
15.040000
30
0
70
0
0
VERTEX
100
AcDbEntity
8
CUT
100
AcDbVertex
100
AcDb2dVertex
10
40.400000
20
15.040000
30
0
70
0
0
VERTEX
100
AcDbEntity
8
CUT
100
AcDbVertex
100
AcDb2dVertex
10
40.402616
20
15.039914
30
0
70
0
0
VERTEX
100
AcDbEntity
8
CUT
100
AcDbVertex
100
AcDb2dVertex
10
40.480932
20
15.034781
30
0
70
0
0
VERTEX
100
AcDbEntity
8
CUT
100
AcDbVertex
100
AcDb2dVertex
10
40.486119
20
15.034098
30
0
70
0
0
VERTEX
100
AcDbEntity
8
CUT
100
AcDbVertex
100
AcDb2dVertex
10
40.563095
20
15.018787
30
0
70
0
0
VERTEX
100
AcDbEntity
8
CUT
100
AcDbVertex
100
AcDb2dVertex
10
40.568149
20
15.017433
30
0
70
0
0
VERTEX
100
AcDbEntity
8
CUT
100
AcDbVertex
100
AcDb2dVertex
10
40.642468
20
14.992205
30
0
70
0
0
VERTEX
100
AcDbEntity
8
CUT
100
AcDbVertex
100
AcDb2dVertex
10
40.647302
20
14.990203
30
0
70
0
0
VERTEX
100
AcDbEntity
8
CUT
100
AcDbVertex
100
AcDb2dVertex
10
40.717692
20
14.955490
30
0
70
0
0
VERTEX
100
AcDbEntity
8
CUT
100
AcDbVertex
100
AcDb2dVertex
10
40.722223
20
14.952874
30
0
70
0
0
VERTEX
100
AcDbEntity
8
CUT
100
AcDbVertex
100
AcDb2dVertex
10
40.787480
20
14.909271
30
0
70
0
0
VERTEX
100
AcDbEntity
8
CUT
100
AcDbVertex
100
AcDb2dVertex
10
40.791631
20
14.906086
30
0
70
0
0
VERTEX
100
AcDbEntity
8
CUT
100
AcDbVertex
100
AcDb2dVertex
10
40.850638
20
14.854338
30
0
70
0
0
VERTEX
100
AcDbEntity
8
CUT
100
AcDbVertex
100
AcDb2dVertex
10
40.854338
20
14.850638
30
0
70
0
0
VERTEX
100
AcDbEntity
8
CUT
100
AcDbVertex
100
AcDb2dVertex
10
40.906086
20
14.791631
30
0
70
0
0
VERTEX
100
AcDbEntity
8
CUT
100
AcDbVertex
100
AcDb2dVertex
10
40.909271
20
14.787480
30
0
70
0
0
VERTEX
100
AcDbEntity
8
CUT
100
AcDbVertex
100
AcDb2dVertex
10
40.952874
20
14.722223
30
0
70
0
0
VERTEX
100
AcDbEntity
8
CUT
100
AcDbVertex
100
AcDb2dVertex
10
40.955490
20
14.717692
30
0
70
0
0
VERTEX
100
AcDbEntity
8
CUT
100
AcDbVertex
100
AcDb2dVertex
10
40.990203
20
14.647302
30
0
70
0
0
VERTEX
100
AcDbEntity
8
CUT
100
AcDbVertex
100
AcDb2dVertex
10
40.992205
20
14.642468
30
0
70
0
0
VERTEX
100
AcDbEntity
8
CUT
100
AcDbVertex
100
AcDb2dVertex
10
41.017433
20
14.568149
30
0
70
0
0
VERTEX
100
AcDbEntity
8
CUT
100
AcDbVertex
100
AcDb2dVertex
10
41.018787
20
14.563095
30
0
70
0
0
VERTEX
100
AcDbEntity
8
CUT
100
AcDbVertex
100
AcDb2dVertex
10
41.034098
20
14.486119
30
0
70
0
0
VERTEX
100
AcDbEntity
8
CUT
100
AcDbVertex
100
AcDb2dVertex
10
41.034781
20
14.480932
30
0
70
0
0
VERTEX
100
AcDbEntity
8
CUT
100
AcDbVertex
100
AcDb2dVertex
10
41.039914
20
14.402616
30
0
70
0
0
VERTEX
100
AcDbEntity
8
CUT
100
AcDbVertex
100
AcDb2dVertex
10
41.040000
20
14.400000
30
0
70
0
0
SEQEND
100
AcDbEntity
8
CUT
0
POLYLINE
100
AcDbEntity
8
CUT
100
AcDb2dPolyline
66
1
10
0
20
0
30
0
70
1
0
VERTEX
100
AcDbEntity
8
CUT
100
AcDbVertex
100
AcDb2dVertex
10
63.120000
20
5.600000
30
0
70
0
0
VERTEX
100
AcDbEntity
8
CUT
100
AcDbVertex
100
AcDb2dVertex
10
63.119743
20
5.592152
30
0
70
0
0
VERTEX
100
AcDbEntity
8
CUT
100
AcDbVertex
100
AcDb2dVertex
10
63.114610
20
5.513836
30
0
70
0
0
VERTEX
100
AcDbEntity
8
CUT
100
AcDbVertex
100
AcDb2dVertex
10
63.112561
20
5.498273
30
0
70
0
0
VERTEX
100
AcDbEntity
8
CUT
100
AcDbVertex
100
AcDb2dVertex
10
63.097250
20
5.421298
30
0
70
0
0
VERTEX
100
AcDbEntity
8
CUT
100
AcDbVertex
100
AcDb2dVertex
10
63.093187
20
5.406136
30
0
70
0
0
VERTEX
100
AcDbEntity
8
CUT
100
AcDbVertex
100
AcDb2dVertex
10
63.067959
20
5.331817
30
0
70
0
0
VERTEX
100
AcDbEntity
8
CUT
100
AcDbVertex
100
AcDb2dVertex
10
63.061952
20
5.317315
30
0
70
0
0
VERTEX
100
AcDbEntity
8
CUT
100
AcDbVertex
100
AcDb2dVertex
10
63.027240
20
5.246925
30
0
70
0
0
VERTEX
100
AcDbEntity
8
CUT
100
AcDbVertex
100
AcDb2dVertex
10
63.019392
20
5.233332
30
0
70
0
0
VERTEX
100
AcDbEntity
8
CUT
100
AcDbVertex
100
AcDb2dVertex
10
62.975788
20
5.168075
30
0
70
0
0
VERTEX
100
AcDbEntity
8
CUT
100
AcDbVertex
100
AcDb2dVertex
10
62.966233
20
5.155622
30
0
70
0
0
VERTEX
100
AcDbEntity
8
CUT
100
AcDbVertex
100
AcDb2dVertex
10
62.914485
20
5.096614
30
0
70
0
0
VERTEX
100
AcDbEntity
8
CUT
100
AcDbVertex
100
AcDb2dVertex
10
62.903386
20
5.085515
30
0
70
0
0
VERTEX
100
AcDbEntity
8
CUT
100
AcDbVertex
100
AcDb2dVertex
10
62.844378
20
5.033767
30
0
70
0
0
VERTEX
100
AcDbEntity
8
CUT
100
AcDbVertex
100
AcDb2dVertex
10
62.831925
20
5.024212
30
0
70
0
0
VERTEX
100
AcDbEntity
8
CUT
100
AcDbVertex
100
AcDb2dVertex
10
62.766668
20
4.980608
30
0
70
0
0
VERTEX
100
AcDbEntity
8
CUT
100
AcDbVertex
100
AcDb2dVertex
10
62.753075
20
4.972760
30
0
70
0
0
VERTEX
100
AcDbEntity
8
CUT
100
AcDbVertex
100
AcDb2dVertex
10
62.682685
20
4.938048
30
0
70
0
0
VERTEX
100
AcDbEntity
8
CUT
100
AcDbVertex
100
AcDb2dVertex
10
62.668183
20
4.932041
30
0
70
0
0
VERTEX
100
AcDbEntity
8
CUT
100
AcDbVertex
100
AcDb2dVertex
10
62.593864
20
4.906813
30
0
70
0
0
VERTEX
100
AcDbEntity
8
CUT
100
AcDbVertex
100
AcDb2dVertex
10
62.578702
20
4.902750
30
0
70
0
0
VERTEX
100
AcDbEntity
8
CUT
100
AcDbVertex
100
AcDb2dVertex
10
62.501727
20
4.887439
30
0
70
0
0
VERTEX
100
AcDbEntity
8
CUT
100
AcDbVertex
100
AcDb2dVertex
10
62.486164
20
4.885390
30
0
70
0
0
VERTEX
100
AcDbEntity
8
CUT
100
AcDbVertex
100
AcDb2dVertex
10
62.407848
20
4.880257
30
0
70
0
0
VERTEX
100
AcDbEntity
8
CUT
100
AcDbVertex
100
AcDb2dVertex
10
62.400000
20
4.880000
30
0
70
0
0
VERTEX
100
AcDbEntity
8
CUT
100
AcDbVertex
100
AcDb2dVertex
10
49.600000
20
4.880000
30
0
70
0
0
VERTEX
100
AcDbEntity
8
CUT
100
AcDbVertex
100
AcDb2dVertex
10
49.592152
20
4.880257
30
0
70
0
0
VERTEX
100
AcDbEntity
8
CUT
100
AcDbVertex
100
AcDb2dVertex
10
49.513836
20
4.885390
30
0
70
0
0
VERTEX
100
AcDbEntity
8
CUT
100
AcDbVertex
100
AcDb2dVertex
10
49.498273
20
4.887439
30
0
70
0
0
VERTEX
100
AcDbEntity
8
CUT
100
AcDbVertex
100
AcDb2dVertex
10
49.421298
20
4.902750
30
0
70
0
0
VERTEX
100
AcDbEntity
8
CUT
100
AcDbVertex
100
AcDb2dVertex
10
49.406136
20
4.906813
30
0
70
0
0
VERTEX
100
AcDbEntity
8
CUT
100
AcDbVertex
100
AcDb2dVertex
10
49.331817
20
4.932041
30
0
70
0
0
VERTEX
100
AcDbEntity
8
CUT
100
AcDbVertex
100
AcDb2dVertex
10
49.317315
20
4.938048
30
0
70
0
0
VERTEX
100
AcDbEntity
8
CUT
100
AcDbVertex
100
AcDb2dVertex
10
49.246925
20
4.972760
30
0
70
0
0
VERTEX
100
AcDbEntity
8
CUT
100
AcDbVertex
100
AcDb2dVertex
10
49.233332
20
4.980608
30
0
70
0
0
VERTEX
100
AcDbEntity
8
CUT
100
AcDbVertex
100
AcDb2dVertex
10
49.168075
20
5.024212
30
0
70
0
0
VERTEX
100
AcDbEntity
8
CUT
100
AcDbVertex
100
AcDb2dVertex
10
49.155622
20
5.033767
30
0
70
0
0
VERTEX
100
AcDbEntity
8
CUT
100
AcDbVertex
100
AcDb2dVertex
10
49.096614
20
5.085515
30
0
70
0
0
VERTEX
100
AcDbEntity
8
CUT
100
AcDbVertex
100
AcDb2dVertex
10
49.085515
20
5.096614
30
0
70
0
0
VERTEX
100
AcDbEntity
8
CUT
100
AcDbVertex
100
AcDb2dVertex
10
49.033767
20
5.155622
30
0
70
0
0
VERTEX
100
AcDbEntity
8
CUT
100
AcDbVertex
100
AcDb2dVertex
10
49.024212
20
5.168075
30
0
70
0
0
VERTEX
100
AcDbEntity
8
CUT
100
AcDbVertex
100
AcDb2dVertex
10
48.980608
20
5.233332
30
0
70
0
0
VERTEX
100
AcDbEntity
8
CUT
100
AcDbVertex
100
AcDb2dVertex
10
48.972760
20
5.246925
30
0
70
0
0
VERTEX
100
AcDbEntity
8
CUT
100
AcDbVertex
100
AcDb2dVertex
10
48.938048
20
5.317315
30
0
70
0
0
VERTEX
100
AcDbEntity
8
CUT
100
AcDbVertex
100
AcDb2dVertex
10
48.932041
20
5.331817
30
0
70
0
0
VERTEX
100
AcDbEntity
8
CUT
100
AcDbVertex
100
AcDb2dVertex
10
48.906813
20
5.406136
30
0
70
0
0
VERTEX
100
AcDbEntity
8
CUT
100
AcDbVertex
100
AcDb2dVertex
10
48.902750
20
5.421298
30
0
70
0
0
VERTEX
100
AcDbEntity
8
CUT
100
AcDbVertex
100
AcDb2dVertex
10
48.887439
20
5.498273
30
0
70
0
0
VERTEX
100
AcDbEntity
8
CUT
100
AcDbVertex
100
AcDb2dVertex
10
48.885390
20
5.513836
30
0
70
0
0
VERTEX
100
AcDbEntity
8
CUT
100
AcDbVertex
100
AcDb2dVertex
10
48.880257
20
5.592152
30
0
70
0
0
VERTEX
100
AcDbEntity
8
CUT
100
AcDbVertex
100
AcDb2dVertex
10
48.880000
20
5.600000
30
0
70
0
0
VERTEX
100
AcDbEntity
8
CUT
100
AcDbVertex
100
AcDb2dVertex
10
48.880000
20
14.400000
30
0
70
0
0
VERTEX
100
AcDbEntity
8
CUT
100
AcDbVertex
100
AcDb2dVertex
10
48.880257
20
14.407848
30
0
70
0
0
VERTEX
100
AcDbEntity
8
CUT
100
AcDbVertex
100
AcDb2dVertex
10
48.885390
20
14.486164
30
0
70
0
0
VERTEX
100
AcDbEntity
8
CUT
100
AcDbVertex
100
AcDb2dVertex
10
48.887439
20
14.501727
30
0
70
0
0
VERTEX
100
AcDbEntity
8
CUT
100
AcDbVertex
100
AcDb2dVertex
10
48.902750
20
14.578702
30
0
70
0
0
VERTEX
100
AcDbEntity
8
CUT
100
AcDbVertex
100
AcDb2dVertex
10
48.906813
20
14.593864
30
0
70
0
0
VERTEX
100
AcDbEntity
8
CUT
100
AcDbVertex
100
AcDb2dVertex
10
48.932041
20
14.668183
30
0
70
0
0
VERTEX
100
AcDbEntity
8
CUT
100
AcDbVertex
100
AcDb2dVertex
10
48.938048
20
14.682685
30
0
70
0
0
VERTEX
100
AcDbEntity
8
CUT
100
AcDbVertex
100
AcDb2dVertex
10
48.972760
20
14.753075
30
0
70
0
0
VERTEX
100
AcDbEntity
8
CUT
100
AcDbVertex
100
AcDb2dVertex
10
48.980608
20
14.766668
30
0
70
0
0
VERTEX
100
AcDbEntity
8
CUT
100
AcDbVertex
100
AcDb2dVertex
10
49.024212
20
14.831925
30
0
70
0
0
VERTEX
100
AcDbEntity
8
CUT
100
AcDbVertex
100
AcDb2dVertex
10
49.033767
20
14.844378
30
0
70
0
0
VERTEX
100
AcDbEntity
8
CUT
100
AcDbVertex
100
AcDb2dVertex
10
49.085515
20
14.903386
30
0
70
0
0
VERTEX
100
AcDbEntity
8
CUT
100
AcDbVertex
100
AcDb2dVertex
10
49.096614
20
14.914485
30
0
70
0
0
VERTEX
100
AcDbEntity
8
CUT
100
AcDbVertex
100
AcDb2dVertex
10
49.155622
20
14.966233
30
0
70
0
0
VERTEX
100
AcDbEntity
8
CUT
100
AcDbVertex
100
AcDb2dVertex
10
49.168075
20
14.975788
30
0
70
0
0
VERTEX
100
AcDbEntity
8
CUT
100
AcDbVertex
100
AcDb2dVertex
10
49.233332
20
15.019392
30
0
70
0
0
VERTEX
100
AcDbEntity
8
CUT
100
AcDbVertex
100
AcDb2dVertex
10
49.246925
20
15.027240
30
0
70
0
0
VERTEX
100
AcDbEntity
8
CUT
100
AcDbVertex
100
AcDb2dVertex
10
49.317315
20
15.061952
30
0
70
0
0
VERTEX
100
AcDbEntity
8
CUT
100
AcDbVertex
100
AcDb2dVertex
10
49.331817
20
15.067959
30
0
70
0
0
VERTEX
100
AcDbEntity
8
CUT
100
AcDbVertex
100
AcDb2dVertex
10
49.406136
20
15.093187
30
0
70
0
0
VERTEX
100
AcDbEntity
8
CUT
100
AcDbVertex
100
AcDb2dVertex
10
49.421298
20
15.097250
30
0
70
0
0
VERTEX
100
AcDbEntity
8
CUT
100
AcDbVertex
100
AcDb2dVertex
10
49.498273
20
15.112561
30
0
70
0
0
VERTEX
100
AcDbEntity
8
CUT
100
AcDbVertex
100
AcDb2dVertex
10
49.513836
20
15.114610
30
0
70
0
0
VERTEX
100
AcDbEntity
8
CUT
100
AcDbVertex
100
AcDb2dVertex
10
49.592152
20
15.119743
30
0
70
0
0
VERTEX
100
AcDbEntity
8
CUT
100
AcDbVertex
100
AcDb2dVertex
10
49.600000
20
15.120000
30
0
70
0
0
VERTEX
100
AcDbEntity
8
CUT
100
AcDbVertex
100
AcDb2dVertex
10
62.400000
20
15.120000
30
0
70
0
0
VERTEX
100
AcDbEntity
8
CUT
100
AcDbVertex
100
AcDb2dVertex
10
62.407848
20
15.119743
30
0
70
0
0
VERTEX
100
AcDbEntity
8
CUT
100
AcDbVertex
100
AcDb2dVertex
10
62.486164
20
15.114610
30
0
70
0
0
VERTEX
100
AcDbEntity
8
CUT
100
AcDbVertex
100
AcDb2dVertex
10
62.501727
20
15.112561
30
0
70
0
0
VERTEX
100
AcDbEntity
8
CUT
100
AcDbVertex
100
AcDb2dVertex
10
62.578702
20
15.097250
30
0
70
0
0
VERTEX
100
AcDbEntity
8
CUT
100
AcDbVertex
100
AcDb2dVertex
10
62.593864
20
15.093187
30
0
70
0
0
VERTEX
100
AcDbEntity
8
CUT
100
AcDbVertex
100
AcDb2dVertex
10
62.668183
20
15.067959
30
0
70
0
0
VERTEX
100
AcDbEntity
8
CUT
100
AcDbVertex
100
AcDb2dVertex
10
62.682685
20
15.061952
30
0
70
0
0
VERTEX
100
AcDbEntity
8
CUT
100
AcDbVertex
100
AcDb2dVertex
10
62.753075
20
15.027240
30
0
70
0
0
VERTEX
100
AcDbEntity
8
CUT
100
AcDbVertex
100
AcDb2dVertex
10
62.766668
20
15.019392
30
0
70
0
0
VERTEX
100
AcDbEntity
8
CUT
100
AcDbVertex
100
AcDb2dVertex
10
62.831925
20
14.975788
30
0
70
0
0
VERTEX
100
AcDbEntity
8
CUT
100
AcDbVertex
100
AcDb2dVertex
10
62.844378
20
14.966233
30
0
70
0
0
VERTEX
100
AcDbEntity
8
CUT
100
AcDbVertex
100
AcDb2dVertex
10
62.903386
20
14.914485
30
0
70
0
0
VERTEX
100
AcDbEntity
8
CUT
100
AcDbVertex
100
AcDb2dVertex
10
62.914485
20
14.903386
30
0
70
0
0
VERTEX
100
AcDbEntity
8
CUT
100
AcDbVertex
100
AcDb2dVertex
10
62.966233
20
14.844378
30
0
70
0
0
VERTEX
100
AcDbEntity
8
CUT
100
AcDbVertex
100
AcDb2dVertex
10
62.975788
20
14.831925
30
0
70
0
0
VERTEX
100
AcDbEntity
8
CUT
100
AcDbVertex
100
AcDb2dVertex
10
63.019392
20
14.766668
30
0
70
0
0
VERTEX
100
AcDbEntity
8
CUT
100
AcDbVertex
100
AcDb2dVertex
10
63.027240
20
14.753075
30
0
70
0
0
VERTEX
100
AcDbEntity
8
CUT
100
AcDbVertex
100
AcDb2dVertex
10
63.061952
20
14.682685
30
0
70
0
0
VERTEX
100
AcDbEntity
8
CUT
100
AcDbVertex
100
AcDb2dVertex
10
63.067959
20
14.668183
30
0
70
0
0
VERTEX
100
AcDbEntity
8
CUT
100
AcDbVertex
100
AcDb2dVertex
10
63.093187
20
14.593864
30
0
70
0
0
VERTEX
100
AcDbEntity
8
CUT
100
AcDbVertex
100
AcDb2dVertex
10
63.097250
20
14.578702
30
0
70
0
0
VERTEX
100
AcDbEntity
8
CUT
100
AcDbVertex
100
AcDb2dVertex
10
63.112561
20
14.501727
30
0
70
0
0
VERTEX
100
AcDbEntity
8
CUT
100
AcDbVertex
100
AcDb2dVertex
10
63.114610
20
14.486164
30
0
70
0
0
VERTEX
100
AcDbEntity
8
CUT
100
AcDbVertex
100
AcDb2dVertex
10
63.119743
20
14.407848
30
0
70
0
0
VERTEX
100
AcDbEntity
8
CUT
100
AcDbVertex
100
AcDb2dVertex
10
63.120000
20
14.400000
30
0
70
0
0
SEQEND
100
AcDbEntity
8
CUT
0
ENDSEC
0
EOF
