0
SECTION
2
HEADER
9
$ACADVER
1
AC1012
9
$INSUNITS
70
4
9
$MEASUREMENT
70
1
0
ENDSEC
0
SECTION
2
ENTITIES
0
POLYLINE
100
AcDbEntity
8
CUT
100
AcDb2dPolyline
66
1
10
0
20
0
30
0
70
1
0
VERTEX
100
AcDbEntity
8
CUT
100
AcDbVertex
100
AcDb2dVertex
10
61.826283
20
45.136485
30
0
70
0
0
VERTEX
100
AcDbEntity
8
CUT
100
AcDbVertex
100
AcDb2dVertex
10
61.986962
20
45.186759
30
0
70
0
0
VERTEX
100
AcDbEntity
8
CUT
100
AcDbVertex
100
AcDb2dVertex
10
62.096276
20
45.183526
30
0
70
0
0
VERTEX
100
AcDbEntity
8
CUT
100
AcDbVertex
100
AcDb2dVertex
10
62.243987
20
45.127799
30
0
70
0
0
VERTEX
100
AcDbEntity
8
CUT
100
AcDbVertex
100
AcDb2dVertex
10
62.366669
20
45.013345
30
0
70
0
0
VERTEX
100
AcDbEntity
8
CUT
100
AcDbVertex
100
AcDb2dVertex
10
65.034228
20
41.241186
30
0
70
0
0
VERTEX
100
AcDbEntity
8
CUT
100
AcDbVertex
100
AcDb2dVertex
10
65.088204
20
41.137179
30
0
70
0
0
VERTEX
100
AcDbEntity
8
CUT
100
AcDbVertex
100
AcDb2dVertex
10
65.111365
20
41.026561
30
0
70
0
0
VERTEX
100
AcDbEntity
8
CUT
100
AcDbVertex
100
AcDb2dVertex
10
65.089561
20
40.867660
30
0
70
0
0
VERTEX
100
AcDbEntity
8
CUT
100
AcDbVertex
100
AcDb2dVertex
10
65.034041
20
40.758549
30
0
70
0
0
VERTEX
100
AcDbEntity
8
CUT
100
AcDbVertex
100
AcDb2dVertex
10
62.367432
20
36.987394
30
0
70
0
0
VERTEX
100
AcDbEntity
8
CUT
100
AcDbVertex
100
AcDb2dVertex
10
62.290376
20
36.904303
30
0
70
0
0
VERTEX
100
AcDbEntity
8
CUT
100
AcDbVertex
100
AcDb2dVertex
10
62.201808
20
36.848850
30
0
70
0
0
VERTEX
100
AcDbEntity
8
CUT
100
AcDbVertex
100
AcDb2dVertex
10
62.044001
20
36.811704
30
0
70
0
0
VERTEX
100
AcDbEntity
8
CUT
100
AcDbVertex
100
AcDb2dVertex
10
61.880947
20
36.838710
30
0
70
0
0
VERTEX
100
AcDbEntity
8
CUT
100
AcDbVertex
100
AcDb2dVertex
10
60.641016
20
37.483943
30
0
70
0
0
VERTEX
100
AcDbEntity
8
CUT
100
AcDbVertex
100
AcDb2dVertex
10
59.646232
20
37.974643
30
0
70
0
0
VERTEX
100
AcDbEntity
8
CUT
100
AcDbVertex
100
AcDb2dVertex
10
58.689544
20
38.421655
30
0
70
0
0
VERTEX
100
AcDbEntity
8
CUT
100
AcDbVertex
100
AcDb2dVertex
10
57.687289
20
38.865504
30
0
70
0
0
VERTEX
100
AcDbEntity
8
CUT
100
AcDbVertex
100
AcDb2dVertex
10
56.709799
20
39.272597
30
0
70
0
0
VERTEX
100
AcDbEntity
8
CUT
100
AcDbVertex
100
AcDb2dVertex
10
55.755783
20
39.644515
30
0
70
0
0
VERTEX
100
AcDbEntity
8
CUT
100
AcDbVertex
100
AcDb2dVertex
10
54.804997
20
39.992730
30
0
70
0
0
VERTEX
100
AcDbEntity
8
CUT
100
AcDbVertex
100
AcDb2dVertex
10
53.886102
20
40.306960
30
0
70
0
0
VERTEX
100
AcDbEntity
8
CUT
100
AcDbVertex
100
AcDb2dVertex
10
52.888455
20
40.627783
30
0
70
0
0
VERTEX
100
AcDbEntity
8
CUT
100
AcDbVertex
100
AcDb2dVertex
10
52.791835
20
40.690107
30
0
70
0
0
VERTEX
100
AcDbEntity
8
CUT
100
AcDbVertex
100
AcDb2dVertex
10
52.692220
20
40.816821
30
0
70
0
0
VERTEX
100
AcDbEntity
8
CUT
100
AcDbVertex
100
AcDb2dVertex
10
52.649942
20
40.973899
30
0
70
0
0
VERTEX
100
AcDbEntity
8
CUT
100
AcDbVertex
100
AcDb2dVertex
10
52.672240
20
41.134699
30
0
70
0
0
VERTEX
100
AcDbEntity
8
CUT
100
AcDbVertex
100
AcDb2dVertex
10
52.753888
20
41.273780
30
0
70
0
0
VERTEX
100
AcDbEntity
8
CUT
100
AcDbVertex
100
AcDb2dVertex
10
52.888104
20
41.372104
30
0
70
0
0
VERTEX
100
AcDbEntity
8
CUT
100
AcDbVertex
100
AcDb2dVertex
10
53.884891
20
41.692625
30
0
70
0
0
VERTEX
100
AcDbEntity
8
CUT
100
AcDbVertex
100
AcDb2dVertex
10
54.806147
20
42.007662
30
0
70
0
0
VERTEX
100
AcDbEntity
8
CUT
100
AcDbVertex
100
AcDb2dVertex
10
55.755764
20
42.355478
30
0
70
0
0
VERTEX
100
AcDbEntity
8
CUT
100
AcDbVertex
100
AcDb2dVertex
10
56.717160
20
42.731497
30
0
70
0
0
VERTEX
100
AcDbEntity
8
CUT
100
AcDbVertex
100
AcDb2dVertex
10
57.713667
20
43.146430
30
0
70
0
0
VERTEX
100
AcDbEntity
8
CUT
100
AcDbVertex
100
AcDb2dVertex
10
58.644827
20
43.557457
30
0
70
0
0
VERTEX
100
AcDbEntity
8
CUT
100
AcDbVertex
100
AcDb2dVertex
10
59.647016
20
44.025744
30
0
70
0
0
VERTEX
100
AcDbEntity
8
CUT
100
AcDbVertex
100
AcDb2dVertex
10
60.641150
20
44.516128
30
0
70
0
0
SEQEND
100
AcDbEntity
8
CUT
0
POLYLINE
100
AcDbEntity
8
CUT
100
AcDb2dPolyline
66
1
10
0
20
0
30
0
70
1
0
VERTEX
100
AcDbEntity
8
CUT
100
AcDbVertex
100
AcDb2dVertex
10
20.173717
20
36.863515
30
0
70
0
0
VERTEX
100
AcDbEntity
8
CUT
100
AcDbVertex
100
AcDb2dVertex
10
20.013038
20
36.813241
30
0
70
0
0
VERTEX
100
AcDbEntity
8
CUT
100
AcDbVertex
100
AcDb2dVertex
10
19.903724
20
36.816474
30
0
70
0
0
VERTEX
100
AcDbEntity
8
CUT
100
AcDbVertex
100
AcDb2dVertex
10
19.756013
20
36.872201
30
0
70
0
0
VERTEX
100
AcDbEntity
8
CUT
100
AcDbVertex
100
AcDb2dVertex
10
19.633331
20
36.986655
30
0
70
0
0
VERTEX
100
AcDbEntity
8
CUT
100
AcDbVertex
100
AcDb2dVertex
10
16.965772
20
40.758814
30
0
70
0
0
VERTEX
100
AcDbEntity
8
CUT
100
AcDbVertex
100
AcDb2dVertex
10
16.911796
20
40.862821
30
0
70
0
0
VERTEX
100
AcDbEntity
8
CUT
100
AcDbVertex
100
AcDb2dVertex
10
16.888635
20
40.973439
30
0
70
0
0
VERTEX
100
AcDbEntity
8
CUT
100
AcDbVertex
100
AcDb2dVertex
10
16.910439
20
41.132340
30
0
70
0
0
VERTEX
100
AcDbEntity
8
CUT
100
AcDbVertex
100
AcDb2dVertex
10
16.965959
20
41.241451
30
0
70
0
0
VERTEX
100
AcDbEntity
8
CUT
100
AcDbVertex
100
AcDb2dVertex
10
19.632568
20
45.012606
30
0
70
0
0
VERTEX
100
AcDbEntity
8
CUT
100
AcDbVertex
100
AcDb2dVertex
10
19.709624
20
45.095697
30
0
70
0
0
VERTEX
100
AcDbEntity
8
CUT
100
AcDbVertex
100
AcDb2dVertex
10
19.798192
20
45.151150
30
0
70
0
0
VERTEX
100
AcDbEntity
8
CUT
100
AcDbVertex
100
AcDb2dVertex
10
19.955999
20
45.188296
30
0
70
0
0
VERTEX
100
AcDbEntity
8
CUT
100
AcDbVertex
100
AcDb2dVertex
10
20.119053
20
45.161290
30
0
70
0
0
VERTEX
100
AcDbEntity
8
CUT
100
AcDbVertex
100
AcDb2dVertex
10
21.358984
20
44.516057
30
0
70
0
0
VERTEX
100
AcDbEntity
8
CUT
100
AcDbVertex
100
AcDb2dVertex
10
22.353768
20
44.025357
30
0
70
0
0
VERTEX
100
AcDbEntity
8
CUT
100
AcDbVertex
100
AcDb2dVertex
10
23.310456
20
43.578345
30
0
70
0
0
VERTEX
100
AcDbEntity
8
CUT
100
AcDbVertex
100
AcDb2dVertex
10
24.312711
20
43.134496
30
0
70
0
0
VERTEX
100
AcDbEntity
8
CUT
100
AcDbVertex
100
AcDb2dVertex
10
25.290201
20
42.727403
30
0
70
0
0
VERTEX
100
AcDbEntity
8
CUT
100
AcDbVertex
100
AcDb2dVertex
10
26.244217
20
42.355485
30
0
70
0
0
VERTEX
100
AcDbEntity
8
CUT
100
AcDbVertex
100
AcDb2dVertex
10
27.195003
20
42.007270
30
0
70
0
0
VERTEX
100
AcDbEntity
8
CUT
100
AcDbVertex
100
AcDb2dVertex
10
28.113898
20
41.693040
30
0
70
0
0
VERTEX
100
AcDbEntity
8
CUT
100
AcDbVertex
100
AcDb2dVertex
10
29.111545
20
41.372217
30
0
70
0
0
VERTEX
100
AcDbEntity
8
CUT
100
AcDbVertex
100
AcDb2dVertex
10
29.208165
20
41.309893
30
0
70
0
0
VERTEX
100
AcDbEntity
8
CUT
100
AcDbVertex
100
AcDb2dVertex
10
29.307780
20
41.183179
30
0
70
0
0
VERTEX
100
AcDbEntity
8
CUT
100
AcDbVertex
100
AcDb2dVertex
10
29.350058
20
41.026101
30
0
70
0
0
VERTEX
100
AcDbEntity
8
CUT
100
AcDbVertex
100
AcDb2dVertex
10
29.327760
20
40.865301
30
0
70
0
0
VERTEX
100
AcDbEntity
8
CUT
100
AcDbVertex
100
AcDb2dVertex
10
29.246112
20
40.726220
30
0
70
0
0
VERTEX
100
AcDbEntity
8
CUT
100
AcDbVertex
100
AcDb2dVertex
10
29.111896
20
40.627896
30
0
70
0
0
VERTEX
100
AcDbEntity
8
CUT
100
AcDbVertex
100
AcDb2dVertex
10
28.115109
20
40.307375
30
0
70
0
0
VERTEX
100
AcDbEntity
8
CUT
100
AcDbVertex
100
AcDb2dVertex
10
27.193853
20
39.992338
30
0
70
0
0
VERTEX
100
AcDbEntity
8
CUT
100
AcDbVertex
100
AcDb2dVertex
10
26.244236
20
39.644522
30
0
70
0
0
VERTEX
100
AcDbEntity
8
CUT
100
AcDbVertex
100
AcDb2dVertex
10
25.282840
20
39.268503
30
0
70
0
0
VERTEX
100
AcDbEntity
8
CUT
100
AcDbVertex
100
AcDb2dVertex
10
24.286333
20
38.853570
30
0
70
0
0
VERTEX
100
AcDbEntity
8
CUT
100
AcDbVertex
100
AcDb2dVertex
10
23.355173
20
38.442543
30
0
70
0
0
VERTEX
100
AcDbEntity
8
CUT
100
AcDbVertex
100
AcDb2dVertex
10
22.352984
20
37.974256
30
0
70
0
0
VERTEX
100
AcDbEntity
8
CUT
100
AcDbVertex
100
AcDb2dVertex
10
21.358850
20
37.483872
30
0
70
0
0
SEQEND
100
AcDbEntity
8
CUT
0
POLYLINE
100
AcDbEntity
8
CUT
100
AcDb2dPolyline
66
1
10
0
20
0
30
0
70
1
0
VERTEX
100
AcDbEntity
8
CUT
100
AcDbVertex
100
AcDb2dVertex
10
49.140612
20
18.862709
30
0
70
0
0
VERTEX
100
AcDbEntity
8
CUT
100
AcDbVertex
100
AcDb2dVertex
10
49.210951
20
18.762159
30
0
70
0
0
VERTEX
100
AcDbEntity
8
CUT
100
AcDbVertex
100
AcDb2dVertex
10
49.255051
20
18.603514
30
0
70
0
0
VERTEX
100
AcDbEntity
8
CUT
100
AcDbVertex
100
AcDb2dVertex
10
49.231837
20
18.440438
30
0
70
0
0
VERTEX
100
AcDbEntity
8
CUT
100
AcDbVertex
100
AcDb2dVertex
10
49.177774
20
18.336164
30
0
70
0
0
VERTEX
100
AcDbEntity
8
CUT
100
AcDbVertex
100
AcDb2dVertex
10
41.337698
20
7.246939
30
0
70
0
0
VERTEX
100
AcDbEntity
8
CUT
100
AcDbVertex
100
AcDb2dVertex
10
41.263802
20
7.166461
30
0
70
0
0
VERTEX
100
AcDbEntity
8
CUT
100
AcDbVertex
100
AcDb2dVertex
10
41.182748
20
7.113824
30
0
70
0
0
VERTEX
100
AcDbEntity
8
CUT
100
AcDbVertex
100
AcDb2dVertex
10
41.024332
20
7.071219
30
0
70
0
0
VERTEX
100
AcDbEntity
8
CUT
100
AcDbVertex
100
AcDb2dVertex
10
40.922192
20
7.077581
30
0
70
0
0
VERTEX
100
AcDbEntity
8
CUT
100
AcDbVertex
100
AcDb2dVertex
10
40.823472
20
7.110122
30
0
70
0
0
VERTEX
100
AcDbEntity
8
CUT
100
AcDbVertex
100
AcDb2dVertex
10
40.736090
20
7.166523
30
0
70
0
0
VERTEX
100
AcDbEntity
8
CUT
100
AcDbVertex
100
AcDb2dVertex
10
40.662263
20
7.246915
30
0
70
0
0
VERTEX
100
AcDbEntity
8
CUT
100
AcDbVertex
100
AcDb2dVertex
10
32.821531
20
18.335384
30
0
70
0
0
VERTEX
100
AcDbEntity
8
CUT
100
AcDbVertex
100
AcDb2dVertex
10
32.767482
20
18.439615
30
0
70
0
0
VERTEX
100
AcDbEntity
8
CUT
100
AcDbVertex
100
AcDb2dVertex
10
32.744867
20
18.548837
30
0
70
0
0
VERTEX
100
AcDbEntity
8
CUT
100
AcDbVertex
100
AcDb2dVertex
10
32.754006
20
18.665647
30
0
70
0
0
VERTEX
100
AcDbEntity
8
CUT
100
AcDbVertex
100
AcDb2dVertex
10
32.818640
20
18.813029
30
0
70
0
0
VERTEX
100
AcDbEntity
8
CUT
100
AcDbVertex
100
AcDb2dVertex
10
33.467900
20
19.509052
30
0
70
0
0
VERTEX
100
AcDbEntity
8
CUT
100
AcDbVertex
100
AcDb2dVertex
10
34.097829
20
20.210760
30
0
70
0
0
VERTEX
100
AcDbEntity
8
CUT
100
AcDbVertex
100
AcDb2dVertex
10
34.707113
20
20.922737
30
0
70
0
0
VERTEX
100
AcDbEntity
8
CUT
100
AcDbVertex
100
AcDb2dVertex
10
35.226459
20
21.560170
30
0
70
0
0
VERTEX
100
AcDbEntity
8
CUT
100
AcDbVertex
100
AcDb2dVertex
10
35.801547
20
22.298072
30
0
70
0
0
VERTEX
100
AcDbEntity
8
CUT
100
AcDbVertex
100
AcDb2dVertex
10
36.447663
20
23.175921
30
0
70
0
0
VERTEX
100
AcDbEntity
8
CUT
100
AcDbVertex
100
AcDb2dVertex
10
37.100109
20
24.115505
30
0
70
0
0
VERTEX
100
AcDbEntity
8
CUT
100
AcDbVertex
100
AcDb2dVertex
10
37.891578
20
25.345107
30
0
70
0
0
VERTEX
100
AcDbEntity
8
CUT
100
AcDbVertex
100
AcDb2dVertex
10
38.323609
20
26.070009
30
0
70
0
0
VERTEX
100
AcDbEntity
8
CUT
100
AcDbVertex
100
AcDb2dVertex
10
39.142227
20
27.570268
30
0
70
0
0
VERTEX
100
AcDbEntity
8
CUT
100
AcDbVertex
100
AcDb2dVertex
10
39.500119
20
28.292433
30
0
70
0
0
VERTEX
100
AcDbEntity
8
CUT
100
AcDbVertex
100
AcDb2dVertex
10
39.860957
20
29.068632
30
0
70
0
0
VERTEX
100
AcDbEntity
8
CUT
100
AcDbVertex
100
AcDb2dVertex
10
40.172076
20
29.788055
30
0
70
0
0
VERTEX
100
AcDbEntity
8
CUT
100
AcDbVertex
100
AcDb2dVertex
10
40.639087
20
30.969354
30
0
70
0
0
VERTEX
100
AcDbEntity
8
CUT
100
AcDbVertex
100
AcDb2dVertex
10
40.699963
20
31.055551
30
0
70
0
0
VERTEX
100
AcDbEntity
8
CUT
100
AcDbVertex
100
AcDb2dVertex
10
40.780458
20
31.123181
30
0
70
0
0
VERTEX
100
AcDbEntity
8
CUT
100
AcDbVertex
100
AcDb2dVertex
10
40.875508
20
31.168073
30
0
70
0
0
VERTEX
100
AcDbEntity
8
CUT
100
AcDbVertex
100
AcDb2dVertex
10
40.978857
20
31.187278
30
0
70
0
0
VERTEX
100
AcDbEntity
8
CUT
100
AcDbVertex
100
AcDb2dVertex
10
41.083630
20
31.179533
30
0
70
0
0
VERTEX
100
AcDbEntity
8
CUT
100
AcDbVertex
100
AcDb2dVertex
10
41.181700
20
31.145639
30
0
70
0
0
VERTEX
100
AcDbEntity
8
CUT
100
AcDbVertex
100
AcDb2dVertex
10
41.308557
20
31.048561
30
0
70
0
0
VERTEX
100
AcDbEntity
8
CUT
100
AcDbVertex
100
AcDb2dVertex
10
41.367433
20
30.962117
30
0
70
0
0
VERTEX
100
AcDbEntity
8
CUT
100
AcDbVertex
100
AcDb2dVertex
10
41.900571
20
29.619433
30
0
70
0
0
VERTEX
100
AcDbEntity
8
CUT
100
AcDbVertex
100
AcDb2dVertex
10
42.478234
20
28.336347
30
0
70
0
0
VERTEX
100
AcDbEntity
8
CUT
100
AcDbVertex
100
AcDb2dVertex
10
42.867879
20
27.551388
30
0
70
0
0
VERTEX
100
AcDbEntity
8
CUT
100
AcDbVertex
100
AcDb2dVertex
10
43.264510
20
26.802255
30
0
70
0
0
VERTEX
100
AcDbEntity
8
CUT
100
AcDbVertex
100
AcDb2dVertex
10
43.674783
20
26.072753
30
0
70
0
0
VERTEX
100
AcDbEntity
8
CUT
100
AcDbVertex
100
AcDb2dVertex
10
44.102544
20
25.354454
30
0
70
0
0
VERTEX
100
AcDbEntity
8
CUT
100
AcDbVertex
100
AcDb2dVertex
10
44.552126
20
24.640500
30
0
70
0
0
VERTEX
100
AcDbEntity
8
CUT
100
AcDbVertex
100
AcDb2dVertex
10
44.907170
20
24.104431
30
0
70
0
0
VERTEX
100
AcDbEntity
8
CUT
100
AcDbVertex
100
AcDb2dVertex
10
45.525276
20
23.212678
30
0
70
0
0
VERTEX
100
AcDbEntity
8
CUT
100
AcDbVertex
100
AcDb2dVertex
10
46.195172
20
22.302625
30
0
70
0
0
VERTEX
100
AcDbEntity
8
CUT
100
AcDbVertex
100
AcDb2dVertex
10
46.707622
20
21.641042
30
0
70
0
0
VERTEX
100
AcDbEntity
8
CUT
100
AcDbVertex
100
AcDb2dVertex
10
47.291652
20
20.924216
30
0
70
0
0
VERTEX
100
AcDbEntity
8
CUT
100
AcDbVertex
100
AcDb2dVertex
10
47.890532
20
20.224001
30
0
70
0
0
VERTEX
100
AcDbEntity
8
CUT
100
AcDbVertex
100
AcDb2dVertex
10
48.531002
20
19.510253
30
0
70
0
0
SEQEND
100
AcDbEntity
8
CUT
0
POLYLINE
100
AcDbEntity
8
CUT
100
AcDb2dPolyline
66
1
10
0
20
0
30
0
70
1
0
VERTEX
100
AcDbEntity
8
CUT
100
AcDbVertex
100
AcDb2dVertex
10
32.859388
20
63.137291
30
0
70
0
0
VERTEX
100
AcDbEntity
8
CUT
100
AcDbVertex
100
AcDb2dVertex
10
32.789049
20
63.237841
30
0
70
0
0
VERTEX
100
AcDbEntity
8
CUT
100
AcDbVertex
100
AcDb2dVertex
10
32.744949
20
63.396486
30
0
70
0
0
VERTEX
100
AcDbEntity
8
CUT
100
AcDbVertex
100
AcDb2dVertex
10
32.768163
20
63.559562
30
0
70
0
0
VERTEX
100
AcDbEntity
8
CUT
100
AcDbVertex
100
AcDb2dVertex
10
32.822226
20
63.663836
30
0
70
0
0
VERTEX
100
AcDbEntity
8
CUT
100
AcDbVertex
100
AcDb2dVertex
10
40.662302
20
74.753061
30
0
70
0
0
VERTEX
100
AcDbEntity
8
CUT
100
AcDbVertex
100
AcDb2dVertex
10
40.736198
20
74.833539
30
0
70
0
0
VERTEX
100
AcDbEntity
8
CUT
100
AcDbVertex
100
AcDb2dVertex
10
40.817252
20
74.886176
30
0
70
0
0
VERTEX
100
AcDbEntity
8
CUT
100
AcDbVertex
100
AcDb2dVertex
10
40.975668
20
74.928781
30
0
70
0
0
VERTEX
100
AcDbEntity
8
CUT
100
AcDbVertex
100
AcDb2dVertex
10
41.077808
20
74.922419
30
0
70
0
0
VERTEX
100
AcDbEntity
8
CUT
100
AcDbVertex
100
AcDb2dVertex
10
41.176528
20
74.889878
30
0
70
0
0
VERTEX
100
AcDbEntity
8
CUT
100
AcDbVertex
100
AcDb2dVertex
10
41.263910
20
74.833477
30
0
70
0
0
VERTEX
100
AcDbEntity
8
CUT
100
AcDbVertex
100
AcDb2dVertex
10
41.337737
20
74.753085
30
0
70
0
0
VERTEX
100
AcDbEntity
8
CUT
100
AcDbVertex
100
AcDb2dVertex
10
49.178469
20
63.664616
30
0
70
0
0
VERTEX
100
AcDbEntity
8
CUT
100
AcDbVertex
100
AcDb2dVertex
10
49.232518
20
63.560385
30
0
70
0
0
VERTEX
100
AcDbEntity
8
CUT
100
AcDbVertex
100
AcDb2dVertex
10
49.255133
20
63.451163
30
0
70
0
0
VERTEX
100
AcDbEntity
8
CUT
100
AcDbVertex
100
AcDb2dVertex
10
49.245994
20
63.334353
30
0
70
0
0
VERTEX
100
AcDbEntity
8
CUT
100
AcDbVertex
100
AcDb2dVertex
10
49.181360
20
63.186971
30
0
70
0
0
VERTEX
100
AcDbEntity
8
CUT
100
AcDbVertex
100
AcDb2dVertex
10
48.532100
20
62.490948
30
0
70
0
0
VERTEX
100
AcDbEntity
8
CUT
100
AcDbVertex
100
AcDb2dVertex
10
47.902171
20
61.789240
30
0
70
0
0
VERTEX
100
AcDbEntity
8
CUT
100
AcDbVertex
100
AcDb2dVertex
10
47.292887
20
61.077263
30
0
70
0
0
VERTEX
100
AcDbEntity
8
CUT
100
AcDbVertex
100
AcDb2dVertex
10
46.773541
20
60.439830
30
0
70
0
0
VERTEX
100
AcDbEntity
8
CUT
100
AcDbVertex
100
AcDb2dVertex
10
46.198453
20
59.701928
30
0
70
0
0
VERTEX
100
AcDbEntity
8
CUT
100
AcDbVertex
100
AcDb2dVertex
10
45.552337
20
58.824079
30
0
70
0
0
VERTEX
100
AcDbEntity
8
CUT
100
AcDbVertex
100
AcDb2dVertex
10
44.899891
20
57.884495
30
0
70
0
0
VERTEX
100
AcDbEntity
8
CUT
100
AcDbVertex
100
AcDb2dVertex
10
44.108422
20
56.654893
30
0
70
0
0
VERTEX
100
AcDbEntity
8
CUT
100
AcDbVertex
100
AcDb2dVertex
10
43.676391
20
55.929991
30
0
70
0
0
VERTEX
100
AcDbEntity
8
CUT
100
AcDbVertex
100
AcDb2dVertex
10
42.857773
20
54.429732
30
0
70
0
0
VERTEX
100
AcDbEntity
8
CUT
100
AcDbVertex
100
AcDb2dVertex
10
42.499881
20
53.707567
30
0
70
0
0
VERTEX
100
AcDbEntity
8
CUT
100
AcDbVertex
100
AcDb2dVertex
10
42.139043
20
52.931368
30
0
70
0
0
VERTEX
100
AcDbEntity
8
CUT
100
AcDbVertex
100
AcDb2dVertex
10
41.827924
20
52.211945
30
0
70
0
0
VERTEX
100
AcDbEntity
8
CUT
100
AcDbVertex
100
AcDb2dVertex
10
41.360913
20
51.030646
30
0
70
0
0
VERTEX
100
AcDbEntity
8
CUT
100
AcDbVertex
100
AcDb2dVertex
10
41.300037
20
50.944449
30
0
70
0
0
VERTEX
100
AcDbEntity
8
CUT
100
AcDbVertex
100
AcDb2dVertex
10
41.219542
20
50.876819
30
0
70
0
0
VERTEX
100
AcDbEntity
8
CUT
100
AcDbVertex
100
AcDb2dVertex
10
41.124492
20
50.831927
30
0
70
0
0
VERTEX
100
AcDbEntity
8
CUT
100
AcDbVertex
100
AcDb2dVertex
10
41.021143
20
50.812722
30
0
70
0
0
VERTEX
100
AcDbEntity
8
CUT
100
AcDbVertex
100
AcDb2dVertex
10
40.916370
20
50.820467
30
0
70
0
0
VERTEX
100
AcDbEntity
8
CUT
100
AcDbVertex
100
AcDb2dVertex
10
40.818300
20
50.854361
30
0
70
0
0
VERTEX
100
AcDbEntity
8
CUT
100
AcDbVertex
100
AcDb2dVertex
10
40.691443
20
50.951439
30
0
70
0
0
VERTEX
100
AcDbEntity
8
CUT
100
AcDbVertex
100
AcDb2dVertex
10
40.632567
20
51.037883
30
0
70
0
0
VERTEX
100
AcDbEntity
8
CUT
100
AcDbVertex
100
AcDb2dVertex
10
40.099429
20
52.380567
30
0
70
0
0
VERTEX
100
AcDbEntity
8
CUT
100
AcDbVertex
100
AcDb2dVertex
10
39.521766
20
53.663653
30
0
70
0
0
VERTEX
100
AcDbEntity
8
CUT
100
AcDbVertex
100
AcDb2dVertex
10
39.132121
20
54.448612
30
0
70
0
0
VERTEX
100
AcDbEntity
8
CUT
100
AcDbVertex
100
AcDb2dVertex
10
38.735490
20
55.197745
30
0
70
0
0
VERTEX
100
AcDbEntity
8
CUT
100
AcDbVertex
100
AcDb2dVertex
10
38.325217
20
55.927247
30
0
70
0
0
VERTEX
100
AcDbEntity
8
CUT
100
AcDbVertex
100
AcDb2dVertex
10
37.897456
20
56.645546
30
0
70
0
0
VERTEX
100
AcDbEntity
8
CUT
100
AcDbVertex
100
AcDb2dVertex
10
37.447874
20
57.359500
30
0
70
0
0
VERTEX
100
AcDbEntity
8
CUT
100
AcDbVertex
100
AcDb2dVertex
10
37.092830
20
57.895569
30
0
70
0
0
VERTEX
100
AcDbEntity
8
CUT
100
AcDbVertex
100
AcDb2dVertex
10
36.474724
20
58.787322
30
0
70
0
0
VERTEX
100
AcDbEntity
8
CUT
100
AcDbVertex
100
AcDb2dVertex
10
35.804828
20
59.697375
30
0
70
0
0
VERTEX
100
AcDbEntity
8
CUT
100
AcDbVertex
100
AcDb2dVertex
10
35.292378
20
60.358958
30
0
70
0
0
VERTEX
100
AcDbEntity
8
CUT
100
AcDbVertex
100
AcDb2dVertex
10
34.708348
20
61.075784
30
0
70
0
0
VERTEX
100
AcDbEntity
8
CUT
100
AcDbVertex
100
AcDb2dVertex
10
34.109468
20
61.775999
30
0
70
0
0
VERTEX
100
AcDbEntity
8
CUT
100
AcDbVertex
100
AcDb2dVertex
10
33.468998
20
62.489747
30
0
70
0
0
SEQEND
100
AcDbEntity
8
CUT
0
POLYLINE
100
AcDbEntity
8
CUT
100
AcDb2dPolyline
66
1
10
0
20
0
30
0
70
1
0
VERTEX
100
AcDbEntity
8
CUT
100
AcDbVertex
100
AcDb2dVertex
10
44.904709
20
30.304763
30
0
70
0
0
VERTEX
100
AcDbEntity
8
CUT
100
AcDbVertex
100
AcDb2dVertex
10
44.341271
20
31.651729
30
0
70
0
0
VERTEX
100
AcDbEntity
8
CUT
100
AcDbVertex
100
AcDb2dVertex
10
43.688497
20
33.532612
30
0
70
0
0
VERTEX
100
AcDbEntity
8
CUT
100
AcDbVertex
100
AcDb2dVertex
10
43.153795
20
35.577607
30
0
70
0
0
VERTEX
100
AcDbEntity
8
CUT
100
AcDbVertex
100
AcDb2dVertex
10
42.813582
20
37.528931
30
0
70
0
0
VERTEX
100
AcDbEntity
8
CUT
100
AcDbVertex
100
AcDb2dVertex
10
42.730176
20
38.220951
30
0
70
0
0
VERTEX
100
AcDbEntity
8
CUT
100
AcDbVertex
100
AcDb2dVertex
10
42.677046
20
38.976510
30
0
70
0
0
VERTEX
100
AcDbEntity
8
CUT
100
AcDbVertex
100
AcDb2dVertex
10
42.698032
20
39.142194
30
0
70
0
0
VERTEX
100
AcDbEntity
8
CUT
100
AcDbVertex
100
AcDb2dVertex
10
42.742914
20
39.234857
30
0
70
0
0
VERTEX
100
AcDbEntity
8
CUT
100
AcDbVertex
100
AcDb2dVertex
10
42.852412
20
39.346938
30
0
70
0
0
VERTEX
100
AcDbEntity
8
CUT
100
AcDbVertex
100
AcDb2dVertex
10
43.000511
20
39.411634
30
0
70
0
0
VERTEX
100
AcDbEntity
8
CUT
100
AcDbVertex
100
AcDb2dVertex
10
43.109509
20
39.420960
30
0
70
0
0
VERTEX
100
AcDbEntity
8
CUT
100
AcDbVertex
100
AcDb2dVertex
10
43.397823
20
39.407694
30
0
70
0
0
VERTEX
100
AcDbEntity
8
CUT
100
AcDbVertex
100
AcDb2dVertex
10
44.373115
20
39.331318
30
0
70
0
0
VERTEX
100
AcDbEntity
8
CUT
100
AcDbVertex
100
AcDb2dVertex
10
45.892793
20
39.156874
30
0
70
0
0
VERTEX
100
AcDbEntity
8
CUT
100
AcDbVertex
100
AcDb2dVertex
10
46.640919
20
39.047408
30
0
70
0
0
VERTEX
100
AcDbEntity
8
CUT
100
AcDbVertex
100
AcDb2dVertex
10
47.500411
20
38.899522
30
0
70
0
0
VERTEX
100
AcDbEntity
8
CUT
100
AcDbVertex
100
AcDb2dVertex
10
48.508359
20
38.700676
30
0
70
0
0
VERTEX
100
AcDbEntity
8
CUT
100
AcDbVertex
100
AcDb2dVertex
10
49.432747
20
38.492889
30
0
70
0
0
VERTEX
100
AcDbEntity
8
CUT
100
AcDbVertex
100
AcDb2dVertex
10
50.244528
20
38.292138
30
0
70
0
0
VERTEX
100
AcDbEntity
8
CUT
100
AcDbVertex
100
AcDb2dVertex
10
51.049205
20
38.073687
30
0
70
0
0
VERTEX
100
AcDbEntity
8
CUT
100
AcDbVertex
100
AcDb2dVertex
10
52.700830
20
37.572492
30
0
70
0
0
VERTEX
100
AcDbEntity
8
CUT
100
AcDbVertex
100
AcDb2dVertex
10
53.653175
20
37.249679
30
0
70
0
0
VERTEX
100
AcDbEntity
8
CUT
100
AcDbVertex
100
AcDb2dVertex
10
54.628279
20
36.893826
30
0
70
0
0
VERTEX
100
AcDbEntity
8
CUT
100
AcDbVertex
100
AcDb2dVertex
10
55.472060
20
36.563470
30
0
70
0
0
VERTEX
100
AcDbEntity
8
CUT
100
AcDbVertex
100
AcDb2dVertex
10
56.406211
20
36.175742
30
0
70
0
0
VERTEX
100
AcDbEntity
8
CUT
100
AcDbVertex
100
AcDb2dVertex
10
57.392029
20
35.741290
30
0
70
0
0
VERTEX
100
AcDbEntity
8
CUT
100
AcDbVertex
100
AcDb2dVertex
10
58.276033
20
35.328342
30
0
70
0
0
VERTEX
100
AcDbEntity
8
CUT
100
AcDbVertex
100
AcDb2dVertex
10
59.230700
20
34.859247
30
0
70
0
0
VERTEX
100
AcDbEntity
8
CUT
100
AcDbVertex
100
AcDb2dVertex
10
60.000154
20
34.460995
30
0
70
0
0
VERTEX
100
AcDbEntity
8
CUT
100
AcDbVertex
100
AcDb2dVertex
10
60.132940
20
34.354066
30
0
70
0
0
VERTEX
100
AcDbEntity
8
CUT
100
AcDbVertex
100
AcDb2dVertex
10
60.209938
20
34.212598
30
0
70
0
0
VERTEX
100
AcDbEntity
8
CUT
100
AcDbVertex
100
AcDb2dVertex
10
60.227744
20
34.110249
30
0
70
0
0
VERTEX
100
AcDbEntity
8
CUT
100
AcDbVertex
100
AcDb2dVertex
10
60.218524
20
34.006867
30
0
70
0
0
VERTEX
100
AcDbEntity
8
CUT
100
AcDbVertex
100
AcDb2dVertex
10
60.148960
20
33.850001
30
0
70
0
0
VERTEX
100
AcDbEntity
8
CUT
100
AcDbVertex
100
AcDb2dVertex
10
51.461096
20
21.563505
30
0
70
0
0
VERTEX
100
AcDbEntity
8
CUT
100
AcDbVertex
100
AcDb2dVertex
10
51.346472
20
21.452808
30
0
70
0
0
VERTEX
100
AcDbEntity
8
CUT
100
AcDbVertex
100
AcDb2dVertex
10
51.200639
20
21.392710
30
0
70
0
0
VERTEX
100
AcDbEntity
8
CUT
100
AcDbVertex
100
AcDb2dVertex
10
51.099124
20
21.385358
30
0
70
0
0
VERTEX
100
AcDbEntity
8
CUT
100
AcDbVertex
100
AcDb2dVertex
10
51.004835
20
21.402432
30
0
70
0
0
VERTEX
100
AcDbEntity
8
CUT
100
AcDbVertex
100
AcDb2dVertex
10
50.860988
20
21.479092
30
0
70
0
0
VERTEX
100
AcDbEntity
8
CUT
100
AcDbVertex
100
AcDb2dVertex
10
50.669194
20
21.676638
30
0
70
0
0
VERTEX
100
AcDbEntity
8
CUT
100
AcDbVertex
100
AcDb2dVertex
10
50.078857
20
22.334132
30
0
70
0
0
VERTEX
100
AcDbEntity
8
CUT
100
AcDbVertex
100
AcDb2dVertex
10
49.536162
20
22.968325
30
0
70
0
0
VERTEX
100
AcDbEntity
8
CUT
100
AcDbVertex
100
AcDb2dVertex
10
48.925840
20
23.714005
30
0
70
0
0
VERTEX
100
AcDbEntity
8
CUT
100
AcDbVertex
100
AcDb2dVertex
10
48.397507
20
24.397130
30
0
70
0
0
VERTEX
100
AcDbEntity
8
CUT
100
AcDbVertex
100
AcDb2dVertex
10
47.659795
20
25.427718
30
0
70
0
0
VERTEX
100
AcDbEntity
8
CUT
100
AcDbVertex
100
AcDb2dVertex
10
46.729858
20
26.857128
30
0
70
0
0
VERTEX
100
AcDbEntity
8
CUT
100
AcDbVertex
100
AcDb2dVertex
10
45.974425
20
28.159712
30
0
70
0
0
SEQEND
100
AcDbEntity
8
CUT
0
POLYLINE
100
AcDbEntity
8
CUT
100
AcDb2dPolyline
66
1
10
0
20
0
30
0
70
1
0
VERTEX
100
AcDbEntity
8
CUT
100
AcDbVertex
100
AcDb2dVertex
10
43.114234
20
42.576001
30
0
70
0
0
VERTEX
100
AcDbEntity
8
CUT
100
AcDbVertex
100
AcDb2dVertex
10
42.950020
20
42.598556
30
0
70
0
0
VERTEX
100
AcDbEntity
8
CUT
100
AcDbVertex
100
AcDb2dVertex
10
42.811728
20
42.679316
30
0
70
0
0
VERTEX
100
AcDbEntity
8
CUT
100
AcDbVertex
100
AcDb2dVertex
10
42.715183
20
42.806912
30
0
70
0
0
VERTEX
100
AcDbEntity
8
CUT
100
AcDbVertex
100
AcDb2dVertex
10
42.674276
20
42.965633
30
0
70
0
0
VERTEX
100
AcDbEntity
8
CUT
100
AcDbVertex
100
AcDb2dVertex
10
42.752864
20
43.968614
30
0
70
0
0
VERTEX
100
AcDbEntity
8
CUT
100
AcDbVertex
100
AcDb2dVertex
10
43.072954
20
46.023694
30
0
70
0
0
VERTEX
100
AcDbEntity
8
CUT
100
AcDbVertex
100
AcDb2dVertex
10
43.466003
20
47.699851
30
0
70
0
0
VERTEX
100
AcDbEntity
8
CUT
100
AcDbVertex
100
AcDb2dVertex
10
44.041627
20
49.537765
30
0
70
0
0
VERTEX
100
AcDbEntity
8
CUT
100
AcDbVertex
100
AcDb2dVertex
10
44.119238
20
49.754304
30
0
70
0
0
VERTEX
100
AcDbEntity
8
CUT
100
AcDbVertex
100
AcDb2dVertex
10
44.904914
20
51.695655
30
0
70
0
0
VERTEX
100
AcDbEntity
8
CUT
100
AcDbVertex
100
AcDb2dVertex
10
45.941583
20
53.780359
30
0
70
0
0
VERTEX
100
AcDbEntity
8
CUT
100
AcDbVertex
100
AcDb2dVertex
10
47.061017
20
55.670416
30
0
70
0
0
VERTEX
100
AcDbEntity
8
CUT
100
AcDbVertex
100
AcDb2dVertex
10
48.040801
20
57.117702
30
0
70
0
0
VERTEX
100
AcDbEntity
8
CUT
100
AcDbVertex
100
AcDb2dVertex
10
48.926110
20
58.286285
30
0
70
0
0
VERTEX
100
AcDbEntity
8
CUT
100
AcDbVertex
100
AcDb2dVertex
10
49.410747
20
58.880007
30
0
70
0
0
VERTEX
100
AcDbEntity
8
CUT
100
AcDbVertex
100
AcDb2dVertex
10
50.060060
20
59.643957
30
0
70
0
0
VERTEX
100
AcDbEntity
8
CUT
100
AcDbVertex
100
AcDb2dVertex
10
50.818347
20
60.481687
30
0
70
0
0
VERTEX
100
AcDbEntity
8
CUT
100
AcDbVertex
100
AcDb2dVertex
10
50.950418
20
60.577493
30
0
70
0
0
VERTEX
100
AcDbEntity
8
CUT
100
AcDbVertex
100
AcDb2dVertex
10
51.046168
20
60.608097
30
0
70
0
0
VERTEX
100
AcDbEntity
8
CUT
100
AcDbVertex
100
AcDb2dVertex
10
51.203021
20
60.607030
30
0
70
0
0
VERTEX
100
AcDbEntity
8
CUT
100
AcDbVertex
100
AcDb2dVertex
10
51.299732
20
60.574815
30
0
70
0
0
VERTEX
100
AcDbEntity
8
CUT
100
AcDbVertex
100
AcDb2dVertex
10
51.386291
20
60.518608
30
0
70
0
0
VERTEX
100
AcDbEntity
8
CUT
100
AcDbVertex
100
AcDb2dVertex
10
51.459521
20
60.438722
30
0
70
0
0
VERTEX
100
AcDbEntity
8
CUT
100
AcDbVertex
100
AcDb2dVertex
10
60.150699
20
48.147539
30
0
70
0
0
VERTEX
100
AcDbEntity
8
CUT
100
AcDbVertex
100
AcDb2dVertex
10
60.203069
20
48.047955
30
0
70
0
0
VERTEX
100
AcDbEntity
8
CUT
100
AcDbVertex
100
AcDb2dVertex
10
60.226618
20
47.943365
30
0
70
0
0
VERTEX
100
AcDbEntity
8
CUT
100
AcDbVertex
100
AcDb2dVertex
10
60.222199
20
47.836248
30
0
70
0
0
VERTEX
100
AcDbEntity
8
CUT
100
AcDbVertex
100
AcDb2dVertex
10
60.190117
20
47.733953
30
0
70
0
0
VERTEX
100
AcDbEntity
8
CUT
100
AcDbVertex
100
AcDb2dVertex
10
60.132570
20
47.643494
30
0
70
0
0
VERTEX
100
AcDbEntity
8
CUT
100
AcDbVertex
100
AcDb2dVertex
10
60.053437
20
47.571003
30
0
70
0
0
VERTEX
100
AcDbEntity
8
CUT
100
AcDbVertex
100
AcDb2dVertex
10
59.294860
20
47.172488
30
0
70
0
0
VERTEX
100
AcDbEntity
8
CUT
100
AcDbVertex
100
AcDb2dVertex
10
58.337597
20
46.700518
30
0
70
0
0
VERTEX
100
AcDbEntity
8
CUT
100
AcDbVertex
100
AcDb2dVertex
10
57.402444
20
46.263493
30
0
70
0
0
VERTEX
100
AcDbEntity
8
CUT
100
AcDbVertex
100
AcDb2dVertex
10
56.519117
20
45.873248
30
0
70
0
0
VERTEX
100
AcDbEntity
8
CUT
100
AcDbVertex
100
AcDb2dVertex
10
55.538232
20
45.462461
30
0
70
0
0
VERTEX
100
AcDbEntity
8
CUT
100
AcDbVertex
100
AcDb2dVertex
10
54.680295
20
45.126640
30
0
70
0
0
VERTEX
100
AcDbEntity
8
CUT
100
AcDbVertex
100
AcDb2dVertex
10
53.778939
20
44.794796
30
0
70
0
0
VERTEX
100
AcDbEntity
8
CUT
100
AcDbVertex
100
AcDb2dVertex
10
52.835534
20
44.470556
30
0
70
0
0
VERTEX
100
AcDbEntity
8
CUT
100
AcDbVertex
100
AcDb2dVertex
10
52.002698
20
44.205875
30
0
70
0
0
VERTEX
100
AcDbEntity
8
CUT
100
AcDbVertex
100
AcDb2dVertex
10
51.156643
20
43.955960
30
0
70
0
0
VERTEX
100
AcDbEntity
8
CUT
100
AcDbVertex
100
AcDb2dVertex
10
50.172895
20
43.688738
30
0
70
0
0
VERTEX
100
AcDbEntity
8
CUT
100
AcDbVertex
100
AcDb2dVertex
10
49.386081
20
43.495754
30
0
70
0
0
VERTEX
100
AcDbEntity
8
CUT
100
AcDbVertex
100
AcDb2dVertex
10
48.556562
20
43.310040
30
0
70
0
0
VERTEX
100
AcDbEntity
8
CUT
100
AcDbVertex
100
AcDb2dVertex
10
47.551943
20
43.109305
30
0
70
0
0
VERTEX
100
AcDbEntity
8
CUT
100
AcDbVertex
100
AcDb2dVertex
10
46.814515
20
42.980776
30
0
70
0
0
VERTEX
100
AcDbEntity
8
CUT
100
AcDbVertex
100
AcDb2dVertex
10
45.866296
20
42.839782
30
0
70
0
0
VERTEX
100
AcDbEntity
8
CUT
100
AcDbVertex
100
AcDb2dVertex
10
44.370403
20
42.668446
30
0
70
0
0
SEQEND
100
AcDbEntity
8
CUT
0
POLYLINE
100
AcDbEntity
8
CUT
100
AcDb2dPolyline
66
1
10
0
20
0
30
0
70
1
0
VERTEX
100
AcDbEntity
8
CUT
100
AcDbVertex
100
AcDb2dVertex
10
38.885766
20
39.423999
30
0
70
0
0
VERTEX
100
AcDbEntity
8
CUT
100
AcDbVertex
100
AcDb2dVertex
10
39.049980
20
39.401444
30
0
70
0
0
VERTEX
100
AcDbEntity
8
CUT
100
AcDbVertex
100
AcDb2dVertex
10
39.188272
20
39.320684
30
0
70
0
0
VERTEX
100
AcDbEntity
8
CUT
100
AcDbVertex
100
AcDb2dVertex
10
39.284817
20
39.193088
30
0
70
0
0
VERTEX
100
AcDbEntity
8
CUT
100
AcDbVertex
100
AcDb2dVertex
10
39.325724
20
39.034367
30
0
70
0
0
VERTEX
100
AcDbEntity
8
CUT
100
AcDbVertex
100
AcDb2dVertex
10
39.247136
20
38.031386
30
0
70
0
0
VERTEX
100
AcDbEntity
8
CUT
100
AcDbVertex
100
AcDb2dVertex
10
38.927046
20
35.976306
30
0
70
0
0
VERTEX
100
AcDbEntity
8
CUT
100
AcDbVertex
100
AcDb2dVertex
10
38.533997
20
34.300149
30
0
70
0
0
VERTEX
100
AcDbEntity
8
CUT
100
AcDbVertex
100
AcDb2dVertex
10
37.958373
20
32.462235
30
0
70
0
0
VERTEX
100
AcDbEntity
8
CUT
100
AcDbVertex
100
AcDb2dVertex
10
37.880762
20
32.245696
30
0
70
0
0
VERTEX
100
AcDbEntity
8
CUT
100
AcDbVertex
100
AcDb2dVertex
10
37.095086
20
30.304345
30
0
70
0
0
VERTEX
100
AcDbEntity
8
CUT
100
AcDbVertex
100
AcDb2dVertex
10
36.058417
20
28.219641
30
0
70
0
0
VERTEX
100
AcDbEntity
8
CUT
100
AcDbVertex
100
AcDb2dVertex
10
34.938983
20
26.329584
30
0
70
0
0
VERTEX
100
AcDbEntity
8
CUT
100
AcDbVertex
100
AcDb2dVertex
10
33.959199
20
24.882298
30
0
70
0
0
VERTEX
100
AcDbEntity
8
CUT
100
AcDbVertex
100
AcDb2dVertex
10
33.073890
20
23.713715
30
0
70
0
0
VERTEX
100
AcDbEntity
8
CUT
100
AcDbVertex
100
AcDb2dVertex
10
32.589253
20
23.119993
30
0
70
0
0
VERTEX
100
AcDbEntity
8
CUT
100
AcDbVertex
100
AcDb2dVertex
10
31.939940
20
22.356043
30
0
70
0
0
VERTEX
100
AcDbEntity
8
CUT
100
AcDbVertex
100
AcDb2dVertex
10
31.181653
20
21.518313
30
0
70
0
0
VERTEX
100
AcDbEntity
8
CUT
100
AcDbVertex
100
AcDb2dVertex
10
31.049582
20
21.422507
30
0
70
0
0
VERTEX
100
AcDbEntity
8
CUT
100
AcDbVertex
100
AcDb2dVertex
10
30.953832
20
21.391903
30
0
70
0
0
VERTEX
100
AcDbEntity
8
CUT
100
AcDbVertex
100
AcDb2dVertex
10
30.796979
20
21.392970
30
0
70
0
0
VERTEX
100
AcDbEntity
8
CUT
100
AcDbVertex
100
AcDb2dVertex
10
30.700268
20
21.425185
30
0
70
0
0
VERTEX
100
AcDbEntity
8
CUT
100
AcDbVertex
100
AcDb2dVertex
10
30.613709
20
21.481392
30
0
70
0
0
VERTEX
100
AcDbEntity
8
CUT
100
AcDbVertex
100
AcDb2dVertex
10
30.540479
20
21.561278
30
0
70
0
0
VERTEX
100
AcDbEntity
8
CUT
100
AcDbVertex
100
AcDb2dVertex
10
21.849301
20
33.852461
30
0
70
0
0
VERTEX
100
AcDbEntity
8
CUT
100
AcDbVertex
100
AcDb2dVertex
10
21.796931
20
33.952045
30
0
70
0
0
VERTEX
100
AcDbEntity
8
CUT
100
AcDbVertex
100
AcDb2dVertex
10
21.773382
20
34.056635
30
0
70
0
0
VERTEX
100
AcDbEntity
8
CUT
100
AcDbVertex
100
AcDb2dVertex
10
21.777801
20
34.163752
30
0
70
0
0
VERTEX
100
AcDbEntity
8
CUT
100
AcDbVertex
100
AcDb2dVertex
10
21.809883
20
34.266047
30
0
70
0
0
VERTEX
100
AcDbEntity
8
CUT
100
AcDbVertex
100
AcDb2dVertex
10
21.867430
20
34.356506
30
0
70
0
0
VERTEX
100
AcDbEntity
8
CUT
100
AcDbVertex
100
AcDb2dVertex
10
21.946563
20
34.428997
30
0
70
0
0
VERTEX
100
AcDbEntity
8
CUT
100
AcDbVertex
100
AcDb2dVertex
10
22.705140
20
34.827512
30
0
70
0
0
VERTEX
100
AcDbEntity
8
CUT
100
AcDbVertex
100
AcDb2dVertex
10
23.662403
20
35.299482
30
0
70
0
0
VERTEX
100
AcDbEntity
8
CUT
100
AcDbVertex
100
AcDb2dVertex
10
24.597556
20
35.736507
30
0
70
0
0
VERTEX
100
AcDbEntity
8
CUT
100
AcDbVertex
100
AcDb2dVertex
10
25.480883
20
36.126752
30
0
70
0
0
VERTEX
100
AcDbEntity
8
CUT
100
AcDbVertex
100
AcDb2dVertex
10
26.461768
20
36.537539
30
0
70
0
0
VERTEX
100
AcDbEntity
8
CUT
100
AcDbVertex
100
AcDb2dVertex
10
27.319705
20
36.873360
30
0
70
0
0
VERTEX
100
AcDbEntity
8
CUT
100
AcDbVertex
100
AcDb2dVertex
10
28.221061
20
37.205204
30
0
70
0
0
VERTEX
100
AcDbEntity
8
CUT
100
AcDbVertex
100
AcDb2dVertex
10
29.164466
20
37.529444
30
0
70
0
0
VERTEX
100
AcDbEntity
8
CUT
100
AcDbVertex
100
AcDb2dVertex
10
29.997302
20
37.794125
30
0
70
0
0
VERTEX
100
AcDbEntity
8
CUT
100
AcDbVertex
100
AcDb2dVertex
10
30.843357
20
38.044040
30
0
70
0
0
VERTEX
100
AcDbEntity
8
CUT
100
AcDbVertex
100
AcDb2dVertex
10
31.827105
20
38.311262
30
0
70
0
0
VERTEX
100
AcDbEntity
8
CUT
100
AcDbVertex
100
AcDb2dVertex
10
32.613919
20
38.504246
30
0
70
0
0
VERTEX
100
AcDbEntity
8
CUT
100
AcDbVertex
100
AcDb2dVertex
10
33.443438
20
38.689960
30
0
70
0
0
VERTEX
100
AcDbEntity
8
CUT
100
AcDbVertex
100
AcDb2dVertex
10
34.448057
20
38.890695
30
0
70
0
0
VERTEX
100
AcDbEntity
8
CUT
100
AcDbVertex
100
AcDb2dVertex
10
35.185485
20
39.019224
30
0
70
0
0
VERTEX
100
AcDbEntity
8
CUT
100
AcDbVertex
100
AcDb2dVertex
10
36.133704
20
39.160218
30
0
70
0
0
VERTEX
100
AcDbEntity
8
CUT
100
AcDbVertex
100
AcDb2dVertex
10
37.629597
20
39.331554
30
0
70
0
0
SEQEND
100
AcDbEntity
8
CUT
0
POLYLINE
100
AcDbEntity
8
CUT
100
AcDb2dPolyline
66
1
10
0
20
0
30
0
70
1
0
VERTEX
100
AcDbEntity
8
CUT
100
AcDbVertex
100
AcDb2dVertex
10
37.095291
20
51.695237
30
0
70
0
0
VERTEX
100
AcDbEntity
8
CUT
100
AcDbVertex
100
AcDb2dVertex
10
37.658729
20
50.348271
30
0
70
0
0
VERTEX
100
AcDbEntity
8
CUT
100
AcDbVertex
100
AcDb2dVertex
10
38.311503
20
48.467388
30
0
70
0
0
VERTEX
100
AcDbEntity
8
CUT
100
AcDbVertex
100
AcDb2dVertex
10
38.846205
20
46.422393
30
0
70
0
0
VERTEX
100
AcDbEntity
8
CUT
100
AcDbVertex
100
AcDb2dVertex
10
39.186418
20
44.471069
30
0
70
0
0
VERTEX
100
AcDbEntity
8
CUT
100
AcDbVertex
100
AcDb2dVertex
10
39.269824
20
43.779049
30
0
70
0
0
VERTEX
100
AcDbEntity
8
CUT
100
AcDbVertex
100
AcDb2dVertex
10
39.322954
20
43.023490
30
0
70
0
0
VERTEX
100
AcDbEntity
8
CUT
100
AcDbVertex
100
AcDb2dVertex
10
39.301968
20
42.857806
30
0
70
0
0
VERTEX
100
AcDbEntity
8
CUT
100
AcDbVertex
100
AcDb2dVertex
10
39.257086
20
42.765143
30
0
70
0
0
VERTEX
100
AcDbEntity
8
CUT
100
AcDbVertex
100
AcDb2dVertex
10
39.147588
20
42.653062
30
0
70
0
0
VERTEX
100
AcDbEntity
8
CUT
100
AcDbVertex
100
AcDb2dVertex
10
38.999489
20
42.588366
30
0
70
0
0
VERTEX
100
AcDbEntity
8
CUT
100
AcDbVertex
100
AcDb2dVertex
10
38.890491
20
42.579040
30
0
70
0
0
VERTEX
100
AcDbEntity
8
CUT
100
AcDbVertex
100
AcDb2dVertex
10
38.602177
20
42.592306
30
0
70
0
0
VERTEX
100
AcDbEntity
8
CUT
100
AcDbVertex
100
AcDb2dVertex
10
37.626885
20
42.668682
30
0
70
0
0
VERTEX
100
AcDbEntity
8
CUT
100
AcDbVertex
100
AcDb2dVertex
10
36.107207
20
42.843126
30
0
70
0
0
VERTEX
100
AcDbEntity
8
CUT
100
AcDbVertex
100
AcDb2dVertex
10
35.359081
20
42.952592
30
0
70
0
0
VERTEX
100
AcDbEntity
8
CUT
100
AcDbVertex
100
AcDb2dVertex
10
34.499589
20
43.100478
30
0
70
0
0
VERTEX
100
AcDbEntity
8
CUT
100
AcDbVertex
100
AcDb2dVertex
10
33.491641
20
43.299324
30
0
70
0
0
VERTEX
100
AcDbEntity
8
CUT
100
AcDbVertex
100
AcDb2dVertex
10
32.567253
20
43.507111
30
0
70
0
0
VERTEX
100
AcDbEntity
8
CUT
100
AcDbVertex
100
AcDb2dVertex
10
31.755472
20
43.707862
30
0
70
0
0
VERTEX
100
AcDbEntity
8
CUT
100
AcDbVertex
100
AcDb2dVertex
10
30.950795
20
43.926313
30
0
70
0
0
VERTEX
100
AcDbEntity
8
CUT
100
AcDbVertex
100
AcDb2dVertex
10
29.299170
20
44.427508
30
0
70
0
0
VERTEX
100
AcDbEntity
8
CUT
100
AcDbVertex
100
AcDb2dVertex
10
28.346825
20
44.750321
30
0
70
0
0
VERTEX
100
AcDbEntity
8
CUT
100
AcDbVertex
100
AcDb2dVertex
10
27.371721
20
45.106174
30
0
70
0
0
VERTEX
100
AcDbEntity
8
CUT
100
AcDbVertex
100
AcDb2dVertex
10
26.527940
20
45.436530
30
0
70
0
0
VERTEX
100
AcDbEntity
8
CUT
100
AcDbVertex
100
AcDb2dVertex
10
25.593789
20
45.824258
30
0
70
0
0
VERTEX
100
AcDbEntity
8
CUT
100
AcDbVertex
100
AcDb2dVertex
10
24.607971
20
46.258710
30
0
70
0
0
VERTEX
100
AcDbEntity
8
CUT
100
AcDbVertex
100
AcDb2dVertex
10
23.723967
20
46.671658
30
0
70
0
0
VERTEX
100
AcDbEntity
8
CUT
100
AcDbVertex
100
AcDb2dVertex
10
22.769300
20
47.140753
30
0
70
0
0
VERTEX
100
AcDbEntity
8
CUT
100
AcDbVertex
100
AcDb2dVertex
10
21.999846
20
47.539005
30
0
70
0
0
VERTEX
100
AcDbEntity
8
CUT
100
AcDbVertex
100
AcDb2dVertex
10
21.867060
20
47.645934
30
0
70
0
0
VERTEX
100
AcDbEntity
8
CUT
100
AcDbVertex
100
AcDb2dVertex
10
21.790062
20
47.787402
30
0
70
0
0
VERTEX
100
AcDbEntity
8
CUT
100
AcDbVertex
100
AcDb2dVertex
10
21.772256
20
47.889751
30
0
70
0
0
VERTEX
100
AcDbEntity
8
CUT
100
AcDbVertex
100
AcDb2dVertex
10
21.781476
20
47.993133
30
0
70
0
0
VERTEX
100
AcDbEntity
8
CUT
100
AcDbVertex
100
AcDb2dVertex
10
21.851040
20
48.149999
30
0
70
0
0
VERTEX
100
AcDbEntity
8
CUT
100
AcDbVertex
100
AcDb2dVertex
10
30.538904
20
60.436495
30
0
70
0
0
VERTEX
100
AcDbEntity
8
CUT
100
AcDbVertex
100
AcDb2dVertex
10
30.653528
20
60.547192
30
0
70
0
0
VERTEX
100
AcDbEntity
8
CUT
100
AcDbVertex
100
AcDb2dVertex
10
30.799361
20
60.607290
30
0
70
0
0
VERTEX
100
AcDbEntity
8
CUT
100
AcDbVertex
100
AcDb2dVertex
10
30.900876
20
60.614642
30
0
70
0
0
VERTEX
100
AcDbEntity
8
CUT
100
AcDbVertex
100
AcDb2dVertex
10
30.995165
20
60.597568
30
0
70
0
0
VERTEX
100
AcDbEntity
8
CUT
100
AcDbVertex
100
AcDb2dVertex
10
31.139012
20
60.520908
30
0
70
0
0
VERTEX
100
AcDbEntity
8
CUT
100
AcDbVertex
100
AcDb2dVertex
10
31.330806
20
60.323362
30
0
70
0
0
VERTEX
100
AcDbEntity
8
CUT
100
AcDbVertex
100
AcDb2dVertex
10
31.921143
20
59.665868
30
0
70
0
0
VERTEX
100
AcDbEntity
8
CUT
100
AcDbVertex
100
AcDb2dVertex
10
32.463838
20
59.031675
30
0
70
0
0
VERTEX
100
AcDbEntity
8
CUT
100
AcDbVertex
100
AcDb2dVertex
10
33.074160
20
58.285995
30
0
70
0
0
VERTEX
100
AcDbEntity
8
CUT
100
AcDbVertex
100
AcDb2dVertex
10
33.602493
20
57.602870
30
0
70
0
0
VERTEX
100
AcDbEntity
8
CUT
100
AcDbVertex
100
AcDb2dVertex
10
34.340205
20
56.572282
30
0
70
0
0
VERTEX
100
AcDbEntity
8
CUT
100
AcDbVertex
100
AcDb2dVertex
10
35.270142
20
55.142872
30
0
70
0
0
VERTEX
100
AcDbEntity
8
CUT
100
AcDbVertex
100
AcDb2dVertex
10
36.025575
20
53.840288
30
0
70
0
0
SEQEND
100
AcDbEntity
8
CUT
0
ENDSEC
0
EOF
