0
SECTION
2
HEADER
9
$ACADVER
1
AC1012
9
$INSUNITS
70
4
9
$MEASUREMENT
70
1
0
ENDSEC
0
SECTION
2
ENTITIES
0
POLYLINE
100
AcDbEntity
8
CUT
100
AcDb2dPolyline
66
1
10
0
20
0
30
0
70
1
0
VERTEX
100
AcDbEntity
8
CUT
100
AcDbVertex
100
AcDb2dVertex
10
45.136485
20
20.173717
30
0
70
0
0
VERTEX
100
AcDbEntity
8
CUT
100
AcDbVertex
100
AcDb2dVertex
10
45.186759
20
20.013038
30
0
70
0
0
VERTEX
100
AcDbEntity
8
CUT
100
AcDbVertex
100
AcDb2dVertex
10
45.183526
20
19.903724
30
0
70
0
0
VERTEX
100
AcDbEntity
8
CUT
100
AcDbVertex
100
AcDb2dVertex
10
45.127799
20
19.756013
30
0
70
0
0
VERTEX
100
AcDbEntity
8
CUT
100
AcDbVertex
100
AcDb2dVertex
10
45.013345
20
19.633331
30
0
70
0
0
VERTEX
100
AcDbEntity
8
CUT
100
AcDbVertex
100
AcDb2dVertex
10
41.241186
20
16.965772
30
0
70
0
0
VERTEX
100
AcDbEntity
8
CUT
100
AcDbVertex
100
AcDb2dVertex
10
41.137179
20
16.911796
30
0
70
0
0
VERTEX
100
AcDbEntity
8
CUT
100
AcDbVertex
100
AcDb2dVertex
10
41.026561
20
16.888635
30
0
70
0
0
VERTEX
100
AcDbEntity
8
CUT
100
AcDbVertex
100
AcDb2dVertex
10
40.867660
20
16.910439
30
0
70
0
0
VERTEX
100
AcDbEntity
8
CUT
100
AcDbVertex
100
AcDb2dVertex
10
40.758549
20
16.965959
30
0
70
0
0
VERTEX
100
AcDbEntity
8
CUT
100
AcDbVertex
100
AcDb2dVertex
10
36.987394
20
19.632568
30
0
70
0
0
VERTEX
100
AcDbEntity
8
CUT
100
AcDbVertex
100
AcDb2dVertex
10
36.904303
20
19.709624
30
0
70
0
0
VERTEX
100
AcDbEntity
8
CUT
100
AcDbVertex
100
AcDb2dVertex
10
36.848850
20
19.798192
30
0
70
0
0
VERTEX
100
AcDbEntity
8
CUT
100
AcDbVertex
100
AcDb2dVertex
10
36.811704
20
19.955999
30
0
70
0
0
VERTEX
100
AcDbEntity
8
CUT
100
AcDbVertex
100
AcDb2dVertex
10
36.838710
20
20.119053
30
0
70
0
0
VERTEX
100
AcDbEntity
8
CUT
100
AcDbVertex
100
AcDb2dVertex
10
37.483943
20
21.358984
30
0
70
0
0
VERTEX
100
AcDbEntity
8
CUT
100
AcDbVertex
100
AcDb2dVertex
10
37.974643
20
22.353768
30
0
70
0
0
VERTEX
100
AcDbEntity
8
CUT
100
AcDbVertex
100
AcDb2dVertex
10
38.421655
20
23.310456
30
0
70
0
0
VERTEX
100
AcDbEntity
8
CUT
100
AcDbVertex
100
AcDb2dVertex
10
38.865504
20
24.312711
30
0
70
0
0
VERTEX
100
AcDbEntity
8
CUT
100
AcDbVertex
100
AcDb2dVertex
10
39.272597
20
25.290201
30
0
70
0
0
VERTEX
100
AcDbEntity
8
CUT
100
AcDbVertex
100
AcDb2dVertex
10
39.644515
20
26.244217
30
0
70
0
0
VERTEX
100
AcDbEntity
8
CUT
100
AcDbVertex
100
AcDb2dVertex
10
39.992730
20
27.195003
30
0
70
0
0
VERTEX
100
AcDbEntity
8
CUT
100
AcDbVertex
100
AcDb2dVertex
10
40.306960
20
28.113898
30
0
70
0
0
VERTEX
100
AcDbEntity
8
CUT
100
AcDbVertex
100
AcDb2dVertex
10
40.627783
20
29.111545
30
0
70
0
0
VERTEX
100
AcDbEntity
8
CUT
100
AcDbVertex
100
AcDb2dVertex
10
40.690107
20
29.208165
30
0
70
0
0
VERTEX
100
AcDbEntity
8
CUT
100
AcDbVertex
100
AcDb2dVertex
10
40.816821
20
29.307780
30
0
70
0
0
VERTEX
100
AcDbEntity
8
CUT
100
AcDbVertex
100
AcDb2dVertex
10
40.973899
20
29.350058
30
0
70
0
0
VERTEX
100
AcDbEntity
8
CUT
100
AcDbVertex
100
AcDb2dVertex
10
41.134699
20
29.327760
30
0
70
0
0
VERTEX
100
AcDbEntity
8
CUT
100
AcDbVertex
100
AcDb2dVertex
10
41.273780
20
29.246112
30
0
70
0
0
VERTEX
100
AcDbEntity
8
CUT
100
AcDbVertex
100
AcDb2dVertex
10
41.372104
20
29.111896
30
0
70
0
0
VERTEX
100
AcDbEntity
8
CUT
100
AcDbVertex
100
AcDb2dVertex
10
41.692625
20
28.115109
30
0
70
0
0
VERTEX
100
AcDbEntity
8
CUT
100
AcDbVertex
100
AcDb2dVertex
10
42.007662
20
27.193853
30
0
70
0
0
VERTEX
100
AcDbEntity
8
CUT
100
AcDbVertex
100
AcDb2dVertex
10
42.355478
20
26.244236
30
0
70
0
0
VERTEX
100
AcDbEntity
8
CUT
100
AcDbVertex
100
AcDb2dVertex
10
42.731497
20
25.282840
30
0
70
0
0
VERTEX
100
AcDbEntity
8
CUT
100
AcDbVertex
100
AcDb2dVertex
10
43.146430
20
24.286333
30
0
70
0
0
VERTEX
100
AcDbEntity
8
CUT
100
AcDbVertex
100
AcDb2dVertex
10
43.557457
20
23.355173
30
0
70
0
0
VERTEX
100
AcDbEntity
8
CUT
100
AcDbVertex
100
AcDb2dVertex
10
44.025744
20
22.352984
30
0
70
0
0
VERTEX
100
AcDbEntity
8
CUT
100
AcDbVertex
100
AcDb2dVertex
10
44.516128
20
21.358850
30
0
70
0
0
SEQEND
100
AcDbEntity
8
CUT
0
POLYLINE
100
AcDbEntity
8
CUT
100
AcDb2dPolyline
66
1
10
0
20
0
30
0
70
1
0
VERTEX
100
AcDbEntity
8
CUT
100
AcDbVertex
100
AcDb2dVertex
10
36.863515
20
61.826283
30
0
70
0
0
VERTEX
100
AcDbEntity
8
CUT
100
AcDbVertex
100
AcDb2dVertex
10
36.813241
20
61.986962
30
0
70
0
0
VERTEX
100
AcDbEntity
8
CUT
100
AcDbVertex
100
AcDb2dVertex
10
36.816474
20
62.096276
30
0
70
0
0
VERTEX
100
AcDbEntity
8
CUT
100
AcDbVertex
100
AcDb2dVertex
10
36.872201
20
62.243987
30
0
70
0
0
VERTEX
100
AcDbEntity
8
CUT
100
AcDbVertex
100
AcDb2dVertex
10
36.986655
20
62.366669
30
0
70
0
0
VERTEX
100
AcDbEntity
8
CUT
100
AcDbVertex
100
AcDb2dVertex
10
40.758814
20
65.034228
30
0
70
0
0
VERTEX
100
AcDbEntity
8
CUT
100
AcDbVertex
100
AcDb2dVertex
10
40.862821
20
65.088204
30
0
70
0
0
VERTEX
100
AcDbEntity
8
CUT
100
AcDbVertex
100
AcDb2dVertex
10
40.973439
20
65.111365
30
0
70
0
0
VERTEX
100
AcDbEntity
8
CUT
100
AcDbVertex
100
AcDb2dVertex
10
41.132340
20
65.089561
30
0
70
0
0
VERTEX
100
AcDbEntity
8
CUT
100
AcDbVertex
100
AcDb2dVertex
10
41.241451
20
65.034041
30
0
70
0
0
VERTEX
100
AcDbEntity
8
CUT
100
AcDbVertex
100
AcDb2dVertex
10
45.012606
20
62.367432
30
0
70
0
0
VERTEX
100
AcDbEntity
8
CUT
100
AcDbVertex
100
AcDb2dVertex
10
45.095697
20
62.290376
30
0
70
0
0
VERTEX
100
AcDbEntity
8
CUT
100
AcDbVertex
100
AcDb2dVertex
10
45.151150
20
62.201808
30
0
70
0
0
VERTEX
100
AcDbEntity
8
CUT
100
AcDbVertex
100
AcDb2dVertex
10
45.188296
20
62.044001
30
0
70
0
0
VERTEX
100
AcDbEntity
8
CUT
100
AcDbVertex
100
AcDb2dVertex
10
45.161290
20
61.880947
30
0
70
0
0
VERTEX
100
AcDbEntity
8
CUT
100
AcDbVertex
100
AcDb2dVertex
10
44.516057
20
60.641016
30
0
70
0
0
VERTEX
100
AcDbEntity
8
CUT
100
AcDbVertex
100
AcDb2dVertex
10
44.025357
20
59.646232
30
0
70
0
0
VERTEX
100
AcDbEntity
8
CUT
100
AcDbVertex
100
AcDb2dVertex
10
43.578345
20
58.689544
30
0
70
0
0
VERTEX
100
AcDbEntity
8
CUT
100
AcDbVertex
100
AcDb2dVertex
10
43.134496
20
57.687289
30
0
70
0
0
VERTEX
100
AcDbEntity
8
CUT
100
AcDbVertex
100
AcDb2dVertex
10
42.727403
20
56.709799
30
0
70
0
0
VERTEX
100
AcDbEntity
8
CUT
100
AcDbVertex
100
AcDb2dVertex
10
42.355485
20
55.755783
30
0
70
0
0
VERTEX
100
AcDbEntity
8
CUT
100
AcDbVertex
100
AcDb2dVertex
10
42.007270
20
54.804997
30
0
70
0
0
VERTEX
100
AcDbEntity
8
CUT
100
AcDbVertex
100
AcDb2dVertex
10
41.693040
20
53.886102
30
0
70
0
0
VERTEX
100
AcDbEntity
8
CUT
100
AcDbVertex
100
AcDb2dVertex
10
41.372217
20
52.888455
30
0
70
0
0
VERTEX
100
AcDbEntity
8
CUT
100
AcDbVertex
100
AcDb2dVertex
10
41.309893
20
52.791835
30
0
70
0
0
VERTEX
100
AcDbEntity
8
CUT
100
AcDbVertex
100
AcDb2dVertex
10
41.183179
20
52.692220
30
0
70
0
0
VERTEX
100
AcDbEntity
8
CUT
100
AcDbVertex
100
AcDb2dVertex
10
41.026101
20
52.649942
30
0
70
0
0
VERTEX
100
AcDbEntity
8
CUT
100
AcDbVertex
100
AcDb2dVertex
10
40.865301
20
52.672240
30
0
70
0
0
VERTEX
100
AcDbEntity
8
CUT
100
AcDbVertex
100
AcDb2dVertex
10
40.726220
20
52.753888
30
0
70
0
0
VERTEX
100
AcDbEntity
8
CUT
100
AcDbVertex
100
AcDb2dVertex
10
40.627896
20
52.888104
30
0
70
0
0
VERTEX
100
AcDbEntity
8
CUT
100
AcDbVertex
100
AcDb2dVertex
10
40.307375
20
53.884891
30
0
70
0
0
VERTEX
100
AcDbEntity
8
CUT
100
AcDbVertex
100
AcDb2dVertex
10
39.992338
20
54.806147
30
0
70
0
0
VERTEX
100
AcDbEntity
8
CUT
100
AcDbVertex
100
AcDb2dVertex
10
39.644522
20
55.755764
30
0
70
0
0
VERTEX
100
AcDbEntity
8
CUT
100
AcDbVertex
100
AcDb2dVertex
10
39.268503
20
56.717160
30
0
70
0
0
VERTEX
100
AcDbEntity
8
CUT
100
AcDbVertex
100
AcDb2dVertex
10
38.853570
20
57.713667
30
0
70
0
0
VERTEX
100
AcDbEntity
8
CUT
100
AcDbVertex
100
AcDb2dVertex
10
38.442543
20
58.644827
30
0
70
0
0
VERTEX
100
AcDbEntity
8
CUT
100
AcDbVertex
100
AcDb2dVertex
10
37.974256
20
59.647016
30
0
70
0
0
VERTEX
100
AcDbEntity
8
CUT
100
AcDbVertex
100
AcDb2dVertex
10
37.483872
20
60.641150
30
0
70
0
0
SEQEND
100
AcDbEntity
8
CUT
0
POLYLINE
100
AcDbEntity
8
CUT
100
AcDb2dPolyline
66
1
10
0
20
0
30
0
70
1
0
VERTEX
100
AcDbEntity
8
CUT
100
AcDbVertex
100
AcDb2dVertex
10
18.862709
20
32.859388
30
0
70
0
0
VERTEX
100
AcDbEntity
8
CUT
100
AcDbVertex
100
AcDb2dVertex
10
18.762159
20
32.789049
30
0
70
0
0
VERTEX
100
AcDbEntity
8
CUT
100
AcDbVertex
100
AcDb2dVertex
10
18.603514
20
32.744949
30
0
70
0
0
VERTEX
100
AcDbEntity
8
CUT
100
AcDbVertex
100
AcDb2dVertex
10
18.440438
20
32.768163
30
0
70
0
0
VERTEX
100
AcDbEntity
8
CUT
100
AcDbVertex
100
AcDb2dVertex
10
18.336164
20
32.822226
30
0
70
0
0
VERTEX
100
AcDbEntity
8
CUT
100
AcDbVertex
100
AcDb2dVertex
10
7.246939
20
40.662302
30
0
70
0
0
VERTEX
100
AcDbEntity
8
CUT
100
AcDbVertex
100
AcDb2dVertex
10
7.166461
20
40.736198
30
0
70
0
0
VERTEX
100
AcDbEntity
8
CUT
100
AcDbVertex
100
AcDb2dVertex
10
7.113824
20
40.817252
30
0
70
0
0
VERTEX
100
AcDbEntity
8
CUT
100
AcDbVertex
100
AcDb2dVertex
10
7.071219
20
40.975668
30
0
70
0
0
VERTEX
100
AcDbEntity
8
CUT
100
AcDbVertex
100
AcDb2dVertex
10
7.077581
20
41.077808
30
0
70
0
0
VERTEX
100
AcDbEntity
8
CUT
100
AcDbVertex
100
AcDb2dVertex
10
7.110122
20
41.176528
30
0
70
0
0
VERTEX
100
AcDbEntity
8
CUT
100
AcDbVertex
100
AcDb2dVertex
10
7.166523
20
41.263910
30
0
70
0
0
VERTEX
100
AcDbEntity
8
CUT
100
AcDbVertex
100
AcDb2dVertex
10
7.246915
20
41.337737
30
0
70
0
0
VERTEX
100
AcDbEntity
8
CUT
100
AcDbVertex
100
AcDb2dVertex
10
18.335384
20
49.178469
30
0
70
0
0
VERTEX
100
AcDbEntity
8
CUT
100
AcDbVertex
100
AcDb2dVertex
10
18.439615
20
49.232518
30
0
70
0
0
VERTEX
100
AcDbEntity
8
CUT
100
AcDbVertex
100
AcDb2dVertex
10
18.548837
20
49.255133
30
0
70
0
0
VERTEX
100
AcDbEntity
8
CUT
100
AcDbVertex
100
AcDb2dVertex
10
18.665647
20
49.245994
30
0
70
0
0
VERTEX
100
AcDbEntity
8
CUT
100
AcDbVertex
100
AcDb2dVertex
10
18.813029
20
49.181360
30
0
70
0
0
VERTEX
100
AcDbEntity
8
CUT
100
AcDbVertex
100
AcDb2dVertex
10
19.509052
20
48.532100
30
0
70
0
0
VERTEX
100
AcDbEntity
8
CUT
100
AcDbVertex
100
AcDb2dVertex
10
20.210760
20
47.902171
30
0
70
0
0
VERTEX
100
AcDbEntity
8
CUT
100
AcDbVertex
100
AcDb2dVertex
10
20.922737
20
47.292887
30
0
70
0
0
VERTEX
100
AcDbEntity
8
CUT
100
AcDbVertex
100
AcDb2dVertex
10
21.560170
20
46.773541
30
0
70
0
0
VERTEX
100
AcDbEntity
8
CUT
100
AcDbVertex
100
AcDb2dVertex
10
22.298072
20
46.198453
30
0
70
0
0
VERTEX
100
AcDbEntity
8
CUT
100
AcDbVertex
100
AcDb2dVertex
10
23.175921
20
45.552337
30
0
70
0
0
VERTEX
100
AcDbEntity
8
CUT
100
AcDbVertex
100
AcDb2dVertex
10
24.115505
20
44.899891
30
0
70
0
0
VERTEX
100
AcDbEntity
8
CUT
100
AcDbVertex
100
AcDb2dVertex
10
25.345107
20
44.108422
30
0
70
0
0
VERTEX
100
AcDbEntity
8
CUT
100
AcDbVertex
100
AcDb2dVertex
10
26.070009
20
43.676391
30
0
70
0
0
VERTEX
100
AcDbEntity
8
CUT
100
AcDbVertex
100
AcDb2dVertex
10
27.570268
20
42.857773
30
0
70
0
0
VERTEX
100
AcDbEntity
8
CUT
100
AcDbVertex
100
AcDb2dVertex
10
28.292433
20
42.499881
30
0
70
0
0
VERTEX
100
AcDbEntity
8
CUT
100
AcDbVertex
100
AcDb2dVertex
10
29.068632
20
42.139043
30
0
70
0
0
VERTEX
100
AcDbEntity
8
CUT
100
AcDbVertex
100
AcDb2dVertex
10
29.788055
20
41.827924
30
0
70
0
0
VERTEX
100
AcDbEntity
8
CUT
100
AcDbVertex
100
AcDb2dVertex
10
30.969354
20
41.360913
30
0
70
0
0
VERTEX
100
AcDbEntity
8
CUT
100
AcDbVertex
100
AcDb2dVertex
10
31.055551
20
41.300037
30
0
70
0
0
VERTEX
100
AcDbEntity
8
CUT
100
AcDbVertex
100
AcDb2dVertex
10
31.123181
20
41.219542
30
0
70
0
0
VERTEX
100
AcDbEntity
8
CUT
100
AcDbVertex
100
AcDb2dVertex
10
31.168073
20
41.124492
30
0
70
0
0
VERTEX
100
AcDbEntity
8
CUT
100
AcDbVertex
100
AcDb2dVertex
10
31.187278
20
41.021143
30
0
70
0
0
VERTEX
100
AcDbEntity
8
CUT
100
AcDbVertex
100
AcDb2dVertex
10
31.179533
20
40.916370
30
0
70
0
0
VERTEX
100
AcDbEntity
8
CUT
100
AcDbVertex
100
AcDb2dVertex
10
31.145639
20
40.818300
30
0
70
0
0
VERTEX
100
AcDbEntity
8
CUT
100
AcDbVertex
100
AcDb2dVertex
10
31.048561
20
40.691443
30
0
70
0
0
VERTEX
100
AcDbEntity
8
CUT
100
AcDbVertex
100
AcDb2dVertex
10
30.962117
20
40.632567
30
0
70
0
0
VERTEX
100
AcDbEntity
8
CUT
100
AcDbVertex
100
AcDb2dVertex
10
29.619433
20
40.099429
30
0
70
0
0
VERTEX
100
AcDbEntity
8
CUT
100
AcDbVertex
100
AcDb2dVertex
10
28.336347
20
39.521766
30
0
70
0
0
VERTEX
100
AcDbEntity
8
CUT
100
AcDbVertex
100
AcDb2dVertex
10
27.551388
20
39.132121
30
0
70
0
0
VERTEX
100
AcDbEntity
8
CUT
100
AcDbVertex
100
AcDb2dVertex
10
26.802255
20
38.735490
30
0
70
0
0
VERTEX
100
AcDbEntity
8
CUT
100
AcDbVertex
100
AcDb2dVertex
10
26.072753
20
38.325217
30
0
70
0
0
VERTEX
100
AcDbEntity
8
CUT
100
AcDbVertex
100
AcDb2dVertex
10
25.354454
20
37.897456
30
0
70
0
0
VERTEX
100
AcDbEntity
8
CUT
100
AcDbVertex
100
AcDb2dVertex
10
24.640500
20
37.447874
30
0
70
0
0
VERTEX
100
AcDbEntity
8
CUT
100
AcDbVertex
100
AcDb2dVertex
10
24.104431
20
37.092830
30
0
70
0
0
VERTEX
100
AcDbEntity
8
CUT
100
AcDbVertex
100
AcDb2dVertex
10
23.212678
20
36.474724
30
0
70
0
0
VERTEX
100
AcDbEntity
8
CUT
100
AcDbVertex
100
AcDb2dVertex
10
22.302625
20
35.804828
30
0
70
0
0
VERTEX
100
AcDbEntity
8
CUT
100
AcDbVertex
100
AcDb2dVertex
10
21.641042
20
35.292378
30
0
70
0
0
VERTEX
100
AcDbEntity
8
CUT
100
AcDbVertex
100
AcDb2dVertex
10
20.924216
20
34.708348
30
0
70
0
0
VERTEX
100
AcDbEntity
8
CUT
100
AcDbVertex
100
AcDb2dVertex
10
20.224001
20
34.109468
30
0
70
0
0
VERTEX
100
AcDbEntity
8
CUT
100
AcDbVertex
100
AcDb2dVertex
10
19.510253
20
33.468998
30
0
70
0
0
SEQEND
100
AcDbEntity
8
CUT
0
POLYLINE
100
AcDbEntity
8
CUT
100
AcDb2dPolyline
66
1
10
0
20
0
30
0
70
1
0
VERTEX
100
AcDbEntity
8
CUT
100
AcDbVertex
100
AcDb2dVertex
10
63.137291
20
49.140612
30
0
70
0
0
VERTEX
100
AcDbEntity
8
CUT
100
AcDbVertex
100
AcDb2dVertex
10
63.237841
20
49.210951
30
0
70
0
0
VERTEX
100
AcDbEntity
8
CUT
100
AcDbVertex
100
AcDb2dVertex
10
63.396486
20
49.255051
30
0
70
0
0
VERTEX
100
AcDbEntity
8
CUT
100
AcDbVertex
100
AcDb2dVertex
10
63.559562
20
49.231837
30
0
70
0
0
VERTEX
100
AcDbEntity
8
CUT
100
AcDbVertex
100
AcDb2dVertex
10
63.663836
20
49.177774
30
0
70
0
0
VERTEX
100
AcDbEntity
8
CUT
100
AcDbVertex
100
AcDb2dVertex
10
74.753061
20
41.337698
30
0
70
0
0
VERTEX
100
AcDbEntity
8
CUT
100
AcDbVertex
100
AcDb2dVertex
10
74.833539
20
41.263802
30
0
70
0
0
VERTEX
100
AcDbEntity
8
CUT
100
AcDbVertex
100
AcDb2dVertex
10
74.886176
20
41.182748
30
0
70
0
0
VERTEX
100
AcDbEntity
8
CUT
100
AcDbVertex
100
AcDb2dVertex
10
74.928781
20
41.024332
30
0
70
0
0
VERTEX
100
AcDbEntity
8
CUT
100
AcDbVertex
100
AcDb2dVertex
10
74.922419
20
40.922192
30
0
70
0
0
VERTEX
100
AcDbEntity
8
CUT
100
AcDbVertex
100
AcDb2dVertex
10
74.889878
20
40.823472
30
0
70
0
0
VERTEX
100
AcDbEntity
8
CUT
100
AcDbVertex
100
AcDb2dVertex
10
74.833477
20
40.736090
30
0
70
0
0
VERTEX
100
AcDbEntity
8
CUT
100
AcDbVertex
100
AcDb2dVertex
10
74.753085
20
40.662263
30
0
70
0
0
VERTEX
100
AcDbEntity
8
CUT
100
AcDbVertex
100
AcDb2dVertex
10
63.664616
20
32.821531
30
0
70
0
0
VERTEX
100
AcDbEntity
8
CUT
100
AcDbVertex
100
AcDb2dVertex
10
63.560385
20
32.767482
30
0
70
0
0
VERTEX
100
AcDbEntity
8
CUT
100
AcDbVertex
100
AcDb2dVertex
10
63.451163
20
32.744867
30
0
70
0
0
VERTEX
100
AcDbEntity
8
CUT
100
AcDbVertex
100
AcDb2dVertex
10
63.334353
20
32.754006
30
0
70
0
0
VERTEX
100
AcDbEntity
8
CUT
100
AcDbVertex
100
AcDb2dVertex
10
63.186971
20
32.818640
30
0
70
0
0
VERTEX
100
AcDbEntity
8
CUT
100
AcDbVertex
100
AcDb2dVertex
10
62.490948
20
33.467900
30
0
70
0
0
VERTEX
100
AcDbEntity
8
CUT
100
AcDbVertex
100
AcDb2dVertex
10
61.789240
20
34.097829
30
0
70
0
0
VERTEX
100
AcDbEntity
8
CUT
100
AcDbVertex
100
AcDb2dVertex
10
61.077263
20
34.707113
30
0
70
0
0
VERTEX
100
AcDbEntity
8
CUT
100
AcDbVertex
100
AcDb2dVertex
10
60.439830
20
35.226459
30
0
70
0
0
VERTEX
100
AcDbEntity
8
CUT
100
AcDbVertex
100
AcDb2dVertex
10
59.701928
20
35.801547
30
0
70
0
0
VERTEX
100
AcDbEntity
8
CUT
100
AcDbVertex
100
AcDb2dVertex
10
58.824079
20
36.447663
30
0
70
0
0
VERTEX
100
AcDbEntity
8
CUT
100
AcDbVertex
100
AcDb2dVertex
10
57.884495
20
37.100109
30
0
70
0
0
VERTEX
100
AcDbEntity
8
CUT
100
AcDbVertex
100
AcDb2dVertex
10
56.654893
20
37.891578
30
0
70
0
0
VERTEX
100
AcDbEntity
8
CUT
100
AcDbVertex
100
AcDb2dVertex
10
55.929991
20
38.323609
30
0
70
0
0
VERTEX
100
AcDbEntity
8
CUT
100
AcDbVertex
100
AcDb2dVertex
10
54.429732
20
39.142227
30
0
70
0
0
VERTEX
100
AcDbEntity
8
CUT
100
AcDbVertex
100
AcDb2dVertex
10
53.707567
20
39.500119
30
0
70
0
0
VERTEX
100
AcDbEntity
8
CUT
100
AcDbVertex
100
AcDb2dVertex
10
52.931368
20
39.860957
30
0
70
0
0
VERTEX
100
AcDbEntity
8
CUT
100
AcDbVertex
100
AcDb2dVertex
10
52.211945
20
40.172076
30
0
70
0
0
VERTEX
100
AcDbEntity
8
CUT
100
AcDbVertex
100
AcDb2dVertex
10
51.030646
20
40.639087
30
0
70
0
0
VERTEX
100
AcDbEntity
8
CUT
100
AcDbVertex
100
AcDb2dVertex
10
50.944449
20
40.699963
30
0
70
0
0
VERTEX
100
AcDbEntity
8
CUT
100
AcDbVertex
100
AcDb2dVertex
10
50.876819
20
40.780458
30
0
70
0
0
VERTEX
100
AcDbEntity
8
CUT
100
AcDbVertex
100
AcDb2dVertex
10
50.831927
20
40.875508
30
0
70
0
0
VERTEX
100
AcDbEntity
8
CUT
100
AcDbVertex
100
AcDb2dVertex
10
50.812722
20
40.978857
30
0
70
0
0
VERTEX
100
AcDbEntity
8
CUT
100
AcDbVertex
100
AcDb2dVertex
10
50.820467
20
41.083630
30
0
70
0
0
VERTEX
100
AcDbEntity
8
CUT
100
AcDbVertex
100
AcDb2dVertex
10
50.854361
20
41.181700
30
0
70
0
0
VERTEX
100
AcDbEntity
8
CUT
100
AcDbVertex
100
AcDb2dVertex
10
50.951439
20
41.308557
30
0
70
0
0
VERTEX
100
AcDbEntity
8
CUT
100
AcDbVertex
100
AcDb2dVertex
10
51.037883
20
41.367433
30
0
70
0
0
VERTEX
100
AcDbEntity
8
CUT
100
AcDbVertex
100
AcDb2dVertex
10
52.380567
20
41.900571
30
0
70
0
0
VERTEX
100
AcDbEntity
8
CUT
100
AcDbVertex
100
AcDb2dVertex
10
53.663653
20
42.478234
30
0
70
0
0
VERTEX
100
AcDbEntity
8
CUT
100
AcDbVertex
100
AcDb2dVertex
10
54.448612
20
42.867879
30
0
70
0
0
VERTEX
100
AcDbEntity
8
CUT
100
AcDbVertex
100
AcDb2dVertex
10
55.197745
20
43.264510
30
0
70
0
0
VERTEX
100
AcDbEntity
8
CUT
100
AcDbVertex
100
AcDb2dVertex
10
55.927247
20
43.674783
30
0
70
0
0
VERTEX
100
AcDbEntity
8
CUT
100
AcDbVertex
100
AcDb2dVertex
10
56.645546
20
44.102544
30
0
70
0
0
VERTEX
100
AcDbEntity
8
CUT
100
AcDbVertex
100
AcDb2dVertex
10
57.359500
20
44.552126
30
0
70
0
0
VERTEX
100
AcDbEntity
8
CUT
100
AcDbVertex
100
AcDb2dVertex
10
57.895569
20
44.907170
30
0
70
0
0
VERTEX
100
AcDbEntity
8
CUT
100
AcDbVertex
100
AcDb2dVertex
10
58.787322
20
45.525276
30
0
70
0
0
VERTEX
100
AcDbEntity
8
CUT
100
AcDbVertex
100
AcDb2dVertex
10
59.697375
20
46.195172
30
0
70
0
0
VERTEX
100
AcDbEntity
8
CUT
100
AcDbVertex
100
AcDb2dVertex
10
60.358958
20
46.707622
30
0
70
0
0
VERTEX
100
AcDbEntity
8
CUT
100
AcDbVertex
100
AcDb2dVertex
10
61.075784
20
47.291652
30
0
70
0
0
VERTEX
100
AcDbEntity
8
CUT
100
AcDbVertex
100
AcDb2dVertex
10
61.775999
20
47.890532
30
0
70
0
0
VERTEX
100
AcDbEntity
8
CUT
100
AcDbVertex
100
AcDb2dVertex
10
62.489747
20
48.531002
30
0
70
0
0
SEQEND
100
AcDbEntity
8
CUT
0
POLYLINE
100
AcDbEntity
8
CUT
100
AcDb2dPolyline
66
1
10
0
20
0
30
0
70
1
0
VERTEX
100
AcDbEntity
8
CUT
100
AcDbVertex
100
AcDb2dVertex
10
30.304763
20
37.095291
30
0
70
0
0
VERTEX
100
AcDbEntity
8
CUT
100
AcDbVertex
100
AcDb2dVertex
10
31.651729
20
37.658729
30
0
70
0
0
VERTEX
100
AcDbEntity
8
CUT
100
AcDbVertex
100
AcDb2dVertex
10
33.532612
20
38.311503
30
0
70
0
0
VERTEX
100
AcDbEntity
8
CUT
100
AcDbVertex
100
AcDb2dVertex
10
35.577607
20
38.846205
30
0
70
0
0
VERTEX
100
AcDbEntity
8
CUT
100
AcDbVertex
100
AcDb2dVertex
10
37.528931
20
39.186418
30
0
70
0
0
VERTEX
100
AcDbEntity
8
CUT
100
AcDbVertex
100
AcDb2dVertex
10
38.220951
20
39.269824
30
0
70
0
0
VERTEX
100
AcDbEntity
8
CUT
100
AcDbVertex
100
AcDb2dVertex
10
38.976510
20
39.322954
30
0
70
0
0
VERTEX
100
AcDbEntity
8
CUT
100
AcDbVertex
100
AcDb2dVertex
10
39.142194
20
39.301968
30
0
70
0
0
VERTEX
100
AcDbEntity
8
CUT
100
AcDbVertex
100
AcDb2dVertex
10
39.234857
20
39.257086
30
0
70
0
0
VERTEX
100
AcDbEntity
8
CUT
100
AcDbVertex
100
AcDb2dVertex
10
39.346938
20
39.147588
30
0
70
0
0
VERTEX
100
AcDbEntity
8
CUT
100
AcDbVertex
100
AcDb2dVertex
10
39.411634
20
38.999489
30
0
70
0
0
VERTEX
100
AcDbEntity
8
CUT
100
AcDbVertex
100
AcDb2dVertex
10
39.420960
20
38.890491
30
0
70
0
0
VERTEX
100
AcDbEntity
8
CUT
100
AcDbVertex
100
AcDb2dVertex
10
39.407694
20
38.602177
30
0
70
0
0
VERTEX
100
AcDbEntity
8
CUT
100
AcDbVertex
100
AcDb2dVertex
10
39.331318
20
37.626885
30
0
70
0
0
VERTEX
100
AcDbEntity
8
CUT
100
AcDbVertex
100
AcDb2dVertex
10
39.156874
20
36.107207
30
0
70
0
0
VERTEX
100
AcDbEntity
8
CUT
100
AcDbVertex
100
AcDb2dVertex
10
39.047408
20
35.359081
30
0
70
0
0
VERTEX
100
AcDbEntity
8
CUT
100
AcDbVertex
100
AcDb2dVertex
10
38.899522
20
34.499589
30
0
70
0
0
VERTEX
100
AcDbEntity
8
CUT
100
AcDbVertex
100
AcDb2dVertex
10
38.700676
20
33.491641
30
0
70
0
0
VERTEX
100
AcDbEntity
8
CUT
100
AcDbVertex
100
AcDb2dVertex
10
38.492889
20
32.567253
30
0
70
0
0
VERTEX
100
AcDbEntity
8
CUT
100
AcDbVertex
100
AcDb2dVertex
10
38.292138
20
31.755472
30
0
70
0
0
VERTEX
100
AcDbEntity
8
CUT
100
AcDbVertex
100
AcDb2dVertex
10
38.073687
20
30.950795
30
0
70
0
0
VERTEX
100
AcDbEntity
8
CUT
100
AcDbVertex
100
AcDb2dVertex
10
37.572492
20
29.299170
30
0
70
0
0
VERTEX
100
AcDbEntity
8
CUT
100
AcDbVertex
100
AcDb2dVertex
10
37.249679
20
28.346825
30
0
70
0
0
VERTEX
100
AcDbEntity
8
CUT
100
AcDbVertex
100
AcDb2dVertex
10
36.893826
20
27.371721
30
0
70
0
0
VERTEX
100
AcDbEntity
8
CUT
100
AcDbVertex
100
AcDb2dVertex
10
36.563470
20
26.527940
30
0
70
0
0
VERTEX
100
AcDbEntity
8
CUT
100
AcDbVertex
100
AcDb2dVertex
10
36.175742
20
25.593789
30
0
70
0
0
VERTEX
100
AcDbEntity
8
CUT
100
AcDbVertex
100
AcDb2dVertex
10
35.741290
20
24.607971
30
0
70
0
0
VERTEX
100
AcDbEntity
8
CUT
100
AcDbVertex
100
AcDb2dVertex
10
35.328342
20
23.723967
30
0
70
0
0
VERTEX
100
AcDbEntity
8
CUT
100
AcDbVertex
100
AcDb2dVertex
10
34.859247
20
22.769300
30
0
70
0
0
VERTEX
100
AcDbEntity
8
CUT
100
AcDbVertex
100
AcDb2dVertex
10
34.460995
20
21.999846
30
0
70
0
0
VERTEX
100
AcDbEntity
8
CUT
100
AcDbVertex
100
AcDb2dVertex
10
34.354066
20
21.867060
30
0
70
0
0
VERTEX
100
AcDbEntity
8
CUT
100
AcDbVertex
100
AcDb2dVertex
10
34.212598
20
21.790062
30
0
70
0
0
VERTEX
100
AcDbEntity
8
CUT
100
AcDbVertex
100
AcDb2dVertex
10
34.110249
20
21.772256
30
0
70
0
0
VERTEX
100
AcDbEntity
8
CUT
100
AcDbVertex
100
AcDb2dVertex
10
34.006867
20
21.781476
30
0
70
0
0
VERTEX
100
AcDbEntity
8
CUT
100
AcDbVertex
100
AcDb2dVertex
10
33.850001
20
21.851040
30
0
70
0
0
VERTEX
100
AcDbEntity
8
CUT
100
AcDbVertex
100
AcDb2dVertex
10
21.563505
20
30.538904
30
0
70
0
0
VERTEX
100
AcDbEntity
8
CUT
100
AcDbVertex
100
AcDb2dVertex
10
21.452808
20
30.653528
30
0
70
0
0
VERTEX
100
AcDbEntity
8
CUT
100
AcDbVertex
100
AcDb2dVertex
10
21.392710
20
30.799361
30
0
70
0
0
VERTEX
100
AcDbEntity
8
CUT
100
AcDbVertex
100
AcDb2dVertex
10
21.385358
20
30.900876
30
0
70
0
0
VERTEX
100
AcDbEntity
8
CUT
100
AcDbVertex
100
AcDb2dVertex
10
21.402432
20
30.995165
30
0
70
0
0
VERTEX
100
AcDbEntity
8
CUT
100
AcDbVertex
100
AcDb2dVertex
10
21.479092
20
31.139012
30
0
70
0
0
VERTEX
100
AcDbEntity
8
CUT
100
AcDbVertex
100
AcDb2dVertex
10
21.676638
20
31.330806
30
0
70
0
0
VERTEX
100
AcDbEntity
8
CUT
100
AcDbVertex
100
AcDb2dVertex
10
22.334132
20
31.921143
30
0
70
0
0
VERTEX
100
AcDbEntity
8
CUT
100
AcDbVertex
100
AcDb2dVertex
10
22.968325
20
32.463838
30
0
70
0
0
VERTEX
100
AcDbEntity
8
CUT
100
AcDbVertex
100
AcDb2dVertex
10
23.714005
20
33.074160
30
0
70
0
0
VERTEX
100
AcDbEntity
8
CUT
100
AcDbVertex
100
AcDb2dVertex
10
24.397130
20
33.602493
30
0
70
0
0
VERTEX
100
AcDbEntity
8
CUT
100
AcDbVertex
100
AcDb2dVertex
10
25.427718
20
34.340205
30
0
70
0
0
VERTEX
100
AcDbEntity
8
CUT
100
AcDbVertex
100
AcDb2dVertex
10
26.857128
20
35.270142
30
0
70
0
0
VERTEX
100
AcDbEntity
8
CUT
100
AcDbVertex
100
AcDb2dVertex
10
28.159712
20
36.025575
30
0
70
0
0
SEQEND
100
AcDbEntity
8
CUT
0
POLYLINE
100
AcDbEntity
8
CUT
100
AcDb2dPolyline
66
1
10
0
20
0
30
0
70
1
0
VERTEX
100
AcDbEntity
8
CUT
100
AcDbVertex
100
AcDb2dVertex
10
42.576001
20
38.885766
30
0
70
0
0
VERTEX
100
AcDbEntity
8
CUT
100
AcDbVertex
100
AcDb2dVertex
10
42.598556
20
39.049980
30
0
70
0
0
VERTEX
100
AcDbEntity
8
CUT
100
AcDbVertex
100
AcDb2dVertex
10
42.679316
20
39.188272
30
0
70
0
0
VERTEX
100
AcDbEntity
8
CUT
100
AcDbVertex
100
AcDb2dVertex
10
42.806912
20
39.284817
30
0
70
0
0
VERTEX
100
AcDbEntity
8
CUT
100
AcDbVertex
100
AcDb2dVertex
10
42.965633
20
39.325724
30
0
70
0
0
VERTEX
100
AcDbEntity
8
CUT
100
AcDbVertex
100
AcDb2dVertex
10
43.968614
20
39.247136
30
0
70
0
0
VERTEX
100
AcDbEntity
8
CUT
100
AcDbVertex
100
AcDb2dVertex
10
46.023694
20
38.927046
30
0
70
0
0
VERTEX
100
AcDbEntity
8
CUT
100
AcDbVertex
100
AcDb2dVertex
10
47.699851
20
38.533997
30
0
70
0
0
VERTEX
100
AcDbEntity
8
CUT
100
AcDbVertex
100
AcDb2dVertex
10
49.537765
20
37.958373
30
0
70
0
0
VERTEX
100
AcDbEntity
8
CUT
100
AcDbVertex
100
AcDb2dVertex
10
49.754304
20
37.880762
30
0
70
0
0
VERTEX
100
AcDbEntity
8
CUT
100
AcDbVertex
100
AcDb2dVertex
10
51.695655
20
37.095086
30
0
70
0
0
VERTEX
100
AcDbEntity
8
CUT
100
AcDbVertex
100
AcDb2dVertex
10
53.780359
20
36.058417
30
0
70
0
0
VERTEX
100
AcDbEntity
8
CUT
100
AcDbVertex
100
AcDb2dVertex
10
55.670416
20
34.938983
30
0
70
0
0
VERTEX
100
AcDbEntity
8
CUT
100
AcDbVertex
100
AcDb2dVertex
10
57.117702
20
33.959199
30
0
70
0
0
VERTEX
100
AcDbEntity
8
CUT
100
AcDbVertex
100
AcDb2dVertex
10
58.286285
20
33.073890
30
0
70
0
0
VERTEX
100
AcDbEntity
8
CUT
100
AcDbVertex
100
AcDb2dVertex
10
58.880007
20
32.589253
30
0
70
0
0
VERTEX
100
AcDbEntity
8
CUT
100
AcDbVertex
100
AcDb2dVertex
10
59.643957
20
31.939940
30
0
70
0
0
VERTEX
100
AcDbEntity
8
CUT
100
AcDbVertex
100
AcDb2dVertex
10
60.481687
20
31.181653
30
0
70
0
0
VERTEX
100
AcDbEntity
8
CUT
100
AcDbVertex
100
AcDb2dVertex
10
60.577493
20
31.049582
30
0
70
0
0
VERTEX
100
AcDbEntity
8
CUT
100
AcDbVertex
100
AcDb2dVertex
10
60.608097
20
30.953832
30
0
70
0
0
VERTEX
100
AcDbEntity
8
CUT
100
AcDbVertex
100
AcDb2dVertex
10
60.607030
20
30.796979
30
0
70
0
0
VERTEX
100
AcDbEntity
8
CUT
100
AcDbVertex
100
AcDb2dVertex
10
60.574815
20
30.700268
30
0
70
0
0
VERTEX
100
AcDbEntity
8
CUT
100
AcDbVertex
100
AcDb2dVertex
10
60.518608
20
30.613709
30
0
70
0
0
VERTEX
100
AcDbEntity
8
CUT
100
AcDbVertex
100
AcDb2dVertex
10
60.438722
20
30.540479
30
0
70
0
0
VERTEX
100
AcDbEntity
8
CUT
100
AcDbVertex
100
AcDb2dVertex
10
48.147539
20
21.849301
30
0
70
0
0
VERTEX
100
AcDbEntity
8
CUT
100
AcDbVertex
100
AcDb2dVertex
10
48.047955
20
21.796931
30
0
70
0
0
VERTEX
100
AcDbEntity
8
CUT
100
AcDbVertex
100
AcDb2dVertex
10
47.943365
20
21.773382
30
0
70
0
0
VERTEX
100
AcDbEntity
8
CUT
100
AcDbVertex
100
AcDb2dVertex
10
47.836248
20
21.777801
30
0
70
0
0
VERTEX
100
AcDbEntity
8
CUT
100
AcDbVertex
100
AcDb2dVertex
10
47.733953
20
21.809883
30
0
70
0
0
VERTEX
100
AcDbEntity
8
CUT
100
AcDbVertex
100
AcDb2dVertex
10
47.643494
20
21.867430
30
0
70
0
0
VERTEX
100
AcDbEntity
8
CUT
100
AcDbVertex
100
AcDb2dVertex
10
47.571003
20
21.946563
30
0
70
0
0
VERTEX
100
AcDbEntity
8
CUT
100
AcDbVertex
100
AcDb2dVertex
10
47.172488
20
22.705140
30
0
70
0
0
VERTEX
100
AcDbEntity
8
CUT
100
AcDbVertex
100
AcDb2dVertex
10
46.700518
20
23.662403
30
0
70
0
0
VERTEX
100
AcDbEntity
8
CUT
100
AcDbVertex
100
AcDb2dVertex
10
46.263493
20
24.597556
30
0
70
0
0
VERTEX
100
AcDbEntity
8
CUT
100
AcDbVertex
100
AcDb2dVertex
10
45.873248
20
25.480883
30
0
70
0
0
VERTEX
100
AcDbEntity
8
CUT
100
AcDbVertex
100
AcDb2dVertex
10
45.462461
20
26.461768
30
0
70
0
0
VERTEX
100
AcDbEntity
8
CUT
100
AcDbVertex
100
AcDb2dVertex
10
45.126640
20
27.319705
30
0
70
0
0
VERTEX
100
AcDbEntity
8
CUT
100
AcDbVertex
100
AcDb2dVertex
10
44.794796
20
28.221061
30
0
70
0
0
VERTEX
100
AcDbEntity
8
CUT
100
AcDbVertex
100
AcDb2dVertex
10
44.470556
20
29.164466
30
0
70
0
0
VERTEX
100
AcDbEntity
8
CUT
100
AcDbVertex
100
AcDb2dVertex
10
44.205875
20
29.997302
30
0
70
0
0
VERTEX
100
AcDbEntity
8
CUT
100
AcDbVertex
100
AcDb2dVertex
10
43.955960
20
30.843357
30
0
70
0
0
VERTEX
100
AcDbEntity
8
CUT
100
AcDbVertex
100
AcDb2dVertex
10
43.688738
20
31.827105
30
0
70
0
0
VERTEX
100
AcDbEntity
8
CUT
100
AcDbVertex
100
AcDb2dVertex
10
43.495754
20
32.613919
30
0
70
0
0
VERTEX
100
AcDbEntity
8
CUT
100
AcDbVertex
100
AcDb2dVertex
10
43.310040
20
33.443438
30
0
70
0
0
VERTEX
100
AcDbEntity
8
CUT
100
AcDbVertex
100
AcDb2dVertex
10
43.109305
20
34.448057
30
0
70
0
0
VERTEX
100
AcDbEntity
8
CUT
100
AcDbVertex
100
AcDb2dVertex
10
42.980776
20
35.185485
30
0
70
0
0
VERTEX
100
AcDbEntity
8
CUT
100
AcDbVertex
100
AcDb2dVertex
10
42.839782
20
36.133704
30
0
70
0
0
VERTEX
100
AcDbEntity
8
CUT
100
AcDbVertex
100
AcDb2dVertex
10
42.668446
20
37.629597
30
0
70
0
0
SEQEND
100
AcDbEntity
8
CUT
0
POLYLINE
100
AcDbEntity
8
CUT
100
AcDb2dPolyline
66
1
10
0
20
0
30
0
70
1
0
VERTEX
100
AcDbEntity
8
CUT
100
AcDbVertex
100
AcDb2dVertex
10
39.423999
20
43.114234
30
0
70
0
0
VERTEX
100
AcDbEntity
8
CUT
100
AcDbVertex
100
AcDb2dVertex
10
39.401444
20
42.950020
30
0
70
0
0
VERTEX
100
AcDbEntity
8
CUT
100
AcDbVertex
100
AcDb2dVertex
10
39.320684
20
42.811728
30
0
70
0
0
VERTEX
100
AcDbEntity
8
CUT
100
AcDbVertex
100
AcDb2dVertex
10
39.193088
20
42.715183
30
0
70
0
0
VERTEX
100
AcDbEntity
8
CUT
100
AcDbVertex
100
AcDb2dVertex
10
39.034367
20
42.674276
30
0
70
0
0
VERTEX
100
AcDbEntity
8
CUT
100
AcDbVertex
100
AcDb2dVertex
10
38.031386
20
42.752864
30
0
70
0
0
VERTEX
100
AcDbEntity
8
CUT
100
AcDbVertex
100
AcDb2dVertex
10
35.976306
20
43.072954
30
0
70
0
0
VERTEX
100
AcDbEntity
8
CUT
100
AcDbVertex
100
AcDb2dVertex
10
34.300149
20
43.466003
30
0
70
0
0
VERTEX
100
AcDbEntity
8
CUT
100
AcDbVertex
100
AcDb2dVertex
10
32.462235
20
44.041627
30
0
70
0
0
VERTEX
100
AcDbEntity
8
CUT
100
AcDbVertex
100
AcDb2dVertex
10
32.245696
20
44.119238
30
0
70
0
0
VERTEX
100
AcDbEntity
8
CUT
100
AcDbVertex
100
AcDb2dVertex
10
30.304345
20
44.904914
30
0
70
0
0
VERTEX
100
AcDbEntity
8
CUT
100
AcDbVertex
100
AcDb2dVertex
10
28.219641
20
45.941583
30
0
70
0
0
VERTEX
100
AcDbEntity
8
CUT
100
AcDbVertex
100
AcDb2dVertex
10
26.329584
20
47.061017
30
0
70
0
0
VERTEX
100
AcDbEntity
8
CUT
100
AcDbVertex
100
AcDb2dVertex
10
24.882298
20
48.040801
30
0
70
0
0
VERTEX
100
AcDbEntity
8
CUT
100
AcDbVertex
100
AcDb2dVertex
10
23.713715
20
48.926110
30
0
70
0
0
VERTEX
100
AcDbEntity
8
CUT
100
AcDbVertex
100
AcDb2dVertex
10
23.119993
20
49.410747
30
0
70
0
0
VERTEX
100
AcDbEntity
8
CUT
100
AcDbVertex
100
AcDb2dVertex
10
22.356043
20
50.060060
30
0
70
0
0
VERTEX
100
AcDbEntity
8
CUT
100
AcDbVertex
100
AcDb2dVertex
10
21.518313
20
50.818347
30
0
70
0
0
VERTEX
100
AcDbEntity
8
CUT
100
AcDbVertex
100
AcDb2dVertex
10
21.422507
20
50.950418
30
0
70
0
0
VERTEX
100
AcDbEntity
8
CUT
100
AcDbVertex
100
AcDb2dVertex
10
21.391903
20
51.046168
30
0
70
0
0
VERTEX
100
AcDbEntity
8
CUT
100
AcDbVertex
100
AcDb2dVertex
10
21.392970
20
51.203021
30
0
70
0
0
VERTEX
100
AcDbEntity
8
CUT
100
AcDbVertex
100
AcDb2dVertex
10
21.425185
20
51.299732
30
0
70
0
0
VERTEX
100
AcDbEntity
8
CUT
100
AcDbVertex
100
AcDb2dVertex
10
21.481392
20
51.386291
30
0
70
0
0
VERTEX
100
AcDbEntity
8
CUT
100
AcDbVertex
100
AcDb2dVertex
10
21.561278
20
51.459521
30
0
70
0
0
VERTEX
100
AcDbEntity
8
CUT
100
AcDbVertex
100
AcDb2dVertex
10
33.852461
20
60.150699
30
0
70
0
0
VERTEX
100
AcDbEntity
8
CUT
100
AcDbVertex
100
AcDb2dVertex
10
33.952045
20
60.203069
30
0
70
0
0
VERTEX
100
AcDbEntity
8
CUT
100
AcDbVertex
100
AcDb2dVertex
10
34.056635
20
60.226618
30
0
70
0
0
VERTEX
100
AcDbEntity
8
CUT
100
AcDbVertex
100
AcDb2dVertex
10
34.163752
20
60.222199
30
0
70
0
0
VERTEX
100
AcDbEntity
8
CUT
100
AcDbVertex
100
AcDb2dVertex
10
34.266047
20
60.190117
30
0
70
0
0
VERTEX
100
AcDbEntity
8
CUT
100
AcDbVertex
100
AcDb2dVertex
10
34.356506
20
60.132570
30
0
70
0
0
VERTEX
100
AcDbEntity
8
CUT
100
AcDbVertex
100
AcDb2dVertex
10
34.428997
20
60.053437
30
0
70
0
0
VERTEX
100
AcDbEntity
8
CUT
100
AcDbVertex
100
AcDb2dVertex
10
34.827512
20
59.294860
30
0
70
0
0
VERTEX
100
AcDbEntity
8
CUT
100
AcDbVertex
100
AcDb2dVertex
10
35.299482
20
58.337597
30
0
70
0
0
VERTEX
100
AcDbEntity
8
CUT
100
AcDbVertex
100
AcDb2dVertex
10
35.736507
20
57.402444
30
0
70
0
0
VERTEX
100
AcDbEntity
8
CUT
100
AcDbVertex
100
AcDb2dVertex
10
36.126752
20
56.519117
30
0
70
0
0
VERTEX
100
AcDbEntity
8
CUT
100
AcDbVertex
100
AcDb2dVertex
10
36.537539
20
55.538232
30
0
70
0
0
VERTEX
100
AcDbEntity
8
CUT
100
AcDbVertex
100
AcDb2dVertex
10
36.873360
20
54.680295
30
0
70
0
0
VERTEX
100
AcDbEntity
8
CUT
100
AcDbVertex
100
AcDb2dVertex
10
37.205204
20
53.778939
30
0
70
0
0
VERTEX
100
AcDbEntity
8
CUT
100
AcDbVertex
100
AcDb2dVertex
10
37.529444
20
52.835534
30
0
70
0
0
VERTEX
100
AcDbEntity
8
CUT
100
AcDbVertex
100
AcDb2dVertex
10
37.794125
20
52.002698
30
0
70
0
0
VERTEX
100
AcDbEntity
8
CUT
100
AcDbVertex
100
AcDb2dVertex
10
38.044040
20
51.156643
30
0
70
0
0
VERTEX
100
AcDbEntity
8
CUT
100
AcDbVertex
100
AcDb2dVertex
10
38.311262
20
50.172895
30
0
70
0
0
VERTEX
100
AcDbEntity
8
CUT
100
AcDbVertex
100
AcDb2dVertex
10
38.504246
20
49.386081
30
0
70
0
0
VERTEX
100
AcDbEntity
8
CUT
100
AcDbVertex
100
AcDb2dVertex
10
38.689960
20
48.556562
30
0
70
0
0
VERTEX
100
AcDbEntity
8
CUT
100
AcDbVertex
100
AcDb2dVertex
10
38.890695
20
47.551943
30
0
70
0
0
VERTEX
100
AcDbEntity
8
CUT
100
AcDbVertex
100
AcDb2dVertex
10
39.019224
20
46.814515
30
0
70
0
0
VERTEX
100
AcDbEntity
8
CUT
100
AcDbVertex
100
AcDb2dVertex
10
39.160218
20
45.866296
30
0
70
0
0
VERTEX
100
AcDbEntity
8
CUT
100
AcDbVertex
100
AcDb2dVertex
10
39.331554
20
44.370403
30
0
70
0
0
SEQEND
100
AcDbEntity
8
CUT
0
POLYLINE
100
AcDbEntity
8
CUT
100
AcDb2dPolyline
66
1
10
0
20
0
30
0
70
1
0
VERTEX
100
AcDbEntity
8
CUT
100
AcDbVertex
100
AcDb2dVertex
10
51.695237
20
44.904709
30
0
70
0
0
VERTEX
100
AcDbEntity
8
CUT
100
AcDbVertex
100
AcDb2dVertex
10
50.348271
20
44.341271
30
0
70
0
0
VERTEX
100
AcDbEntity
8
CUT
100
AcDbVertex
100
AcDb2dVertex
10
48.467388
20
43.688497
30
0
70
0
0
VERTEX
100
AcDbEntity
8
CUT
100
AcDbVertex
100
AcDb2dVertex
10
46.422393
20
43.153795
30
0
70
0
0
VERTEX
100
AcDbEntity
8
CUT
100
AcDbVertex
100
AcDb2dVertex
10
44.471069
20
42.813582
30
0
70
0
0
VERTEX
100
AcDbEntity
8
CUT
100
AcDbVertex
100
AcDb2dVertex
10
43.779049
20
42.730176
30
0
70
0
0
VERTEX
100
AcDbEntity
8
CUT
100
AcDbVertex
100
AcDb2dVertex
10
43.023490
20
42.677046
30
0
70
0
0
VERTEX
100
AcDbEntity
8
CUT
100
AcDbVertex
100
AcDb2dVertex
10
42.857806
20
42.698032
30
0
70
0
0
VERTEX
100
AcDbEntity
8
CUT
100
AcDbVertex
100
AcDb2dVertex
10
42.765143
20
42.742914
30
0
70
0
0
VERTEX
100
AcDbEntity
8
CUT
100
AcDbVertex
100
AcDb2dVertex
10
42.653062
20
42.852412
30
0
70
0
0
VERTEX
100
AcDbEntity
8
CUT
100
AcDbVertex
100
AcDb2dVertex
10
42.588366
20
43.000511
30
0
70
0
0
VERTEX
100
AcDbEntity
8
CUT
100
AcDbVertex
100
AcDb2dVertex
10
42.579040
20
43.109509
30
0
70
0
0
VERTEX
100
AcDbEntity
8
CUT
100
AcDbVertex
100
AcDb2dVertex
10
42.592306
20
43.397823
30
0
70
0
0
VERTEX
100
AcDbEntity
8
CUT
100
AcDbVertex
100
AcDb2dVertex
10
42.668682
20
44.373115
30
0
70
0
0
VERTEX
100
AcDbEntity
8
CUT
100
AcDbVertex
100
AcDb2dVertex
10
42.843126
20
45.892793
30
0
70
0
0
VERTEX
100
AcDbEntity
8
CUT
100
AcDbVertex
100
AcDb2dVertex
10
42.952592
20
46.640919
30
0
70
0
0
VERTEX
100
AcDbEntity
8
CUT
100
AcDbVertex
100
AcDb2dVertex
10
43.100478
20
47.500411
30
0
70
0
0
VERTEX
100
AcDbEntity
8
CUT
100
AcDbVertex
100
AcDb2dVertex
10
43.299324
20
48.508359
30
0
70
0
0
VERTEX
100
AcDbEntity
8
CUT
100
AcDbVertex
100
AcDb2dVertex
10
43.507111
20
49.432747
30
0
70
0
0
VERTEX
100
AcDbEntity
8
CUT
100
AcDbVertex
100
AcDb2dVertex
10
43.707862
20
50.244528
30
0
70
0
0
VERTEX
100
AcDbEntity
8
CUT
100
AcDbVertex
100
AcDb2dVertex
10
43.926313
20
51.049205
30
0
70
0
0
VERTEX
100
AcDbEntity
8
CUT
100
AcDbVertex
100
AcDb2dVertex
10
44.427508
20
52.700830
30
0
70
0
0
VERTEX
100
AcDbEntity
8
CUT
100
AcDbVertex
100
AcDb2dVertex
10
44.750321
20
53.653175
30
0
70
0
0
VERTEX
100
AcDbEntity
8
CUT
100
AcDbVertex
100
AcDb2dVertex
10
45.106174
20
54.628279
30
0
70
0
0
VERTEX
100
AcDbEntity
8
CUT
100
AcDbVertex
100
AcDb2dVertex
10
45.436530
20
55.472060
30
0
70
0
0
VERTEX
100
AcDbEntity
8
CUT
100
AcDbVertex
100
AcDb2dVertex
10
45.824258
20
56.406211
30
0
70
0
0
VERTEX
100
AcDbEntity
8
CUT
100
AcDbVertex
100
AcDb2dVertex
10
46.258710
20
57.392029
30
0
70
0
0
VERTEX
100
AcDbEntity
8
CUT
100
AcDbVertex
100
AcDb2dVertex
10
46.671658
20
58.276033
30
0
70
0
0
VERTEX
100
AcDbEntity
8
CUT
100
AcDbVertex
100
AcDb2dVertex
10
47.140753
20
59.230700
30
0
70
0
0
VERTEX
100
AcDbEntity
8
CUT
100
AcDbVertex
100
AcDb2dVertex
10
47.539005
20
60.000154
30
0
70
0
0
VERTEX
100
AcDbEntity
8
CUT
100
AcDbVertex
100
AcDb2dVertex
10
47.645934
20
60.132940
30
0
70
0
0
VERTEX
100
AcDbEntity
8
CUT
100
AcDbVertex
100
AcDb2dVertex
10
47.787402
20
60.209938
30
0
70
0
0
VERTEX
100
AcDbEntity
8
CUT
100
AcDbVertex
100
AcDb2dVertex
10
47.889751
20
60.227744
30
0
70
0
0
VERTEX
100
AcDbEntity
8
CUT
100
AcDbVertex
100
AcDb2dVertex
10
47.993133
20
60.218524
30
0
70
0
0
VERTEX
100
AcDbEntity
8
CUT
100
AcDbVertex
100
AcDb2dVertex
10
48.149999
20
60.148960
30
0
70
0
0
VERTEX
100
AcDbEntity
8
CUT
100
AcDbVertex
100
AcDb2dVertex
10
60.436495
20
51.461096
30
0
70
0
0
VERTEX
100
AcDbEntity
8
CUT
100
AcDbVertex
100
AcDb2dVertex
10
60.547192
20
51.346472
30
0
70
0
0
VERTEX
100
AcDbEntity
8
CUT
100
AcDbVertex
100
AcDb2dVertex
10
60.607290
20
51.200639
30
0
70
0
0
VERTEX
100
AcDbEntity
8
CUT
100
AcDbVertex
100
AcDb2dVertex
10
60.614642
20
51.099124
30
0
70
0
0
VERTEX
100
AcDbEntity
8
CUT
100
AcDbVertex
100
AcDb2dVertex
10
60.597568
20
51.004835
30
0
70
0
0
VERTEX
100
AcDbEntity
8
CUT
100
AcDbVertex
100
AcDb2dVertex
10
60.520908
20
50.860988
30
0
70
0
0
VERTEX
100
AcDbEntity
8
CUT
100
AcDbVertex
100
AcDb2dVertex
10
60.323362
20
50.669194
30
0
70
0
0
VERTEX
100
AcDbEntity
8
CUT
100
AcDbVertex
100
AcDb2dVertex
10
59.665868
20
50.078857
30
0
70
0
0
VERTEX
100
AcDbEntity
8
CUT
100
AcDbVertex
100
AcDb2dVertex
10
59.031675
20
49.536162
30
0
70
0
0
VERTEX
100
AcDbEntity
8
CUT
100
AcDbVertex
100
AcDb2dVertex
10
58.285995
20
48.925840
30
0
70
0
0
VERTEX
100
AcDbEntity
8
CUT
100
AcDbVertex
100
AcDb2dVertex
10
57.602870
20
48.397507
30
0
70
0
0
VERTEX
100
AcDbEntity
8
CUT
100
AcDbVertex
100
AcDb2dVertex
10
56.572282
20
47.659795
30
0
70
0
0
VERTEX
100
AcDbEntity
8
CUT
100
AcDbVertex
100
AcDb2dVertex
10
55.142872
20
46.729858
30
0
70
0
0
VERTEX
100
AcDbEntity
8
CUT
100
AcDbVertex
100
AcDb2dVertex
10
53.840288
20
45.974425
30
0
70
0
0
SEQEND
100
AcDbEntity
8
CUT
0
ENDSEC
0
EOF
