<svg xmlns="http://www.w3.org/2000/svg" viewBox="0 0 256 256"><rect width="256" height="256" fill="#f7f7f4"/><rect x="12.00" y="181.08" width="60.76" height="62.92" rx="1" fill="#d8e8ef" stroke="#44697c" stroke-width=".35"/><text x="42.38" y="212.54" text-anchor="middle" font-family="sans-serif" font-size="3">core</text><rect x="80.76" y="189.12" width="49.35" height="54.88" rx="1" fill="#d8e8ef" stroke="#44697c" stroke-width=".35"/><text x="105.44" y="216.56" text-anchor="middle" font-family="sans-serif" font-size="3">C01</text><rect x="138.12" y="189.15" width="49.42" height="54.85" rx="1" fill="#d8e8ef" stroke="#44697c" stroke-width=".35"/><text x="162.83" y="216.58" text-anchor="middle" font-family="sans-serif" font-size="3">C08</text><rect x="195.54" y="189.17" width="45.87" height="54.83" rx="1" fill="#d8e8ef" stroke="#44697c" stroke-width=".35"/><text x="218.47" y="216.59" text-anchor="middle" font-family="sans-serif" font-size="3">C06</text><rect x="12.00" y="123.58" width="56.46" height="49.50" rx="1" fill="#d8e8ef" stroke="#44697c" stroke-width=".35"/><text x="40.23" y="148.33" text-anchor="middle" font-family="sans-serif" font-size="3">C04</text><rect x="76.46" y="123.63" width="56.48" height="49.45" rx="1" fill="#d8e8ef" stroke="#44697c" stroke-width=".35"/><text x="104.70" y="148.35" text-anchor="middle" font-family="sans-serif" font-size="3">C05</text><rect x="140.94" y="124.25" width="37.94" height="48.83" rx="1" fill="#d8e8ef" stroke="#44697c" stroke-width=".35"/><text x="159.91" y="148.66" text-anchor="middle" font-family="sans-serif" font-size="3">C07</text><rect x="186.88" y="127.08" width="54.74" height="46.00" rx="1" fill="#d8e8ef" stroke="#44697c" stroke-width=".35"/><text x="214.25" y="150.08" text-anchor="middle" font-family="sans-serif" font-size="3">C03</text><rect x="12.00" y="78.19" width="48.83" height="37.39" rx="1" fill="#d8e8ef" stroke="#44697c" stroke-width=".35"/><text x="36.42" y="96.88" text-anchor="middle" font-family="sans-serif" font-size="3">C02</text></svg>