<svg xmlns="http://www.w3.org/2000/svg" viewBox="0 0 256 256"><rect width="256" height="256" fill="#fafaf8"/><rect x="14.0" y="188.5346336364746" width="15.555344581604004" height="53.46536636352539" fill="#dceaf1" stroke="#597383"/><text x="21.777672290802002" y="215.2673168182373" text-anchor="middle" font-family="sans-serif" font-size="4">W12</text><rect x="39.555344581604004" y="190.32999420166016" width="15.717618942260742" height="51.670005798339844" fill="#dceaf1" stroke="#597383"/><text x="47.414154052734375" y="216.16499710083008" text-anchor="middle" font-family="sans-serif" font-size="4">W04</text><rect x="65.27296352386475" y="192.05229949951172" width="13.201659202575684" height="49.94770050048828" fill="#dceaf1" stroke="#597383"/><text x="71.87379312515259" y="217.02614974975586" text-anchor="middle" font-family="sans-serif" font-size="4">W11</text><rect x="88.47462272644043" y="192.09361267089844" width="17.187368392944336" height="49.90638732910156" fill="#dceaf1" stroke="#597383"/><text x="97.0683069229126" y="217.04680633544922" text-anchor="middle" font-family="sans-serif" font-size="4">W07</text><rect x="115.66199111938477" y="192.96681213378906" width="13.646546363830566" height="49.03318786621094" fill="#dceaf1" stroke="#597383"/><text x="122.48526430130005" y="217.48340606689453" text-anchor="middle" font-family="sans-serif" font-size="4">W05</text><rect x="139.30853748321533" y="197.32361602783203" width="18.874269485473633" height="44.67638397216797" fill="#dceaf1" stroke="#597383"/><text x="148.74567222595215" y="219.66180801391602" text-anchor="middle" font-family="sans-serif" font-size="4">W08</text><rect x="168.18280696868896" y="199.97381973266602" width="16.457353591918945" height="42.026180267333984" fill="#dceaf1" stroke="#597383"/><text x="176.41148376464844" y="220.986909866333" text-anchor="middle" font-family="sans-serif" font-size="4">W02</text><rect x="194.6401605606079" y="200.84782028198242" width="16.204694747924805" height="41.15217971801758" fill="#dceaf1" stroke="#597383"/><text x="202.7425079345703" y="221.4239101409912" text-anchor="middle" font-family="sans-serif" font-size="4">W03</text><rect x="14.0" y="161.45395851135254" width="50.40676498413086" height="17.08067512512207" fill="#dceaf1" stroke="#597383"/><text x="39.20338249206543" y="169.99429607391357" text-anchor="middle" font-family="sans-serif" font-size="4">W10</text><rect x="74.40676498413086" y="162.3953094482422" width="47.42670440673828" height="16.139324188232422" fill="#dceaf1" stroke="#597383"/><text x="98.1201171875" y="170.4649715423584" text-anchor="middle" font-family="sans-serif" font-size="4">W06</text><rect x="131.83346939086914" y="164.2956943511963" width="43.12314987182617" height="14.23893928527832" fill="#dceaf1" stroke="#597383"/><text x="153.39504432678223" y="171.41516399383545" text-anchor="middle" font-family="sans-serif" font-size="4">W01</text><rect x="184.9566192626953" y="166.03264331817627" width="50.02464294433594" height="12.50199031829834" fill="#dceaf1" stroke="#597383"/><text x="209.96894073486328" y="172.28363847732544" text-anchor="middle" font-family="sans-serif" font-size="4">W09</text></svg>