0
SECTION
2
HEADER
9
$ACADVER
1
AC1012
9
$INSUNITS
70
4
9
$MEASUREMENT
70
1
0
ENDSEC
0
SECTION
2
ENTITIES
0
POLYLINE
100
AcDbEntity
8
CUT
100
AcDb2dPolyline
66
1
10
0
20
0
30
0
70
1
0
VERTEX
100
AcDbEntity
8
CUT
100
AcDbVertex
100
AcDb2dVertex
10
61.795543
20
45.210691
30
0
70
0
0
VERTEX
100
AcDbEntity
8
CUT
100
AcDbVertex
100
AcDb2dVertex
10
61.975896
20
45.267121
30
0
70
0
0
VERTEX
100
AcDbEntity
8
CUT
100
AcDbVertex
100
AcDb2dVertex
10
62.112006
20
45.263096
30
0
70
0
0
VERTEX
100
AcDbEntity
8
CUT
100
AcDbVertex
100
AcDb2dVertex
10
62.287008
20
45.197072
30
0
70
0
0
VERTEX
100
AcDbEntity
8
CUT
100
AcDbVertex
100
AcDb2dVertex
10
62.427246
20
45.066240
30
0
70
0
0
VERTEX
100
AcDbEntity
8
CUT
100
AcDbVertex
100
AcDb2dVertex
10
65.102711
20
41.282902
30
0
70
0
0
VERTEX
100
AcDbEntity
8
CUT
100
AcDbVertex
100
AcDb2dVertex
10
65.164260
20
41.164301
30
0
70
0
0
VERTEX
100
AcDbEntity
8
CUT
100
AcDbVertex
100
AcDb2dVertex
10
65.191365
20
41.034846
30
0
70
0
0
VERTEX
100
AcDbEntity
8
CUT
100
AcDbVertex
100
AcDb2dVertex
10
65.191365
20
40.965154
30
0
70
0
0
VERTEX
100
AcDbEntity
8
CUT
100
AcDbVertex
100
AcDb2dVertex
10
65.165737
20
40.840962
30
0
70
0
0
VERTEX
100
AcDbEntity
8
CUT
100
AcDbVertex
100
AcDb2dVertex
10
65.102711
20
40.717098
30
0
70
0
0
VERTEX
100
AcDbEntity
8
CUT
100
AcDbVertex
100
AcDb2dVertex
10
62.429693
20
36.936880
30
0
70
0
0
VERTEX
100
AcDbEntity
8
CUT
100
AcDbVertex
100
AcDb2dVertex
10
62.341822
20
36.842127
30
0
70
0
0
VERTEX
100
AcDbEntity
8
CUT
100
AcDbVertex
100
AcDb2dVertex
10
62.233033
20
36.774013
30
0
70
0
0
VERTEX
100
AcDbEntity
8
CUT
100
AcDbVertex
100
AcDb2dVertex
10
62.046735
20
36.730162
30
0
70
0
0
VERTEX
100
AcDbEntity
8
CUT
100
AcDbVertex
100
AcDb2dVertex
10
61.855313
20
36.761865
30
0
70
0
0
VERTEX
100
AcDbEntity
8
CUT
100
AcDbVertex
100
AcDb2dVertex
10
60.604087
20
37.412977
30
0
70
0
0
VERTEX
100
AcDbEntity
8
CUT
100
AcDbVertex
100
AcDb2dVertex
10
59.610843
20
37.902897
30
0
70
0
0
VERTEX
100
AcDbEntity
8
CUT
100
AcDbVertex
100
AcDb2dVertex
10
58.657151
20
38.348506
30
0
70
0
0
VERTEX
100
AcDbEntity
8
CUT
100
AcDbVertex
100
AcDb2dVertex
10
57.654895
20
38.792356
30
0
70
0
0
VERTEX
100
AcDbEntity
8
CUT
100
AcDbVertex
100
AcDb2dVertex
10
56.679043
20
39.198745
30
0
70
0
0
VERTEX
100
AcDbEntity
8
CUT
100
AcDbVertex
100
AcDb2dVertex
10
55.728270
20
39.569395
30
0
70
0
0
VERTEX
100
AcDbEntity
8
CUT
100
AcDbVertex
100
AcDb2dVertex
10
54.779110
20
39.917034
30
0
70
0
0
VERTEX
100
AcDbEntity
8
CUT
100
AcDbVertex
100
AcDb2dVertex
10
53.861611
20
40.230801
30
0
70
0
0
VERTEX
100
AcDbEntity
8
CUT
100
AcDbVertex
100
AcDb2dVertex
10
52.853940
20
40.554847
30
0
70
0
0
VERTEX
100
AcDbEntity
8
CUT
100
AcDbVertex
100
AcDb2dVertex
10
52.739621
20
40.628588
30
0
70
0
0
VERTEX
100
AcDbEntity
8
CUT
100
AcDbVertex
100
AcDb2dVertex
10
52.656104
20
40.720763
30
0
70
0
0
VERTEX
100
AcDbEntity
8
CUT
100
AcDbVertex
100
AcDb2dVertex
10
52.620616
20
40.780736
30
0
70
0
0
VERTEX
100
AcDbEntity
8
CUT
100
AcDbVertex
100
AcDb2dVertex
10
52.595604
20
40.840012
30
0
70
0
0
VERTEX
100
AcDbEntity
8
CUT
100
AcDbVertex
100
AcDb2dVertex
10
52.569942
20
40.965823
30
0
70
0
0
VERTEX
100
AcDbEntity
8
CUT
100
AcDbVertex
100
AcDb2dVertex
10
52.569942
20
41.034177
30
0
70
0
0
VERTEX
100
AcDbEntity
8
CUT
100
AcDbVertex
100
AcDb2dVertex
10
52.596025
20
41.161262
30
0
70
0
0
VERTEX
100
AcDbEntity
8
CUT
100
AcDbVertex
100
AcDb2dVertex
10
52.654581
20
41.277029
30
0
70
0
0
VERTEX
100
AcDbEntity
8
CUT
100
AcDbVertex
100
AcDb2dVertex
10
52.694411
20
41.327554
30
0
70
0
0
VERTEX
100
AcDbEntity
8
CUT
100
AcDbVertex
100
AcDb2dVertex
10
52.744526
20
41.375975
30
0
70
0
0
VERTEX
100
AcDbEntity
8
CUT
100
AcDbVertex
100
AcDb2dVertex
10
52.853940
20
41.445153
30
0
70
0
0
VERTEX
100
AcDbEntity
8
CUT
100
AcDbVertex
100
AcDb2dVertex
10
53.860402
20
41.768785
30
0
70
0
0
VERTEX
100
AcDbEntity
8
CUT
100
AcDbVertex
100
AcDb2dVertex
10
54.780261
20
42.083358
30
0
70
0
0
VERTEX
100
AcDbEntity
8
CUT
100
AcDbVertex
100
AcDb2dVertex
10
55.728249
20
42.430598
30
0
70
0
0
VERTEX
100
AcDbEntity
8
CUT
100
AcDbVertex
100
AcDb2dVertex
10
56.686409
20
42.805350
30
0
70
0
0
VERTEX
100
AcDbEntity
8
CUT
100
AcDbVertex
100
AcDb2dVertex
10
57.682916
20
43.220283
30
0
70
0
0
VERTEX
100
AcDbEntity
8
CUT
100
AcDbVertex
100
AcDb2dVertex
10
58.610962
20
43.629936
30
0
70
0
0
VERTEX
100
AcDbEntity
8
CUT
100
AcDbVertex
100
AcDb2dVertex
10
59.611627
20
44.097491
30
0
70
0
0
VERTEX
100
AcDbEntity
8
CUT
100
AcDbVertex
100
AcDb2dVertex
10
60.604050
20
44.587005
30
0
70
0
0
SEQEND
100
AcDbEntity
8
CUT
0
POLYLINE
100
AcDbEntity
8
CUT
100
AcDb2dPolyline
66
1
10
0
20
0
30
0
70
1
0
VERTEX
100
AcDbEntity
8
CUT
100
AcDbVertex
100
AcDb2dVertex
10
20.204457
20
36.789309
30
0
70
0
0
VERTEX
100
AcDbEntity
8
CUT
100
AcDbVertex
100
AcDb2dVertex
10
20.024104
20
36.732879
30
0
70
0
0
VERTEX
100
AcDbEntity
8
CUT
100
AcDbVertex
100
AcDb2dVertex
10
19.887994
20
36.736904
30
0
70
0
0
VERTEX
100
AcDbEntity
8
CUT
100
AcDbVertex
100
AcDb2dVertex
10
19.712992
20
36.802928
30
0
70
0
0
VERTEX
100
AcDbEntity
8
CUT
100
AcDbVertex
100
AcDb2dVertex
10
19.572754
20
36.933760
30
0
70
0
0
VERTEX
100
AcDbEntity
8
CUT
100
AcDbVertex
100
AcDb2dVertex
10
16.897289
20
40.717098
30
0
70
0
0
VERTEX
100
AcDbEntity
8
CUT
100
AcDbVertex
100
AcDb2dVertex
10
16.835740
20
40.835699
30
0
70
0
0
VERTEX
100
AcDbEntity
8
CUT
100
AcDbVertex
100
AcDb2dVertex
10
16.808635
20
40.965154
30
0
70
0
0
VERTEX
100
AcDbEntity
8
CUT
100
AcDbVertex
100
AcDb2dVertex
10
16.808635
20
41.034846
30
0
70
0
0
VERTEX
100
AcDbEntity
8
CUT
100
AcDbVertex
100
AcDb2dVertex
10
16.834263
20
41.159038
30
0
70
0
0
VERTEX
100
AcDbEntity
8
CUT
100
AcDbVertex
100
AcDb2dVertex
10
16.897289
20
41.282902
30
0
70
0
0
VERTEX
100
AcDbEntity
8
CUT
100
AcDbVertex
100
AcDb2dVertex
10
19.570307
20
45.063120
30
0
70
0
0
VERTEX
100
AcDbEntity
8
CUT
100
AcDbVertex
100
AcDb2dVertex
10
19.658178
20
45.157873
30
0
70
0
0
VERTEX
100
AcDbEntity
8
CUT
100
AcDbVertex
100
AcDb2dVertex
10
19.766967
20
45.225987
30
0
70
0
0
VERTEX
100
AcDbEntity
8
CUT
100
AcDbVertex
100
AcDb2dVertex
10
19.953265
20
45.269838
30
0
70
0
0
VERTEX
100
AcDbEntity
8
CUT
100
AcDbVertex
100
AcDb2dVertex
10
20.144687
20
45.238135
30
0
70
0
0
VERTEX
100
AcDbEntity
8
CUT
100
AcDbVertex
100
AcDb2dVertex
10
21.395913
20
44.587023
30
0
70
0
0
VERTEX
100
AcDbEntity
8
CUT
100
AcDbVertex
100
AcDb2dVertex
10
22.389157
20
44.097103
30
0
70
0
0
VERTEX
100
AcDbEntity
8
CUT
100
AcDbVertex
100
AcDb2dVertex
10
23.342849
20
43.651494
30
0
70
0
0
VERTEX
100
AcDbEntity
8
CUT
100
AcDbVertex
100
AcDb2dVertex
10
24.345105
20
43.207644
30
0
70
0
0
VERTEX
100
AcDbEntity
8
CUT
100
AcDbVertex
100
AcDb2dVertex
10
25.320957
20
42.801255
30
0
70
0
0
VERTEX
100
AcDbEntity
8
CUT
100
AcDbVertex
100
AcDb2dVertex
10
26.271730
20
42.430605
30
0
70
0
0
VERTEX
100
AcDbEntity
8
CUT
100
AcDbVertex
100
AcDb2dVertex
10
27.220890
20
42.082966
30
0
70
0
0
VERTEX
100
AcDbEntity
8
CUT
100
AcDbVertex
100
AcDb2dVertex
10
28.138389
20
41.769199
30
0
70
0
0
VERTEX
100
AcDbEntity
8
CUT
100
AcDbVertex
100
AcDb2dVertex
10
29.146060
20
41.445153
30
0
70
0
0
VERTEX
100
AcDbEntity
8
CUT
100
AcDbVertex
100
AcDb2dVertex
10
29.260379
20
41.371412
30
0
70
0
0
VERTEX
100
AcDbEntity
8
CUT
100
AcDbVertex
100
AcDb2dVertex
10
29.343896
20
41.279237
30
0
70
0
0
VERTEX
100
AcDbEntity
8
CUT
100
AcDbVertex
100
AcDb2dVertex
10
29.379384
20
41.219264
30
0
70
0
0
VERTEX
100
AcDbEntity
8
CUT
100
AcDbVertex
100
AcDb2dVertex
10
29.404396
20
41.159988
30
0
70
0
0
VERTEX
100
AcDbEntity
8
CUT
100
AcDbVertex
100
AcDb2dVertex
10
29.430058
20
41.034177
30
0
70
0
0
VERTEX
100
AcDbEntity
8
CUT
100
AcDbVertex
100
AcDb2dVertex
10
29.430058
20
40.965823
30
0
70
0
0
VERTEX
100
AcDbEntity
8
CUT
100
AcDbVertex
100
AcDb2dVertex
10
29.403975
20
40.838738
30
0
70
0
0
VERTEX
100
AcDbEntity
8
CUT
100
AcDbVertex
100
AcDb2dVertex
10
29.345419
20
40.722971
30
0
70
0
0
VERTEX
100
AcDbEntity
8
CUT
100
AcDbVertex
100
AcDb2dVertex
10
29.305589
20
40.672446
30
0
70
0
0
VERTEX
100
AcDbEntity
8
CUT
100
AcDbVertex
100
AcDb2dVertex
10
29.255474
20
40.624025
30
0
70
0
0
VERTEX
100
AcDbEntity
8
CUT
100
AcDbVertex
100
AcDb2dVertex
10
29.146060
20
40.554847
30
0
70
0
0
VERTEX
100
AcDbEntity
8
CUT
100
AcDbVertex
100
AcDb2dVertex
10
28.139598
20
40.231215
30
0
70
0
0
VERTEX
100
AcDbEntity
8
CUT
100
AcDbVertex
100
AcDb2dVertex
10
27.219739
20
39.916642
30
0
70
0
0
VERTEX
100
AcDbEntity
8
CUT
100
AcDbVertex
100
AcDb2dVertex
10
26.271751
20
39.569402
30
0
70
0
0
VERTEX
100
AcDbEntity
8
CUT
100
AcDbVertex
100
AcDb2dVertex
10
25.313591
20
39.194650
30
0
70
0
0
VERTEX
100
AcDbEntity
8
CUT
100
AcDbVertex
100
AcDb2dVertex
10
24.317084
20
38.779717
30
0
70
0
0
VERTEX
100
AcDbEntity
8
CUT
100
AcDbVertex
100
AcDb2dVertex
10
23.389038
20
38.370064
30
0
70
0
0
VERTEX
100
AcDbEntity
8
CUT
100
AcDbVertex
100
AcDb2dVertex
10
22.388373
20
37.902509
30
0
70
0
0
VERTEX
100
AcDbEntity
8
CUT
100
AcDbVertex
100
AcDb2dVertex
10
21.395950
20
37.412995
30
0
70
0
0
SEQEND
100
AcDbEntity
8
CUT
0
POLYLINE
100
AcDbEntity
8
CUT
100
AcDb2dPolyline
66
1
10
0
20
0
30
0
70
1
0
VERTEX
100
AcDbEntity
8
CUT
100
AcDbVertex
100
AcDb2dVertex
10
49.202838
20
18.913321
30
0
70
0
0
VERTEX
100
AcDbEntity
8
CUT
100
AcDbVertex
100
AcDb2dVertex
10
49.282681
20
18.799185
30
0
70
0
0
VERTEX
100
AcDbEntity
8
CUT
100
AcDbVertex
100
AcDb2dVertex
10
49.325382
20
18.679466
30
0
70
0
0
VERTEX
100
AcDbEntity
8
CUT
100
AcDbVertex
100
AcDb2dVertex
10
49.335060
20
18.608908
30
0
70
0
0
VERTEX
100
AcDbEntity
8
CUT
100
AcDbVertex
100
AcDb2dVertex
10
49.334949
20
18.543157
30
0
70
0
0
VERTEX
100
AcDbEntity
8
CUT
100
AcDbVertex
100
AcDb2dVertex
10
49.307916
20
18.413369
30
0
70
0
0
VERTEX
100
AcDbEntity
8
CUT
100
AcDbVertex
100
AcDb2dVertex
10
49.246268
20
18.294466
30
0
70
0
0
VERTEX
100
AcDbEntity
8
CUT
100
AcDbVertex
100
AcDb2dVertex
10
41.400076
20
7.196589
30
0
70
0
0
VERTEX
100
AcDbEntity
8
CUT
100
AcDbVertex
100
AcDb2dVertex
10
41.315874
20
7.104888
30
0
70
0
0
VERTEX
100
AcDbEntity
8
CUT
100
AcDbVertex
100
AcDb2dVertex
10
41.215725
20
7.039850
30
0
70
0
0
VERTEX
100
AcDbEntity
8
CUT
100
AcDbVertex
100
AcDb2dVertex
10
41.032446
20
6.990558
30
0
70
0
0
VERTEX
100
AcDbEntity
8
CUT
100
AcDbVertex
100
AcDb2dVertex
10
40.906933
20
6.998376
30
0
70
0
0
VERTEX
100
AcDbEntity
8
CUT
100
AcDbVertex
100
AcDb2dVertex
10
40.788696
20
7.037351
30
0
70
0
0
VERTEX
100
AcDbEntity
8
CUT
100
AcDbVertex
100
AcDb2dVertex
10
40.684097
20
7.104865
30
0
70
0
0
VERTEX
100
AcDbEntity
8
CUT
100
AcDbVertex
100
AcDb2dVertex
10
40.599889
20
7.196561
30
0
70
0
0
VERTEX
100
AcDbEntity
8
CUT
100
AcDbVertex
100
AcDb2dVertex
10
32.753040
20
18.293681
30
0
70
0
0
VERTEX
100
AcDbEntity
8
CUT
100
AcDbVertex
100
AcDb2dVertex
10
32.691381
20
18.412587
30
0
70
0
0
VERTEX
100
AcDbEntity
8
CUT
100
AcDbVertex
100
AcDb2dVertex
10
32.664225
20
18.543746
30
0
70
0
0
VERTEX
100
AcDbEntity
8
CUT
100
AcDbVertex
100
AcDb2dVertex
10
32.675090
20
18.682632
30
0
70
0
0
VERTEX
100
AcDbEntity
8
CUT
100
AcDbVertex
100
AcDb2dVertex
10
32.718188
20
18.802216
30
0
70
0
0
VERTEX
100
AcDbEntity
8
CUT
100
AcDbVertex
100
AcDb2dVertex
10
32.754641
20
18.861703
30
0
70
0
0
VERTEX
100
AcDbEntity
8
CUT
100
AcDbVertex
100
AcDb2dVertex
10
33.409401
20
19.563621
30
0
70
0
0
VERTEX
100
AcDbEntity
8
CUT
100
AcDbVertex
100
AcDb2dVertex
10
34.037047
20
20.262775
30
0
70
0
0
VERTEX
100
AcDbEntity
8
CUT
100
AcDbVertex
100
AcDb2dVertex
10
34.646331
20
20.974752
30
0
70
0
0
VERTEX
100
AcDbEntity
8
CUT
100
AcDbVertex
100
AcDb2dVertex
10
35.164436
20
21.610699
30
0
70
0
0
VERTEX
100
AcDbEntity
8
CUT
100
AcDbVertex
100
AcDb2dVertex
10
35.737117
20
22.345494
30
0
70
0
0
VERTEX
100
AcDbEntity
8
CUT
100
AcDbVertex
100
AcDb2dVertex
10
36.383233
20
23.223343
30
0
70
0
0
VERTEX
100
AcDbEntity
8
CUT
100
AcDbVertex
100
AcDb2dVertex
10
37.032840
20
24.158805
30
0
70
0
0
VERTEX
100
AcDbEntity
8
CUT
100
AcDbVertex
100
AcDb2dVertex
10
37.824309
20
25.388407
30
0
70
0
0
VERTEX
100
AcDbEntity
8
CUT
100
AcDbVertex
100
AcDb2dVertex
10
38.254886
20
26.110962
30
0
70
0
0
VERTEX
100
AcDbEntity
8
CUT
100
AcDbVertex
100
AcDb2dVertex
10
39.070547
20
27.605794
30
0
70
0
0
VERTEX
100
AcDbEntity
8
CUT
100
AcDbVertex
100
AcDb2dVertex
10
39.427576
20
28.326160
30
0
70
0
0
VERTEX
100
AcDbEntity
8
CUT
100
AcDbVertex
100
AcDb2dVertex
10
39.787531
20
29.100390
30
0
70
0
0
VERTEX
100
AcDbEntity
8
CUT
100
AcDbVertex
100
AcDb2dVertex
10
40.097679
20
29.817467
30
0
70
0
0
VERTEX
100
AcDbEntity
8
CUT
100
AcDbVertex
100
AcDb2dVertex
10
40.568213
20
31.007677
30
0
70
0
0
VERTEX
100
AcDbEntity
8
CUT
100
AcDbVertex
100
AcDb2dVertex
10
40.640583
20
31.110150
30
0
70
0
0
VERTEX
100
AcDbEntity
8
CUT
100
AcDbVertex
100
AcDb2dVertex
10
40.736926
20
31.191095
30
0
70
0
0
VERTEX
100
AcDbEntity
8
CUT
100
AcDbVertex
100
AcDb2dVertex
10
40.850708
20
31.244834
30
0
70
0
0
VERTEX
100
AcDbEntity
8
CUT
100
AcDbVertex
100
AcDb2dVertex
10
40.974424
20
31.267824
30
0
70
0
0
VERTEX
100
AcDbEntity
8
CUT
100
AcDbVertex
100
AcDb2dVertex
10
41.099916
20
31.258548
30
0
70
0
0
VERTEX
100
AcDbEntity
8
CUT
100
AcDbVertex
100
AcDb2dVertex
10
41.220052
20
31.217027
30
0
70
0
0
VERTEX
100
AcDbEntity
8
CUT
100
AcDbVertex
100
AcDb2dVertex
10
41.367417
20
31.104255
30
0
70
0
0
VERTEX
100
AcDbEntity
8
CUT
100
AcDbVertex
100
AcDb2dVertex
10
41.438527
20
30.999848
30
0
70
0
0
VERTEX
100
AcDbEntity
8
CUT
100
AcDbVertex
100
AcDb2dVertex
10
41.973518
20
29.652275
30
0
70
0
0
VERTEX
100
AcDbEntity
8
CUT
100
AcDbVertex
100
AcDb2dVertex
10
42.551182
20
28.369190
30
0
70
0
0
VERTEX
100
AcDbEntity
8
CUT
100
AcDbVertex
100
AcDb2dVertex
10
42.939534
20
27.586963
30
0
70
0
0
VERTEX
100
AcDbEntity
8
CUT
100
AcDbVertex
100
AcDb2dVertex
10
43.335210
20
26.839690
30
0
70
0
0
VERTEX
100
AcDbEntity
8
CUT
100
AcDbVertex
100
AcDb2dVertex
10
43.744511
20
26.111971
30
0
70
0
0
VERTEX
100
AcDbEntity
8
CUT
100
AcDbVertex
100
AcDb2dVertex
10
44.170242
20
25.397081
30
0
70
0
0
VERTEX
100
AcDbEntity
8
CUT
100
AcDbVertex
100
AcDb2dVertex
10
44.618825
20
24.684673
30
0
70
0
0
VERTEX
100
AcDbEntity
8
CUT
100
AcDbVertex
100
AcDb2dVertex
10
44.972921
20
24.150002
30
0
70
0
0
VERTEX
100
AcDbEntity
8
CUT
100
AcDbVertex
100
AcDb2dVertex
10
45.589703
20
23.260103
30
0
70
0
0
VERTEX
100
AcDbEntity
8
CUT
100
AcDbVertex
100
AcDb2dVertex
10
46.259599
20
22.350050
30
0
70
0
0
VERTEX
100
AcDbEntity
8
CUT
100
AcDbVertex
100
AcDb2dVertex
10
46.770867
20
21.690033
30
0
70
0
0
VERTEX
100
AcDbEntity
8
CUT
100
AcDbVertex
100
AcDb2dVertex
10
47.353671
20
20.974749
30
0
70
0
0
VERTEX
100
AcDbEntity
8
CUT
100
AcDbVertex
100
AcDb2dVertex
10
47.951327
20
20.276001
30
0
70
0
0
VERTEX
100
AcDbEntity
8
CUT
100
AcDbVertex
100
AcDb2dVertex
10
48.590543
20
19.563684
30
0
70
0
0
SEQEND
100
AcDbEntity
8
CUT
0
POLYLINE
100
AcDbEntity
8
CUT
100
AcDb2dPolyline
66
1
10
0
20
0
30
0
70
1
0
VERTEX
100
AcDbEntity
8
CUT
100
AcDbVertex
100
AcDb2dVertex
10
32.797162
20
63.086679
30
0
70
0
0
VERTEX
100
AcDbEntity
8
CUT
100
AcDbVertex
100
AcDb2dVertex
10
32.717319
20
63.200815
30
0
70
0
0
VERTEX
100
AcDbEntity
8
CUT
100
AcDbVertex
100
AcDb2dVertex
10
32.674618
20
63.320534
30
0
70
0
0
VERTEX
100
AcDbEntity
8
CUT
100
AcDbVertex
100
AcDb2dVertex
10
32.664940
20
63.391092
30
0
70
0
0
VERTEX
100
AcDbEntity
8
CUT
100
AcDbVertex
100
AcDb2dVertex
10
32.665051
20
63.456843
30
0
70
0
0
VERTEX
100
AcDbEntity
8
CUT
100
AcDbVertex
100
AcDb2dVertex
10
32.692084
20
63.586631
30
0
70
0
0
VERTEX
100
AcDbEntity
8
CUT
100
AcDbVertex
100
AcDb2dVertex
10
32.753732
20
63.705534
30
0
70
0
0
VERTEX
100
AcDbEntity
8
CUT
100
AcDbVertex
100
AcDb2dVertex
10
40.599924
20
74.803411
30
0
70
0
0
VERTEX
100
AcDbEntity
8
CUT
100
AcDbVertex
100
AcDb2dVertex
10
40.684126
20
74.895112
30
0
70
0
0
VERTEX
100
AcDbEntity
8
CUT
100
AcDbVertex
100
AcDb2dVertex
10
40.784275
20
74.960150
30
0
70
0
0
VERTEX
100
AcDbEntity
8
CUT
100
AcDbVertex
100
AcDb2dVertex
10
40.967554
20
75.009442
30
0
70
0
0
VERTEX
100
AcDbEntity
8
CUT
100
AcDbVertex
100
AcDb2dVertex
10
41.093067
20
75.001624
30
0
70
0
0
VERTEX
100
AcDbEntity
8
CUT
100
AcDbVertex
100
AcDb2dVertex
10
41.211304
20
74.962649
30
0
70
0
0
VERTEX
100
AcDbEntity
8
CUT
100
AcDbVertex
100
AcDb2dVertex
10
41.315903
20
74.895135
30
0
70
0
0
VERTEX
100
AcDbEntity
8
CUT
100
AcDbVertex
100
AcDb2dVertex
10
41.400111
20
74.803439
30
0
70
0
0
VERTEX
100
AcDbEntity
8
CUT
100
AcDbVertex
100
AcDb2dVertex
10
49.246960
20
63.706319
30
0
70
0
0
VERTEX
100
AcDbEntity
8
CUT
100
AcDbVertex
100
AcDb2dVertex
10
49.308619
20
63.587413
30
0
70
0
0
VERTEX
100
AcDbEntity
8
CUT
100
AcDbVertex
100
AcDb2dVertex
10
49.335775
20
63.456254
30
0
70
0
0
VERTEX
100
AcDbEntity
8
CUT
100
AcDbVertex
100
AcDb2dVertex
10
49.324910
20
63.317368
30
0
70
0
0
VERTEX
100
AcDbEntity
8
CUT
100
AcDbVertex
100
AcDb2dVertex
10
49.281812
20
63.197784
30
0
70
0
0
VERTEX
100
AcDbEntity
8
CUT
100
AcDbVertex
100
AcDb2dVertex
10
49.245359
20
63.138297
30
0
70
0
0
VERTEX
100
AcDbEntity
8
CUT
100
AcDbVertex
100
AcDb2dVertex
10
48.590599
20
62.436379
30
0
70
0
0
VERTEX
100
AcDbEntity
8
CUT
100
AcDbVertex
100
AcDb2dVertex
10
47.962953
20
61.737225
30
0
70
0
0
VERTEX
100
AcDbEntity
8
CUT
100
AcDbVertex
100
AcDb2dVertex
10
47.353669
20
61.025248
30
0
70
0
0
VERTEX
100
AcDbEntity
8
CUT
100
AcDbVertex
100
AcDb2dVertex
10
46.835564
20
60.389301
30
0
70
0
0
VERTEX
100
AcDbEntity
8
CUT
100
AcDbVertex
100
AcDb2dVertex
10
46.262883
20
59.654506
30
0
70
0
0
VERTEX
100
AcDbEntity
8
CUT
100
AcDbVertex
100
AcDb2dVertex
10
45.616767
20
58.776657
30
0
70
0
0
VERTEX
100
AcDbEntity
8
CUT
100
AcDbVertex
100
AcDb2dVertex
10
44.967160
20
57.841195
30
0
70
0
0
VERTEX
100
AcDbEntity
8
CUT
100
AcDbVertex
100
AcDb2dVertex
10
44.175691
20
56.611593
30
0
70
0
0
VERTEX
100
AcDbEntity
8
CUT
100
AcDbVertex
100
AcDb2dVertex
10
43.745114
20
55.889038
30
0
70
0
0
VERTEX
100
AcDbEntity
8
CUT
100
AcDbVertex
100
AcDb2dVertex
10
42.929453
20
54.394206
30
0
70
0
0
VERTEX
100
AcDbEntity
8
CUT
100
AcDbVertex
100
AcDb2dVertex
10
42.572424
20
53.673840
30
0
70
0
0
VERTEX
100
AcDbEntity
8
CUT
100
AcDbVertex
100
AcDb2dVertex
10
42.212469
20
52.899610
30
0
70
0
0
VERTEX
100
AcDbEntity
8
CUT
100
AcDbVertex
100
AcDb2dVertex
10
41.902321
20
52.182533
30
0
70
0
0
VERTEX
100
AcDbEntity
8
CUT
100
AcDbVertex
100
AcDb2dVertex
10
41.431787
20
50.992323
30
0
70
0
0
VERTEX
100
AcDbEntity
8
CUT
100
AcDbVertex
100
AcDb2dVertex
10
41.359417
20
50.889850
30
0
70
0
0
VERTEX
100
AcDbEntity
8
CUT
100
AcDbVertex
100
AcDb2dVertex
10
41.263074
20
50.808905
30
0
70
0
0
VERTEX
100
AcDbEntity
8
CUT
100
AcDbVertex
100
AcDb2dVertex
10
41.149292
20
50.755166
30
0
70
0
0
VERTEX
100
AcDbEntity
8
CUT
100
AcDbVertex
100
AcDb2dVertex
10
41.025576
20
50.732176
30
0
70
0
0
VERTEX
100
AcDbEntity
8
CUT
100
AcDbVertex
100
AcDb2dVertex
10
40.900084
20
50.741452
30
0
70
0
0
VERTEX
100
AcDbEntity
8
CUT
100
AcDbVertex
100
AcDb2dVertex
10
40.779948
20
50.782973
30
0
70
0
0
VERTEX
100
AcDbEntity
8
CUT
100
AcDbVertex
100
AcDb2dVertex
10
40.632583
20
50.895745
30
0
70
0
0
VERTEX
100
AcDbEntity
8
CUT
100
AcDbVertex
100
AcDb2dVertex
10
40.561473
20
51.000152
30
0
70
0
0
VERTEX
100
AcDbEntity
8
CUT
100
AcDbVertex
100
AcDb2dVertex
10
40.026482
20
52.347725
30
0
70
0
0
VERTEX
100
AcDbEntity
8
CUT
100
AcDbVertex
100
AcDb2dVertex
10
39.448818
20
53.630810
30
0
70
0
0
VERTEX
100
AcDbEntity
8
CUT
100
AcDbVertex
100
AcDb2dVertex
10
39.060466
20
54.413037
30
0
70
0
0
VERTEX
100
AcDbEntity
8
CUT
100
AcDbVertex
100
AcDb2dVertex
10
38.664790
20
55.160310
30
0
70
0
0
VERTEX
100
AcDbEntity
8
CUT
100
AcDbVertex
100
AcDb2dVertex
10
38.255489
20
55.888029
30
0
70
0
0
VERTEX
100
AcDbEntity
8
CUT
100
AcDbVertex
100
AcDb2dVertex
10
37.829758
20
56.602919
30
0
70
0
0
VERTEX
100
AcDbEntity
8
CUT
100
AcDbVertex
100
AcDb2dVertex
10
37.381175
20
57.315327
30
0
70
0
0
VERTEX
100
AcDbEntity
8
CUT
100
AcDbVertex
100
AcDb2dVertex
10
37.027079
20
57.849998
30
0
70
0
0
VERTEX
100
AcDbEntity
8
CUT
100
AcDbVertex
100
AcDb2dVertex
10
36.410297
20
58.739897
30
0
70
0
0
VERTEX
100
AcDbEntity
8
CUT
100
AcDbVertex
100
AcDb2dVertex
10
35.740401
20
59.649950
30
0
70
0
0
VERTEX
100
AcDbEntity
8
CUT
100
AcDbVertex
100
AcDb2dVertex
10
35.229133
20
60.309967
30
0
70
0
0
VERTEX
100
AcDbEntity
8
CUT
100
AcDbVertex
100
AcDb2dVertex
10
34.646329
20
61.025251
30
0
70
0
0
VERTEX
100
AcDbEntity
8
CUT
100
AcDbVertex
100
AcDb2dVertex
10
34.048673
20
61.723999
30
0
70
0
0
VERTEX
100
AcDbEntity
8
CUT
100
AcDbVertex
100
AcDb2dVertex
10
33.409457
20
62.436316
30
0
70
0
0
SEQEND
100
AcDbEntity
8
CUT
0
POLYLINE
100
AcDbEntity
8
CUT
100
AcDb2dPolyline
66
1
10
0
20
0
30
0
70
1
0
VERTEX
100
AcDbEntity
8
CUT
100
AcDbVertex
100
AcDb2dVertex
10
44.831932
20
30.271439
30
0
70
0
0
VERTEX
100
AcDbEntity
8
CUT
100
AcDbVertex
100
AcDb2dVertex
10
44.266508
20
31.623151
30
0
70
0
0
VERTEX
100
AcDbEntity
8
CUT
100
AcDbVertex
100
AcDb2dVertex
10
43.611892
20
33.509343
30
0
70
0
0
VERTEX
100
AcDbEntity
8
CUT
100
AcDbVertex
100
AcDb2dVertex
10
43.075555
20
35.560589
30
0
70
0
0
VERTEX
100
AcDbEntity
8
CUT
100
AcDbVertex
100
AcDb2dVertex
10
42.734408
20
37.517267
30
0
70
0
0
VERTEX
100
AcDbEntity
8
CUT
100
AcDbVertex
100
AcDb2dVertex
10
42.650513
20
38.213354
30
0
70
0
0
VERTEX
100
AcDbEntity
8
CUT
100
AcDbVertex
100
AcDb2dVertex
10
42.596690
20
38.978752
30
0
70
0
0
VERTEX
100
AcDbEntity
8
CUT
100
AcDbVertex
100
AcDb2dVertex
10
42.620315
20
39.165261
30
0
70
0
0
VERTEX
100
AcDbEntity
8
CUT
100
AcDbVertex
100
AcDb2dVertex
10
42.676591
20
39.281449
30
0
70
0
0
VERTEX
100
AcDbEntity
8
CUT
100
AcDbVertex
100
AcDb2dVertex
10
42.806090
20
39.414003
30
0
70
0
0
VERTEX
100
AcDbEntity
8
CUT
100
AcDbVertex
100
AcDb2dVertex
10
42.980562
20
39.490219
30
0
70
0
0
VERTEX
100
AcDbEntity
8
CUT
100
AcDbVertex
100
AcDb2dVertex
10
43.107930
20
39.501117
30
0
70
0
0
VERTEX
100
AcDbEntity
8
CUT
100
AcDbVertex
100
AcDb2dVertex
10
43.402786
20
39.487551
30
0
70
0
0
VERTEX
100
AcDbEntity
8
CUT
100
AcDbVertex
100
AcDb2dVertex
10
44.380802
20
39.410961
30
0
70
0
0
VERTEX
100
AcDbEntity
8
CUT
100
AcDbVertex
100
AcDb2dVertex
10
45.903149
20
39.236210
30
0
70
0
0
VERTEX
100
AcDbEntity
8
CUT
100
AcDbVertex
100
AcDb2dVertex
10
46.653494
20
39.126420
30
0
70
0
0
VERTEX
100
AcDbEntity
8
CUT
100
AcDbVertex
100
AcDb2dVertex
10
47.514938
20
38.978198
30
0
70
0
0
VERTEX
100
AcDbEntity
8
CUT
100
AcDbVertex
100
AcDb2dVertex
10
48.524876
20
38.778959
30
0
70
0
0
VERTEX
100
AcDbEntity
8
CUT
100
AcDbVertex
100
AcDb2dVertex
10
49.451124
20
38.570754
30
0
70
0
0
VERTEX
100
AcDbEntity
8
CUT
100
AcDbVertex
100
AcDb2dVertex
10
50.264613
20
38.369581
30
0
70
0
0
VERTEX
100
AcDbEntity
8
CUT
100
AcDbVertex
100
AcDb2dVertex
10
51.071304
20
38.150583
30
0
70
0
0
VERTEX
100
AcDbEntity
8
CUT
100
AcDbVertex
100
AcDb2dVertex
10
52.725293
20
37.648671
30
0
70
0
0
VERTEX
100
AcDbEntity
8
CUT
100
AcDbVertex
100
AcDb2dVertex
10
53.679732
20
37.325148
30
0
70
0
0
VERTEX
100
AcDbEntity
8
CUT
100
AcDbVertex
100
AcDb2dVertex
10
54.656579
20
36.968659
30
0
70
0
0
VERTEX
100
AcDbEntity
8
CUT
100
AcDbVertex
100
AcDb2dVertex
10
55.501980
20
36.637669
30
0
70
0
0
VERTEX
100
AcDbEntity
8
CUT
100
AcDbVertex
100
AcDb2dVertex
10
56.437679
20
36.249298
30
0
70
0
0
VERTEX
100
AcDbEntity
8
CUT
100
AcDbVertex
100
AcDb2dVertex
10
57.425093
20
35.814142
30
0
70
0
0
VERTEX
100
AcDbEntity
8
CUT
100
AcDbVertex
100
AcDb2dVertex
10
58.310606
20
35.400490
30
0
70
0
0
VERTEX
100
AcDbEntity
8
CUT
100
AcDbVertex
100
AcDb2dVertex
10
59.266730
20
34.930679
30
0
70
0
0
VERTEX
100
AcDbEntity
8
CUT
100
AcDbVertex
100
AcDb2dVertex
10
60.044068
20
34.528347
30
0
70
0
0
VERTEX
100
AcDbEntity
8
CUT
100
AcDbVertex
100
AcDb2dVertex
10
60.195566
20
34.406350
30
0
70
0
0
VERTEX
100
AcDbEntity
8
CUT
100
AcDbVertex
100
AcDb2dVertex
10
60.286497
20
34.239279
30
0
70
0
0
VERTEX
100
AcDbEntity
8
CUT
100
AcDbVertex
100
AcDb2dVertex
10
60.308361
20
34.113609
30
0
70
0
0
VERTEX
100
AcDbEntity
8
CUT
100
AcDbVertex
100
AcDb2dVertex
10
60.297030
20
33.986556
30
0
70
0
0
VERTEX
100
AcDbEntity
8
CUT
100
AcDbVertex
100
AcDb2dVertex
10
60.218869
20
33.810304
30
0
70
0
0
VERTEX
100
AcDbEntity
8
CUT
100
AcDbVertex
100
AcDb2dVertex
10
51.522076
20
21.511181
30
0
70
0
0
VERTEX
100
AcDbEntity
8
CUT
100
AcDbVertex
100
AcDb2dVertex
10
51.391066
20
21.384659
30
0
70
0
0
VERTEX
100
AcDbEntity
8
CUT
100
AcDbVertex
100
AcDb2dVertex
10
51.219237
20
21.313847
30
0
70
0
0
VERTEX
100
AcDbEntity
8
CUT
100
AcDbVertex
100
AcDb2dVertex
10
51.094818
20
21.304836
30
0
70
0
0
VERTEX
100
AcDbEntity
8
CUT
100
AcDbVertex
100
AcDb2dVertex
10
50.978260
20
21.325944
30
0
70
0
0
VERTEX
100
AcDbEntity
8
CUT
100
AcDbVertex
100
AcDb2dVertex
10
50.812313
20
21.414381
30
0
70
0
0
VERTEX
100
AcDbEntity
8
CUT
100
AcDbVertex
100
AcDb2dVertex
10
50.610710
20
21.622031
30
0
70
0
0
VERTEX
100
AcDbEntity
8
CUT
100
AcDbVertex
100
AcDb2dVertex
10
50.018693
20
22.281395
30
0
70
0
0
VERTEX
100
AcDbEntity
8
CUT
100
AcDbVertex
100
AcDb2dVertex
10
49.474809
20
22.916977
30
0
70
0
0
VERTEX
100
AcDbEntity
8
CUT
100
AcDbVertex
100
AcDb2dVertex
10
48.863234
20
23.664189
30
0
70
0
0
VERTEX
100
AcDbEntity
8
CUT
100
AcDbVertex
100
AcDb2dVertex
10
48.333318
20
24.349360
30
0
70
0
0
VERTEX
100
AcDbEntity
8
CUT
100
AcDbVertex
100
AcDb2dVertex
10
47.593708
20
25.382600
30
0
70
0
0
VERTEX
100
AcDbEntity
8
CUT
100
AcDbVertex
100
AcDb2dVertex
10
46.661682
20
26.815220
30
0
70
0
0
VERTEX
100
AcDbEntity
8
CUT
100
AcDbVertex
100
AcDb2dVertex
10
45.903957
20
28.121756
30
0
70
0
0
SEQEND
100
AcDbEntity
8
CUT
0
POLYLINE
100
AcDbEntity
8
CUT
100
AcDb2dPolyline
66
1
10
0
20
0
30
0
70
1
0
VERTEX
100
AcDbEntity
8
CUT
100
AcDbVertex
100
AcDb2dVertex
10
43.111699
20
42.495598
30
0
70
0
0
VERTEX
100
AcDbEntity
8
CUT
100
AcDbVertex
100
AcDb2dVertex
10
42.923396
20
42.521461
30
0
70
0
0
VERTEX
100
AcDbEntity
8
CUT
100
AcDbVertex
100
AcDb2dVertex
10
42.757578
20
42.618296
30
0
70
0
0
VERTEX
100
AcDbEntity
8
CUT
100
AcDbVertex
100
AcDb2dVertex
10
42.641715
20
42.771424
30
0
70
0
0
VERTEX
100
AcDbEntity
8
CUT
100
AcDbVertex
100
AcDb2dVertex
10
42.593479
20
42.958584
30
0
70
0
0
VERTEX
100
AcDbEntity
8
CUT
100
AcDbVertex
100
AcDb2dVertex
10
42.673347
20
43.977908
30
0
70
0
0
VERTEX
100
AcDbEntity
8
CUT
100
AcDbVertex
100
AcDb2dVertex
10
42.994374
20
46.039004
30
0
70
0
0
VERTEX
100
AcDbEntity
8
CUT
100
AcDbVertex
100
AcDb2dVertex
10
43.388785
20
47.720967
30
0
70
0
0
VERTEX
100
AcDbEntity
8
CUT
100
AcDbVertex
100
AcDb2dVertex
10
43.965769
20
49.563226
30
0
70
0
0
VERTEX
100
AcDbEntity
8
CUT
100
AcDbVertex
100
AcDb2dVertex
10
44.044474
20
49.782817
30
0
70
0
0
VERTEX
100
AcDbEntity
8
CUT
100
AcDbVertex
100
AcDb2dVertex
10
44.831911
20
51.728520
30
0
70
0
0
VERTEX
100
AcDbEntity
8
CUT
100
AcDbVertex
100
AcDb2dVertex
10
45.871256
20
53.818604
30
0
70
0
0
VERTEX
100
AcDbEntity
8
CUT
100
AcDbVertex
100
AcDb2dVertex
10
46.993415
20
55.713263
30
0
70
0
0
VERTEX
100
AcDbEntity
8
CUT
100
AcDbVertex
100
AcDb2dVertex
10
47.975748
20
57.164313
30
0
70
0
0
VERTEX
100
AcDbEntity
8
CUT
100
AcDbVertex
100
AcDb2dVertex
10
48.863219
20
58.335750
30
0
70
0
0
VERTEX
100
AcDbEntity
8
CUT
100
AcDbVertex
100
AcDb2dVertex
10
49.349276
20
58.931211
30
0
70
0
0
VERTEX
100
AcDbEntity
8
CUT
100
AcDbVertex
100
AcDb2dVertex
10
49.999911
20
59.696718
30
0
70
0
0
VERTEX
100
AcDbEntity
8
CUT
100
AcDbVertex
100
AcDb2dVertex
10
50.764628
20
60.541551
30
0
70
0
0
VERTEX
100
AcDbEntity
8
CUT
100
AcDbVertex
100
AcDb2dVertex
10
50.913834
20
60.649787
30
0
70
0
0
VERTEX
100
AcDbEntity
8
CUT
100
AcDbVertex
100
AcDb2dVertex
10
51.033959
20
60.688182
30
0
70
0
0
VERTEX
100
AcDbEntity
8
CUT
100
AcDbVertex
100
AcDb2dVertex
10
51.216259
20
60.686941
30
0
70
0
0
VERTEX
100
AcDbEntity
8
CUT
100
AcDbVertex
100
AcDb2dVertex
10
51.334720
20
60.647482
30
0
70
0
0
VERTEX
100
AcDbEntity
8
CUT
100
AcDbVertex
100
AcDb2dVertex
10
51.438390
20
60.580165
30
0
70
0
0
VERTEX
100
AcDbEntity
8
CUT
100
AcDbVertex
100
AcDb2dVertex
10
51.521916
20
60.489046
30
0
70
0
0
VERTEX
100
AcDbEntity
8
CUT
100
AcDbVertex
100
AcDb2dVertex
10
60.219057
20
48.189431
30
0
70
0
0
VERTEX
100
AcDbEntity
8
CUT
100
AcDbVertex
100
AcDb2dVertex
10
60.278794
20
48.075837
30
0
70
0
0
VERTEX
100
AcDbEntity
8
CUT
100
AcDbVertex
100
AcDb2dVertex
10
60.306985
20
47.950627
30
0
70
0
0
VERTEX
100
AcDbEntity
8
CUT
100
AcDbVertex
100
AcDb2dVertex
10
60.301696
20
47.822392
30
0
70
0
0
VERTEX
100
AcDbEntity
8
CUT
100
AcDbVertex
100
AcDb2dVertex
10
60.263289
20
47.699929
30
0
70
0
0
VERTEX
100
AcDbEntity
8
CUT
100
AcDbVertex
100
AcDb2dVertex
10
60.194399
20
47.591640
30
0
70
0
0
VERTEX
100
AcDbEntity
8
CUT
100
AcDbVertex
100
AcDb2dVertex
10
60.099826
20
47.505006
30
0
70
0
0
VERTEX
100
AcDbEntity
8
CUT
100
AcDbVertex
100
AcDb2dVertex
10
59.331157
20
47.101189
30
0
70
0
0
VERTEX
100
AcDbEntity
8
CUT
100
AcDbVertex
100
AcDb2dVertex
10
58.372225
20
46.628396
30
0
70
0
0
VERTEX
100
AcDbEntity
8
CUT
100
AcDbVertex
100
AcDb2dVertex
10
57.435547
20
46.190658
30
0
70
0
0
VERTEX
100
AcDbEntity
8
CUT
100
AcDbVertex
100
AcDb2dVertex
10
56.550736
20
45.799758
30
0
70
0
0
VERTEX
100
AcDbEntity
8
CUT
100
AcDbVertex
100
AcDb2dVertex
10
55.568267
20
45.388308
30
0
70
0
0
VERTEX
100
AcDbEntity
8
CUT
100
AcDbVertex
100
AcDb2dVertex
10
54.708698
20
45.051848
30
0
70
0
0
VERTEX
100
AcDbEntity
8
CUT
100
AcDbVertex
100
AcDb2dVertex
10
53.805763
20
44.719422
30
0
70
0
0
VERTEX
100
AcDbEntity
8
CUT
100
AcDbVertex
100
AcDb2dVertex
10
52.860654
20
44.394597
30
0
70
0
0
VERTEX
100
AcDbEntity
8
CUT
100
AcDbVertex
100
AcDb2dVertex
10
52.026147
20
44.129384
30
0
70
0
0
VERTEX
100
AcDbEntity
8
CUT
100
AcDbVertex
100
AcDb2dVertex
10
51.178462
20
43.878988
30
0
70
0
0
VERTEX
100
AcDbEntity
8
CUT
100
AcDbVertex
100
AcDb2dVertex
10
50.192912
20
43.611276
30
0
70
0
0
VERTEX
100
AcDbEntity
8
CUT
100
AcDbVertex
100
AcDb2dVertex
10
49.404350
20
43.417863
30
0
70
0
0
VERTEX
100
AcDbEntity
8
CUT
100
AcDbVertex
100
AcDb2dVertex
10
48.573141
20
43.231772
30
0
70
0
0
VERTEX
100
AcDbEntity
8
CUT
100
AcDbVertex
100
AcDb2dVertex
10
47.566651
20
43.030663
30
0
70
0
0
VERTEX
100
AcDbEntity
8
CUT
100
AcDbVertex
100
AcDb2dVertex
10
46.827268
20
42.901792
30
0
70
0
0
VERTEX
100
AcDbEntity
8
CUT
100
AcDbVertex
100
AcDb2dVertex
10
45.876734
20
42.760454
30
0
70
0
0
VERTEX
100
AcDbEntity
8
CUT
100
AcDbVertex
100
AcDb2dVertex
10
44.377893
20
42.588781
30
0
70
0
0
SEQEND
100
AcDbEntity
8
CUT
0
POLYLINE
100
AcDbEntity
8
CUT
100
AcDb2dPolyline
66
1
10
0
20
0
30
0
70
1
0
VERTEX
100
AcDbEntity
8
CUT
100
AcDbVertex
100
AcDb2dVertex
10
38.888301
20
39.504402
30
0
70
0
0
VERTEX
100
AcDbEntity
8
CUT
100
AcDbVertex
100
AcDb2dVertex
10
39.076604
20
39.478539
30
0
70
0
0
VERTEX
100
AcDbEntity
8
CUT
100
AcDbVertex
100
AcDb2dVertex
10
39.242422
20
39.381704
30
0
70
0
0
VERTEX
100
AcDbEntity
8
CUT
100
AcDbVertex
100
AcDb2dVertex
10
39.358285
20
39.228576
30
0
70
0
0
VERTEX
100
AcDbEntity
8
CUT
100
AcDbVertex
100
AcDb2dVertex
10
39.406521
20
39.041416
30
0
70
0
0
VERTEX
100
AcDbEntity
8
CUT
100
AcDbVertex
100
AcDb2dVertex
10
39.326653
20
38.022092
30
0
70
0
0
VERTEX
100
AcDbEntity
8
CUT
100
AcDbVertex
100
AcDb2dVertex
10
39.005626
20
35.960996
30
0
70
0
0
VERTEX
100
AcDbEntity
8
CUT
100
AcDbVertex
100
AcDb2dVertex
10
38.611215
20
34.279033
30
0
70
0
0
VERTEX
100
AcDbEntity
8
CUT
100
AcDbVertex
100
AcDb2dVertex
10
38.034231
20
32.436774
30
0
70
0
0
VERTEX
100
AcDbEntity
8
CUT
100
AcDbVertex
100
AcDb2dVertex
10
37.955526
20
32.217183
30
0
70
0
0
VERTEX
100
AcDbEntity
8
CUT
100
AcDbVertex
100
AcDb2dVertex
10
37.168089
20
30.271480
30
0
70
0
0
VERTEX
100
AcDbEntity
8
CUT
100
AcDbVertex
100
AcDb2dVertex
10
36.128744
20
28.181396
30
0
70
0
0
VERTEX
100
AcDbEntity
8
CUT
100
AcDbVertex
100
AcDb2dVertex
10
35.006585
20
26.286737
30
0
70
0
0
VERTEX
100
AcDbEntity
8
CUT
100
AcDbVertex
100
AcDb2dVertex
10
34.024252
20
24.835687
30
0
70
0
0
VERTEX
100
AcDbEntity
8
CUT
100
AcDbVertex
100
AcDb2dVertex
10
33.136781
20
23.664250
30
0
70
0
0
VERTEX
100
AcDbEntity
8
CUT
100
AcDbVertex
100
AcDb2dVertex
10
32.650724
20
23.068789
30
0
70
0
0
VERTEX
100
AcDbEntity
8
CUT
100
AcDbVertex
100
AcDb2dVertex
10
32.000089
20
22.303282
30
0
70
0
0
VERTEX
100
AcDbEntity
8
CUT
100
AcDbVertex
100
AcDb2dVertex
10
31.235372
20
21.458449
30
0
70
0
0
VERTEX
100
AcDbEntity
8
CUT
100
AcDbVertex
100
AcDb2dVertex
10
31.086166
20
21.350213
30
0
70
0
0
VERTEX
100
AcDbEntity
8
CUT
100
AcDbVertex
100
AcDb2dVertex
10
30.966041
20
21.311818
30
0
70
0
0
VERTEX
100
AcDbEntity
8
CUT
100
AcDbVertex
100
AcDb2dVertex
10
30.783741
20
21.313059
30
0
70
0
0
VERTEX
100
AcDbEntity
8
CUT
100
AcDbVertex
100
AcDb2dVertex
10
30.665280
20
21.352518
30
0
70
0
0
VERTEX
100
AcDbEntity
8
CUT
100
AcDbVertex
100
AcDb2dVertex
10
30.561610
20
21.419835
30
0
70
0
0
VERTEX
100
AcDbEntity
8
CUT
100
AcDbVertex
100
AcDb2dVertex
10
30.478084
20
21.510954
30
0
70
0
0
VERTEX
100
AcDbEntity
8
CUT
100
AcDbVertex
100
AcDb2dVertex
10
21.780943
20
33.810569
30
0
70
0
0
VERTEX
100
AcDbEntity
8
CUT
100
AcDbVertex
100
AcDb2dVertex
10
21.721206
20
33.924163
30
0
70
0
0
VERTEX
100
AcDbEntity
8
CUT
100
AcDbVertex
100
AcDb2dVertex
10
21.693015
20
34.049373
30
0
70
0
0
VERTEX
100
AcDbEntity
8
CUT
100
AcDbVertex
100
AcDb2dVertex
10
21.698304
20
34.177608
30
0
70
0
0
VERTEX
100
AcDbEntity
8
CUT
100
AcDbVertex
100
AcDb2dVertex
10
21.736711
20
34.300071
30
0
70
0
0
VERTEX
100
AcDbEntity
8
CUT
100
AcDbVertex
100
AcDb2dVertex
10
21.805601
20
34.408360
30
0
70
0
0
VERTEX
100
AcDbEntity
8
CUT
100
AcDbVertex
100
AcDb2dVertex
10
21.900174
20
34.494994
30
0
70
0
0
VERTEX
100
AcDbEntity
8
CUT
100
AcDbVertex
100
AcDb2dVertex
10
22.668843
20
34.898811
30
0
70
0
0
VERTEX
100
AcDbEntity
8
CUT
100
AcDbVertex
100
AcDb2dVertex
10
23.627775
20
35.371604
30
0
70
0
0
VERTEX
100
AcDbEntity
8
CUT
100
AcDbVertex
100
AcDb2dVertex
10
24.564453
20
35.809342
30
0
70
0
0
VERTEX
100
AcDbEntity
8
CUT
100
AcDbVertex
100
AcDb2dVertex
10
25.449264
20
36.200242
30
0
70
0
0
VERTEX
100
AcDbEntity
8
CUT
100
AcDbVertex
100
AcDb2dVertex
10
26.431733
20
36.611692
30
0
70
0
0
VERTEX
100
AcDbEntity
8
CUT
100
AcDbVertex
100
AcDb2dVertex
10
27.291302
20
36.948152
30
0
70
0
0
VERTEX
100
AcDbEntity
8
CUT
100
AcDbVertex
100
AcDb2dVertex
10
28.194237
20
37.280578
30
0
70
0
0
VERTEX
100
AcDbEntity
8
CUT
100
AcDbVertex
100
AcDb2dVertex
10
29.139346
20
37.605403
30
0
70
0
0
VERTEX
100
AcDbEntity
8
CUT
100
AcDbVertex
100
AcDb2dVertex
10
29.973853
20
37.870616
30
0
70
0
0
VERTEX
100
AcDbEntity
8
CUT
100
AcDbVertex
100
AcDb2dVertex
10
30.821538
20
38.121012
30
0
70
0
0
VERTEX
100
AcDbEntity
8
CUT
100
AcDbVertex
100
AcDb2dVertex
10
31.807088
20
38.388724
30
0
70
0
0
VERTEX
100
AcDbEntity
8
CUT
100
AcDbVertex
100
AcDb2dVertex
10
32.595650
20
38.582137
30
0
70
0
0
VERTEX
100
AcDbEntity
8
CUT
100
AcDbVertex
100
AcDb2dVertex
10
33.426859
20
38.768228
30
0
70
0
0
VERTEX
100
AcDbEntity
8
CUT
100
AcDbVertex
100
AcDb2dVertex
10
34.433349
20
38.969337
30
0
70
0
0
VERTEX
100
AcDbEntity
8
CUT
100
AcDbVertex
100
AcDb2dVertex
10
35.172732
20
39.098208
30
0
70
0
0
VERTEX
100
AcDbEntity
8
CUT
100
AcDbVertex
100
AcDb2dVertex
10
36.123266
20
39.239546
30
0
70
0
0
VERTEX
100
AcDbEntity
8
CUT
100
AcDbVertex
100
AcDb2dVertex
10
37.622107
20
39.411219
30
0
70
0
0
SEQEND
100
AcDbEntity
8
CUT
0
POLYLINE
100
AcDbEntity
8
CUT
100
AcDb2dPolyline
66
1
10
0
20
0
30
0
70
1
0
VERTEX
100
AcDbEntity
8
CUT
100
AcDbVertex
100
AcDb2dVertex
10
37.168068
20
51.728561
30
0
70
0
0
VERTEX
100
AcDbEntity
8
CUT
100
AcDbVertex
100
AcDb2dVertex
10
37.733492
20
50.376849
30
0
70
0
0
VERTEX
100
AcDbEntity
8
CUT
100
AcDbVertex
100
AcDb2dVertex
10
38.388108
20
48.490657
30
0
70
0
0
VERTEX
100
AcDbEntity
8
CUT
100
AcDbVertex
100
AcDb2dVertex
10
38.924445
20
46.439411
30
0
70
0
0
VERTEX
100
AcDbEntity
8
CUT
100
AcDbVertex
100
AcDb2dVertex
10
39.265592
20
44.482733
30
0
70
0
0
VERTEX
100
AcDbEntity
8
CUT
100
AcDbVertex
100
AcDb2dVertex
10
39.349487
20
43.786646
30
0
70
0
0
VERTEX
100
AcDbEntity
8
CUT
100
AcDbVertex
100
AcDb2dVertex
10
39.403310
20
43.021248
30
0
70
0
0
VERTEX
100
AcDbEntity
8
CUT
100
AcDbVertex
100
AcDb2dVertex
10
39.379685
20
42.834739
30
0
70
0
0
VERTEX
100
AcDbEntity
8
CUT
100
AcDbVertex
100
AcDb2dVertex
10
39.323409
20
42.718551
30
0
70
0
0
VERTEX
100
AcDbEntity
8
CUT
100
AcDbVertex
100
AcDb2dVertex
10
39.193910
20
42.585997
30
0
70
0
0
VERTEX
100
AcDbEntity
8
CUT
100
AcDbVertex
100
AcDb2dVertex
10
39.019438
20
42.509781
30
0
70
0
0
VERTEX
100
AcDbEntity
8
CUT
100
AcDbVertex
100
AcDb2dVertex
10
38.892070
20
42.498883
30
0
70
0
0
VERTEX
100
AcDbEntity
8
CUT
100
AcDbVertex
100
AcDb2dVertex
10
38.597214
20
42.512449
30
0
70
0
0
VERTEX
100
AcDbEntity
8
CUT
100
AcDbVertex
100
AcDb2dVertex
10
37.619198
20
42.589039
30
0
70
0
0
VERTEX
100
AcDbEntity
8
CUT
100
AcDbVertex
100
AcDb2dVertex
10
36.096851
20
42.763790
30
0
70
0
0
VERTEX
100
AcDbEntity
8
CUT
100
AcDbVertex
100
AcDb2dVertex
10
35.346506
20
42.873580
30
0
70
0
0
VERTEX
100
AcDbEntity
8
CUT
100
AcDbVertex
100
AcDb2dVertex
10
34.485062
20
43.021802
30
0
70
0
0
VERTEX
100
AcDbEntity
8
CUT
100
AcDbVertex
100
AcDb2dVertex
10
33.475124
20
43.221041
30
0
70
0
0
VERTEX
100
AcDbEntity
8
CUT
100
AcDbVertex
100
AcDb2dVertex
10
32.548876
20
43.429246
30
0
70
0
0
VERTEX
100
AcDbEntity
8
CUT
100
AcDbVertex
100
AcDb2dVertex
10
31.735387
20
43.630419
30
0
70
0
0
VERTEX
100
AcDbEntity
8
CUT
100
AcDbVertex
100
AcDb2dVertex
10
30.928696
20
43.849417
30
0
70
0
0
VERTEX
100
AcDbEntity
8
CUT
100
AcDbVertex
100
AcDb2dVertex
10
29.274707
20
44.351329
30
0
70
0
0
VERTEX
100
AcDbEntity
8
CUT
100
AcDbVertex
100
AcDb2dVertex
10
28.320268
20
44.674852
30
0
70
0
0
VERTEX
100
AcDbEntity
8
CUT
100
AcDbVertex
100
AcDb2dVertex
10
27.343421
20
45.031341
30
0
70
0
0
VERTEX
100
AcDbEntity
8
CUT
100
AcDbVertex
100
AcDb2dVertex
10
26.498020
20
45.362331
30
0
70
0
0
VERTEX
100
AcDbEntity
8
CUT
100
AcDbVertex
100
AcDb2dVertex
10
25.562321
20
45.750702
30
0
70
0
0
VERTEX
100
AcDbEntity
8
CUT
100
AcDbVertex
100
AcDb2dVertex
10
24.574907
20
46.185858
30
0
70
0
0
VERTEX
100
AcDbEntity
8
CUT
100
AcDbVertex
100
AcDb2dVertex
10
23.689394
20
46.599510
30
0
70
0
0
VERTEX
100
AcDbEntity
8
CUT
100
AcDbVertex
100
AcDb2dVertex
10
22.733270
20
47.069321
30
0
70
0
0
VERTEX
100
AcDbEntity
8
CUT
100
AcDbVertex
100
AcDb2dVertex
10
21.955932
20
47.471653
30
0
70
0
0
VERTEX
100
AcDbEntity
8
CUT
100
AcDbVertex
100
AcDb2dVertex
10
21.804434
20
47.593650
30
0
70
0
0
VERTEX
100
AcDbEntity
8
CUT
100
AcDbVertex
100
AcDb2dVertex
10
21.713503
20
47.760721
30
0
70
0
0
VERTEX
100
AcDbEntity
8
CUT
100
AcDbVertex
100
AcDb2dVertex
10
21.691639
20
47.886391
30
0
70
0
0
VERTEX
100
AcDbEntity
8
CUT
100
AcDbVertex
100
AcDb2dVertex
10
21.702970
20
48.013444
30
0
70
0
0
VERTEX
100
AcDbEntity
8
CUT
100
AcDbVertex
100
AcDb2dVertex
10
21.781131
20
48.189696
30
0
70
0
0
VERTEX
100
AcDbEntity
8
CUT
100
AcDbVertex
100
AcDb2dVertex
10
30.477924
20
60.488819
30
0
70
0
0
VERTEX
100
AcDbEntity
8
CUT
100
AcDbVertex
100
AcDb2dVertex
10
30.608934
20
60.615341
30
0
70
0
0
VERTEX
100
AcDbEntity
8
CUT
100
AcDbVertex
100
AcDb2dVertex
10
30.780763
20
60.686153
30
0
70
0
0
VERTEX
100
AcDbEntity
8
CUT
100
AcDbVertex
100
AcDb2dVertex
10
30.905182
20
60.695164
30
0
70
0
0
VERTEX
100
AcDbEntity
8
CUT
100
AcDbVertex
100
AcDb2dVertex
10
31.021740
20
60.674056
30
0
70
0
0
VERTEX
100
AcDbEntity
8
CUT
100
AcDbVertex
100
AcDb2dVertex
10
31.187687
20
60.585619
30
0
70
0
0
VERTEX
100
AcDbEntity
8
CUT
100
AcDbVertex
100
AcDb2dVertex
10
31.389290
20
60.377969
30
0
70
0
0
VERTEX
100
AcDbEntity
8
CUT
100
AcDbVertex
100
AcDb2dVertex
10
31.981307
20
59.718605
30
0
70
0
0
VERTEX
100
AcDbEntity
8
CUT
100
AcDbVertex
100
AcDb2dVertex
10
32.525191
20
59.083023
30
0
70
0
0
VERTEX
100
AcDbEntity
8
CUT
100
AcDbVertex
100
AcDb2dVertex
10
33.136766
20
58.335811
30
0
70
0
0
VERTEX
100
AcDbEntity
8
CUT
100
AcDbVertex
100
AcDb2dVertex
10
33.666682
20
57.650640
30
0
70
0
0
VERTEX
100
AcDbEntity
8
CUT
100
AcDbVertex
100
AcDb2dVertex
10
34.406292
20
56.617400
30
0
70
0
0
VERTEX
100
AcDbEntity
8
CUT
100
AcDbVertex
100
AcDb2dVertex
10
35.338318
20
55.184780
30
0
70
0
0
VERTEX
100
AcDbEntity
8
CUT
100
AcDbVertex
100
AcDb2dVertex
10
36.096043
20
53.878244
30
0
70
0
0
SEQEND
100
AcDbEntity
8
CUT
0
ENDSEC
0
EOF
