0
SECTION
2
HEADER
9
$ACADVER
1
AC1012
9
$INSUNITS
70
4
9
$MEASUREMENT
70
1
0
ENDSEC
0
SECTION
2
ENTITIES
0
POLYLINE
100
AcDbEntity
8
CUT
100
AcDb2dPolyline
66
1
10
0
20
0
30
0
70
1
0
VERTEX
100
AcDbEntity
8
CUT
100
AcDbVertex
100
AcDb2dVertex
10
45.281568
20
20.241558
30
0
70
0
0
VERTEX
100
AcDbEntity
8
CUT
100
AcDbVertex
100
AcDb2dVertex
10
45.345647
20
20.039393
30
0
70
0
0
VERTEX
100
AcDbEntity
8
CUT
100
AcDbVertex
100
AcDb2dVertex
10
45.340602
20
19.868174
30
0
70
0
0
VERTEX
100
AcDbEntity
8
CUT
100
AcDbVertex
100
AcDb2dVertex
10
45.262148
20
19.666462
30
0
70
0
0
VERTEX
100
AcDbEntity
8
CUT
100
AcDbVertex
100
AcDb2dVertex
10
45.118859
20
19.512494
30
0
70
0
0
VERTEX
100
AcDbEntity
8
CUT
100
AcDbVertex
100
AcDb2dVertex
10
41.329092
20
16.831972
30
0
70
0
0
VERTEX
100
AcDbEntity
8
CUT
100
AcDbVertex
100
AcDb2dVertex
10
41.191173
20
16.760387
30
0
70
0
0
VERTEX
100
AcDbEntity
8
CUT
100
AcDbVertex
100
AcDb2dVertex
10
41.043087
20
16.729060
30
0
70
0
0
VERTEX
100
AcDbEntity
8
CUT
100
AcDbVertex
100
AcDb2dVertex
10
40.957028
20
16.729048
30
0
70
0
0
VERTEX
100
AcDbEntity
8
CUT
100
AcDbVertex
100
AcDb2dVertex
10
40.824794
20
16.755914
30
0
70
0
0
VERTEX
100
AcDbEntity
8
CUT
100
AcDbVertex
100
AcDb2dVertex
10
40.670910
20
16.831970
30
0
70
0
0
VERTEX
100
AcDbEntity
8
CUT
100
AcDbVertex
100
AcDb2dVertex
10
36.890692
20
19.504987
30
0
70
0
0
VERTEX
100
AcDbEntity
8
CUT
100
AcDbVertex
100
AcDb2dVertex
10
36.780490
20
19.607179
30
0
70
0
0
VERTEX
100
AcDbEntity
8
CUT
100
AcDbVertex
100
AcDb2dVertex
10
36.701977
20
19.732170
30
0
70
0
0
VERTEX
100
AcDbEntity
8
CUT
100
AcDbVertex
100
AcDb2dVertex
10
36.650557
20
19.945325
30
0
70
0
0
VERTEX
100
AcDbEntity
8
CUT
100
AcDbVertex
100
AcDb2dVertex
10
36.685976
20
20.170002
30
0
70
0
0
VERTEX
100
AcDbEntity
8
CUT
100
AcDbVertex
100
AcDb2dVertex
10
37.341612
20
21.432076
30
0
70
0
0
VERTEX
100
AcDbEntity
8
CUT
100
AcDbVertex
100
AcDb2dVertex
10
37.830776
20
22.423789
30
0
70
0
0
VERTEX
100
AcDbEntity
8
CUT
100
AcDbVertex
100
AcDb2dVertex
10
38.275686
20
23.375982
30
0
70
0
0
VERTEX
100
AcDbEntity
8
CUT
100
AcDbVertex
100
AcDb2dVertex
10
38.718847
20
24.376683
30
0
70
0
0
VERTEX
100
AcDbEntity
8
CUT
100
AcDbVertex
100
AcDb2dVertex
10
39.124542
20
25.350867
30
0
70
0
0
VERTEX
100
AcDbEntity
8
CUT
100
AcDbVertex
100
AcDb2dVertex
10
39.494558
20
26.300018
30
0
70
0
0
VERTEX
100
AcDbEntity
8
CUT
100
AcDbVertex
100
AcDb2dVertex
10
39.841617
20
27.247593
30
0
70
0
0
VERTEX
100
AcDbEntity
8
CUT
100
AcDbVertex
100
AcDb2dVertex
10
40.154867
20
28.163580
30
0
70
0
0
VERTEX
100
AcDbEntity
8
CUT
100
AcDbVertex
100
AcDb2dVertex
10
40.482536
20
29.180281
30
0
70
0
0
VERTEX
100
AcDbEntity
8
CUT
100
AcDbVertex
100
AcDb2dVertex
10
40.574872
20
29.319663
30
0
70
0
0
VERTEX
100
AcDbEntity
8
CUT
100
AcDbVertex
100
AcDb2dVertex
10
40.673294
20
29.408291
30
0
70
0
0
VERTEX
100
AcDbEntity
8
CUT
100
AcDbVertex
100
AcDb2dVertex
10
40.749636
20
29.453091
30
0
70
0
0
VERTEX
100
AcDbEntity
8
CUT
100
AcDbVertex
100
AcDb2dVertex
10
40.816351
20
29.480817
30
0
70
0
0
VERTEX
100
AcDbEntity
8
CUT
100
AcDbVertex
100
AcDb2dVertex
10
40.957788
20
29.509653
30
0
70
0
0
VERTEX
100
AcDbEntity
8
CUT
100
AcDbVertex
100
AcDb2dVertex
10
41.042260
20
29.509648
30
0
70
0
0
VERTEX
100
AcDbEntity
8
CUT
100
AcDbVertex
100
AcDb2dVertex
10
41.187590
20
29.479519
30
0
70
0
0
VERTEX
100
AcDbEntity
8
CUT
100
AcDbVertex
100
AcDb2dVertex
10
41.320060
20
29.412860
30
0
70
0
0
VERTEX
100
AcDbEntity
8
CUT
100
AcDbVertex
100
AcDb2dVertex
10
41.385087
20
29.361177
30
0
70
0
0
VERTEX
100
AcDbEntity
8
CUT
100
AcDbVertex
100
AcDb2dVertex
10
41.438879
20
29.304901
30
0
70
0
0
VERTEX
100
AcDbEntity
8
CUT
100
AcDbVertex
100
AcDb2dVertex
10
41.517619
20
29.179951
30
0
70
0
0
VERTEX
100
AcDbEntity
8
CUT
100
AcDbVertex
100
AcDb2dVertex
10
41.844719
20
28.164788
30
0
70
0
0
VERTEX
100
AcDbEntity
8
CUT
100
AcDbVertex
100
AcDb2dVertex
10
42.158774
20
27.246443
30
0
70
0
0
VERTEX
100
AcDbEntity
8
CUT
100
AcDbVertex
100
AcDb2dVertex
10
42.505418
20
26.300082
30
0
70
0
0
VERTEX
100
AcDbEntity
8
CUT
100
AcDbVertex
100
AcDb2dVertex
10
42.879538
20
25.343541
30
0
70
0
0
VERTEX
100
AcDbEntity
8
CUT
100
AcDbVertex
100
AcDb2dVertex
10
43.293812
20
24.348617
30
0
70
0
0
VERTEX
100
AcDbEntity
8
CUT
100
AcDbVertex
100
AcDb2dVertex
10
43.702777
20
23.422127
30
0
70
0
0
VERTEX
100
AcDbEntity
8
CUT
100
AcDbVertex
100
AcDb2dVertex
10
44.169611
20
22.423004
30
0
70
0
0
VERTEX
100
AcDbEntity
8
CUT
100
AcDbVertex
100
AcDb2dVertex
10
44.658327
20
21.432200
30
0
70
0
0
SEQEND
100
AcDbEntity
8
CUT
0
POLYLINE
100
AcDbEntity
8
CUT
100
AcDb2dPolyline
66
1
10
0
20
0
30
0
70
1
0
VERTEX
100
AcDbEntity
8
CUT
100
AcDbVertex
100
AcDb2dVertex
10
36.718432
20
61.758442
30
0
70
0
0
VERTEX
100
AcDbEntity
8
CUT
100
AcDbVertex
100
AcDb2dVertex
10
36.654353
20
61.960607
30
0
70
0
0
VERTEX
100
AcDbEntity
8
CUT
100
AcDbVertex
100
AcDb2dVertex
10
36.659398
20
62.131826
30
0
70
0
0
VERTEX
100
AcDbEntity
8
CUT
100
AcDbVertex
100
AcDb2dVertex
10
36.737852
20
62.333538
30
0
70
0
0
VERTEX
100
AcDbEntity
8
CUT
100
AcDbVertex
100
AcDb2dVertex
10
36.881141
20
62.487506
30
0
70
0
0
VERTEX
100
AcDbEntity
8
CUT
100
AcDbVertex
100
AcDb2dVertex
10
40.670908
20
65.168028
30
0
70
0
0
VERTEX
100
AcDbEntity
8
CUT
100
AcDbVertex
100
AcDb2dVertex
10
40.808827
20
65.239613
30
0
70
0
0
VERTEX
100
AcDbEntity
8
CUT
100
AcDbVertex
100
AcDb2dVertex
10
40.956913
20
65.270940
30
0
70
0
0
VERTEX
100
AcDbEntity
8
CUT
100
AcDbVertex
100
AcDb2dVertex
10
41.042972
20
65.270952
30
0
70
0
0
VERTEX
100
AcDbEntity
8
CUT
100
AcDbVertex
100
AcDb2dVertex
10
41.175206
20
65.244086
30
0
70
0
0
VERTEX
100
AcDbEntity
8
CUT
100
AcDbVertex
100
AcDb2dVertex
10
41.329090
20
65.168030
30
0
70
0
0
VERTEX
100
AcDbEntity
8
CUT
100
AcDbVertex
100
AcDb2dVertex
10
45.109308
20
62.495013
30
0
70
0
0
VERTEX
100
AcDbEntity
8
CUT
100
AcDbVertex
100
AcDb2dVertex
10
45.219510
20
62.392821
30
0
70
0
0
VERTEX
100
AcDbEntity
8
CUT
100
AcDbVertex
100
AcDb2dVertex
10
45.298023
20
62.267830
30
0
70
0
0
VERTEX
100
AcDbEntity
8
CUT
100
AcDbVertex
100
AcDb2dVertex
10
45.349443
20
62.054675
30
0
70
0
0
VERTEX
100
AcDbEntity
8
CUT
100
AcDbVertex
100
AcDb2dVertex
10
45.314024
20
61.829998
30
0
70
0
0
VERTEX
100
AcDbEntity
8
CUT
100
AcDbVertex
100
AcDb2dVertex
10
44.658388
20
60.567924
30
0
70
0
0
VERTEX
100
AcDbEntity
8
CUT
100
AcDbVertex
100
AcDb2dVertex
10
44.169224
20
59.576211
30
0
70
0
0
VERTEX
100
AcDbEntity
8
CUT
100
AcDbVertex
100
AcDb2dVertex
10
43.724314
20
58.624018
30
0
70
0
0
VERTEX
100
AcDbEntity
8
CUT
100
AcDbVertex
100
AcDb2dVertex
10
43.281153
20
57.623317
30
0
70
0
0
VERTEX
100
AcDbEntity
8
CUT
100
AcDbVertex
100
AcDb2dVertex
10
42.875458
20
56.649133
30
0
70
0
0
VERTEX
100
AcDbEntity
8
CUT
100
AcDbVertex
100
AcDb2dVertex
10
42.505442
20
55.699982
30
0
70
0
0
VERTEX
100
AcDbEntity
8
CUT
100
AcDbVertex
100
AcDb2dVertex
10
42.158383
20
54.752407
30
0
70
0
0
VERTEX
100
AcDbEntity
8
CUT
100
AcDbVertex
100
AcDb2dVertex
10
41.845133
20
53.836420
30
0
70
0
0
VERTEX
100
AcDbEntity
8
CUT
100
AcDbVertex
100
AcDb2dVertex
10
41.517464
20
52.819719
30
0
70
0
0
VERTEX
100
AcDbEntity
8
CUT
100
AcDbVertex
100
AcDb2dVertex
10
41.425128
20
52.680337
30
0
70
0
0
VERTEX
100
AcDbEntity
8
CUT
100
AcDbVertex
100
AcDb2dVertex
10
41.326706
20
52.591709
30
0
70
0
0
VERTEX
100
AcDbEntity
8
CUT
100
AcDbVertex
100
AcDb2dVertex
10
41.250364
20
52.546909
30
0
70
0
0
VERTEX
100
AcDbEntity
8
CUT
100
AcDbVertex
100
AcDb2dVertex
10
41.183649
20
52.519183
30
0
70
0
0
VERTEX
100
AcDbEntity
8
CUT
100
AcDbVertex
100
AcDb2dVertex
10
41.042212
20
52.490347
30
0
70
0
0
VERTEX
100
AcDbEntity
8
CUT
100
AcDbVertex
100
AcDb2dVertex
10
40.957740
20
52.490352
30
0
70
0
0
VERTEX
100
AcDbEntity
8
CUT
100
AcDbVertex
100
AcDb2dVertex
10
40.812410
20
52.520481
30
0
70
0
0
VERTEX
100
AcDbEntity
8
CUT
100
AcDbVertex
100
AcDb2dVertex
10
40.679940
20
52.587140
30
0
70
0
0
VERTEX
100
AcDbEntity
8
CUT
100
AcDbVertex
100
AcDb2dVertex
10
40.614913
20
52.638823
30
0
70
0
0
VERTEX
100
AcDbEntity
8
CUT
100
AcDbVertex
100
AcDb2dVertex
10
40.561121
20
52.695099
30
0
70
0
0
VERTEX
100
AcDbEntity
8
CUT
100
AcDbVertex
100
AcDb2dVertex
10
40.482381
20
52.820049
30
0
70
0
0
VERTEX
100
AcDbEntity
8
CUT
100
AcDbVertex
100
AcDb2dVertex
10
40.155281
20
53.835212
30
0
70
0
0
VERTEX
100
AcDbEntity
8
CUT
100
AcDbVertex
100
AcDb2dVertex
10
39.841226
20
54.753557
30
0
70
0
0
VERTEX
100
AcDbEntity
8
CUT
100
AcDbVertex
100
AcDb2dVertex
10
39.494582
20
55.699918
30
0
70
0
0
VERTEX
100
AcDbEntity
8
CUT
100
AcDbVertex
100
AcDb2dVertex
10
39.120462
20
56.656459
30
0
70
0
0
VERTEX
100
AcDbEntity
8
CUT
100
AcDbVertex
100
AcDb2dVertex
10
38.706188
20
57.651383
30
0
70
0
0
VERTEX
100
AcDbEntity
8
CUT
100
AcDbVertex
100
AcDb2dVertex
10
38.297223
20
58.577873
30
0
70
0
0
VERTEX
100
AcDbEntity
8
CUT
100
AcDbVertex
100
AcDb2dVertex
10
37.830389
20
59.576996
30
0
70
0
0
VERTEX
100
AcDbEntity
8
CUT
100
AcDbVertex
100
AcDb2dVertex
10
37.341673
20
60.567800
30
0
70
0
0
SEQEND
100
AcDbEntity
8
CUT
0
POLYLINE
100
AcDbEntity
8
CUT
100
AcDb2dPolyline
66
1
10
0
20
0
30
0
70
1
0
VERTEX
100
AcDbEntity
8
CUT
100
AcDbVertex
100
AcDb2dVertex
10
18.968160
20
32.738915
30
0
70
0
0
VERTEX
100
AcDbEntity
8
CUT
100
AcDbVertex
100
AcDb2dVertex
10
18.835880
20
32.646231
30
0
70
0
0
VERTEX
100
AcDbEntity
8
CUT
100
AcDbVertex
100
AcDb2dVertex
10
18.698440
20
32.596901
30
0
70
0
0
VERTEX
100
AcDbEntity
8
CUT
100
AcDbVertex
100
AcDb2dVertex
10
18.619780
20
32.585682
30
0
70
0
0
VERTEX
100
AcDbEntity
8
CUT
100
AcDbVertex
100
AcDb2dVertex
10
18.534890
20
32.585479
30
0
70
0
0
VERTEX
100
AcDbEntity
8
CUT
100
AcDbVertex
100
AcDb2dVertex
10
18.397056
20
32.613765
30
0
70
0
0
VERTEX
100
AcDbEntity
8
CUT
100
AcDbVertex
100
AcDb2dVertex
10
18.248283
20
32.688409
30
0
70
0
0
VERTEX
100
AcDbEntity
8
CUT
100
AcDbVertex
100
AcDb2dVertex
10
7.150406
20
40.534601
30
0
70
0
0
VERTEX
100
AcDbEntity
8
CUT
100
AcDbVertex
100
AcDb2dVertex
10
7.043803
20
40.632467
30
0
70
0
0
VERTEX
100
AcDbEntity
8
CUT
100
AcDbVertex
100
AcDb2dVertex
10
6.972756
20
40.740704
30
0
70
0
0
VERTEX
100
AcDbEntity
8
CUT
100
AcDbVertex
100
AcDb2dVertex
10
6.910960
20
40.959546
30
0
70
0
0
VERTEX
100
AcDbEntity
8
CUT
100
AcDbVertex
100
AcDb2dVertex
10
6.919821
20
41.108200
30
0
70
0
0
VERTEX
100
AcDbEntity
8
CUT
100
AcDbVertex
100
AcDb2dVertex
10
6.965170
20
41.245798
30
0
70
0
0
VERTEX
100
AcDbEntity
8
CUT
100
AcDbVertex
100
AcDb2dVertex
10
7.043706
20
41.367474
30
0
70
0
0
VERTEX
100
AcDbEntity
8
CUT
100
AcDbVertex
100
AcDb2dVertex
10
7.150373
20
41.465431
30
0
70
0
0
VERTEX
100
AcDbEntity
8
CUT
100
AcDbVertex
100
AcDb2dVertex
10
18.247493
20
49.312280
30
0
70
0
0
VERTEX
100
AcDbEntity
8
CUT
100
AcDbVertex
100
AcDb2dVertex
10
18.385812
20
49.384005
30
0
70
0
0
VERTEX
100
AcDbEntity
8
CUT
100
AcDbVertex
100
AcDb2dVertex
10
18.538706
20
49.415617
30
0
70
0
0
VERTEX
100
AcDbEntity
8
CUT
100
AcDbVertex
100
AcDb2dVertex
10
18.709756
20
49.400172
30
0
70
0
0
VERTEX
100
AcDbEntity
8
CUT
100
AcDbVertex
100
AcDb2dVertex
10
18.836858
20
49.353923
30
0
70
0
0
VERTEX
100
AcDbEntity
8
CUT
100
AcDbVertex
100
AcDb2dVertex
10
18.910131
20
49.309036
30
0
70
0
0
VERTEX
100
AcDbEntity
8
CUT
100
AcDbVertex
100
AcDb2dVertex
10
19.617632
20
48.649620
30
0
70
0
0
VERTEX
100
AcDbEntity
8
CUT
100
AcDbVertex
100
AcDb2dVertex
10
20.315511
20
48.023118
30
0
70
0
0
VERTEX
100
AcDbEntity
8
CUT
100
AcDbVertex
100
AcDb2dVertex
10
21.026032
20
47.415080
30
0
70
0
0
VERTEX
100
AcDbEntity
8
CUT
100
AcDbVertex
100
AcDb2dVertex
10
21.660559
20
46.898132
30
0
70
0
0
VERTEX
100
AcDbEntity
8
CUT
100
AcDbVertex
100
AcDb2dVertex
10
22.393803
20
46.326659
30
0
70
0
0
VERTEX
100
AcDbEntity
8
CUT
100
AcDbVertex
100
AcDb2dVertex
10
23.269878
20
45.681849
30
0
70
0
0
VERTEX
100
AcDbEntity
8
CUT
100
AcDbVertex
100
AcDb2dVertex
10
24.203283
20
45.033670
30
0
70
0
0
VERTEX
100
AcDbEntity
8
CUT
100
AcDbVertex
100
AcDb2dVertex
10
25.430546
20
44.243708
30
0
70
0
0
VERTEX
100
AcDbEntity
8
CUT
100
AcDbVertex
100
AcDb2dVertex
10
26.150612
20
43.814614
30
0
70
0
0
VERTEX
100
AcDbEntity
8
CUT
100
AcDbVertex
100
AcDb2dVertex
10
27.642731
20
43.000432
30
0
70
0
0
VERTEX
100
AcDbEntity
8
CUT
100
AcDbVertex
100
AcDb2dVertex
10
28.360791
20
42.644546
30
0
70
0
0
VERTEX
100
AcDbEntity
8
CUT
100
AcDbVertex
100
AcDb2dVertex
10
29.133138
20
42.285467
30
0
70
0
0
VERTEX
100
AcDbEntity
8
CUT
100
AcDbVertex
100
AcDb2dVertex
10
29.848060
20
41.976252
30
0
70
0
0
VERTEX
100
AcDbEntity
8
CUT
100
AcDbVertex
100
AcDb2dVertex
10
31.045728
20
41.502159
30
0
70
0
0
VERTEX
100
AcDbEntity
8
CUT
100
AcDbVertex
100
AcDb2dVertex
10
31.164297
20
41.418307
30
0
70
0
0
VERTEX
100
AcDbEntity
8
CUT
100
AcDbVertex
100
AcDb2dVertex
10
31.258447
20
41.306244
30
0
70
0
0
VERTEX
100
AcDbEntity
8
CUT
100
AcDbVertex
100
AcDb2dVertex
10
31.320960
20
41.173886
30
0
70
0
0
VERTEX
100
AcDbEntity
8
CUT
100
AcDbVertex
100
AcDb2dVertex
10
31.347703
20
41.029971
30
0
70
0
0
VERTEX
100
AcDbEntity
8
CUT
100
AcDbVertex
100
AcDb2dVertex
10
31.336901
20
40.883934
30
0
70
0
0
VERTEX
100
AcDbEntity
8
CUT
100
AcDbVertex
100
AcDb2dVertex
10
31.287501
20
40.742088
30
0
70
0
0
VERTEX
100
AcDbEntity
8
CUT
100
AcDbVertex
100
AcDb2dVertex
10
31.159239
20
40.574473
30
0
70
0
0
VERTEX
100
AcDbEntity
8
CUT
100
AcDbVertex
100
AcDb2dVertex
10
31.037351
20
40.490808
30
0
70
0
0
VERTEX
100
AcDbEntity
8
CUT
100
AcDbVertex
100
AcDb2dVertex
10
29.683472
20
39.952793
30
0
70
0
0
VERTEX
100
AcDbEntity
8
CUT
100
AcDbVertex
100
AcDb2dVertex
10
28.403410
20
39.376491
30
0
70
0
0
VERTEX
100
AcDbEntity
8
CUT
100
AcDbVertex
100
AcDb2dVertex
10
27.623474
20
38.989276
30
0
70
0
0
VERTEX
100
AcDbEntity
8
CUT
100
AcDbVertex
100
AcDb2dVertex
10
26.878023
20
38.594564
30
0
70
0
0
VERTEX
100
AcDbEntity
8
CUT
100
AcDbVertex
100
AcDb2dVertex
10
26.152053
20
38.186247
30
0
70
0
0
VERTEX
100
AcDbEntity
8
CUT
100
AcDbVertex
100
AcDb2dVertex
10
25.438867
20
37.761532
30
0
70
0
0
VERTEX
100
AcDbEntity
8
CUT
100
AcDbVertex
100
AcDb2dVertex
10
24.728078
20
37.313968
30
0
70
0
0
VERTEX
100
AcDbEntity
8
CUT
100
AcDbVertex
100
AcDb2dVertex
10
24.194880
20
36.960847
30
0
70
0
0
VERTEX
100
AcDbEntity
8
CUT
100
AcDbVertex
100
AcDb2dVertex
10
23.306611
20
36.345195
30
0
70
0
0
VERTEX
100
AcDbEntity
8
CUT
100
AcDbVertex
100
AcDb2dVertex
10
22.398265
20
35.676555
30
0
70
0
0
VERTEX
100
AcDbEntity
8
CUT
100
AcDbVertex
100
AcDb2dVertex
10
21.739802
20
35.166491
30
0
70
0
0
VERTEX
100
AcDbEntity
8
CUT
100
AcDbVertex
100
AcDb2dVertex
10
21.026023
20
34.584913
30
0
70
0
0
VERTEX
100
AcDbEntity
8
CUT
100
AcDbVertex
100
AcDb2dVertex
10
20.328724
20
33.988496
30
0
70
0
0
VERTEX
100
AcDbEntity
8
CUT
100
AcDbVertex
100
AcDb2dVertex
10
19.617826
20
33.350554
30
0
70
0
0
SEQEND
100
AcDbEntity
8
CUT
0
POLYLINE
100
AcDbEntity
8
CUT
100
AcDb2dPolyline
66
1
10
0
20
0
30
0
70
1
0
VERTEX
100
AcDbEntity
8
CUT
100
AcDbVertex
100
AcDb2dVertex
10
63.031840
20
49.261085
30
0
70
0
0
VERTEX
100
AcDbEntity
8
CUT
100
AcDbVertex
100
AcDb2dVertex
10
63.164120
20
49.353769
30
0
70
0
0
VERTEX
100
AcDbEntity
8
CUT
100
AcDbVertex
100
AcDb2dVertex
10
63.301560
20
49.403099
30
0
70
0
0
VERTEX
100
AcDbEntity
8
CUT
100
AcDbVertex
100
AcDb2dVertex
10
63.380220
20
49.414318
30
0
70
0
0
VERTEX
100
AcDbEntity
8
CUT
100
AcDbVertex
100
AcDb2dVertex
10
63.465110
20
49.414521
30
0
70
0
0
VERTEX
100
AcDbEntity
8
CUT
100
AcDbVertex
100
AcDb2dVertex
10
63.602944
20
49.386235
30
0
70
0
0
VERTEX
100
AcDbEntity
8
CUT
100
AcDbVertex
100
AcDb2dVertex
10
63.751717
20
49.311591
30
0
70
0
0
VERTEX
100
AcDbEntity
8
CUT
100
AcDbVertex
100
AcDb2dVertex
10
74.849594
20
41.465399
30
0
70
0
0
VERTEX
100
AcDbEntity
8
CUT
100
AcDbVertex
100
AcDb2dVertex
10
74.956197
20
41.367533
30
0
70
0
0
VERTEX
100
AcDbEntity
8
CUT
100
AcDbVertex
100
AcDb2dVertex
10
75.027244
20
41.259296
30
0
70
0
0
VERTEX
100
AcDbEntity
8
CUT
100
AcDbVertex
100
AcDb2dVertex
10
75.089040
20
41.040454
30
0
70
0
0
VERTEX
100
AcDbEntity
8
CUT
100
AcDbVertex
100
AcDb2dVertex
10
75.080179
20
40.891800
30
0
70
0
0
VERTEX
100
AcDbEntity
8
CUT
100
AcDbVertex
100
AcDb2dVertex
10
75.034830
20
40.754202
30
0
70
0
0
VERTEX
100
AcDbEntity
8
CUT
100
AcDbVertex
100
AcDb2dVertex
10
74.956294
20
40.632526
30
0
70
0
0
VERTEX
100
AcDbEntity
8
CUT
100
AcDbVertex
100
AcDb2dVertex
10
74.849627
20
40.534569
30
0
70
0
0
VERTEX
100
AcDbEntity
8
CUT
100
AcDbVertex
100
AcDb2dVertex
10
63.752507
20
32.687720
30
0
70
0
0
VERTEX
100
AcDbEntity
8
CUT
100
AcDbVertex
100
AcDb2dVertex
10
63.614188
20
32.615995
30
0
70
0
0
VERTEX
100
AcDbEntity
8
CUT
100
AcDbVertex
100
AcDb2dVertex
10
63.461294
20
32.584383
30
0
70
0
0
VERTEX
100
AcDbEntity
8
CUT
100
AcDbVertex
100
AcDb2dVertex
10
63.290244
20
32.599828
30
0
70
0
0
VERTEX
100
AcDbEntity
8
CUT
100
AcDbVertex
100
AcDb2dVertex
10
63.163142
20
32.646077
30
0
70
0
0
VERTEX
100
AcDbEntity
8
CUT
100
AcDbVertex
100
AcDb2dVertex
10
63.089869
20
32.690964
30
0
70
0
0
VERTEX
100
AcDbEntity
8
CUT
100
AcDbVertex
100
AcDb2dVertex
10
62.382368
20
33.350380
30
0
70
0
0
VERTEX
100
AcDbEntity
8
CUT
100
AcDbVertex
100
AcDb2dVertex
10
61.684489
20
33.976882
30
0
70
0
0
VERTEX
100
AcDbEntity
8
CUT
100
AcDbVertex
100
AcDb2dVertex
10
60.973968
20
34.584920
30
0
70
0
0
VERTEX
100
AcDbEntity
8
CUT
100
AcDbVertex
100
AcDb2dVertex
10
60.339441
20
35.101868
30
0
70
0
0
VERTEX
100
AcDbEntity
8
CUT
100
AcDbVertex
100
AcDb2dVertex
10
59.606197
20
35.673341
30
0
70
0
0
VERTEX
100
AcDbEntity
8
CUT
100
AcDbVertex
100
AcDb2dVertex
10
58.730122
20
36.318151
30
0
70
0
0
VERTEX
100
AcDbEntity
8
CUT
100
AcDbVertex
100
AcDb2dVertex
10
57.796717
20
36.966330
30
0
70
0
0
VERTEX
100
AcDbEntity
8
CUT
100
AcDbVertex
100
AcDb2dVertex
10
56.569454
20
37.756292
30
0
70
0
0
VERTEX
100
AcDbEntity
8
CUT
100
AcDbVertex
100
AcDb2dVertex
10
55.849388
20
38.185386
30
0
70
0
0
VERTEX
100
AcDbEntity
8
CUT
100
AcDbVertex
100
AcDb2dVertex
10
54.357269
20
38.999568
30
0
70
0
0
VERTEX
100
AcDbEntity
8
CUT
100
AcDbVertex
100
AcDb2dVertex
10
53.639209
20
39.355454
30
0
70
0
0
VERTEX
100
AcDbEntity
8
CUT
100
AcDbVertex
100
AcDb2dVertex
10
52.866862
20
39.714533
30
0
70
0
0
VERTEX
100
AcDbEntity
8
CUT
100
AcDbVertex
100
AcDb2dVertex
10
52.151940
20
40.023748
30
0
70
0
0
VERTEX
100
AcDbEntity
8
CUT
100
AcDbVertex
100
AcDb2dVertex
10
50.954272
20
40.497841
30
0
70
0
0
VERTEX
100
AcDbEntity
8
CUT
100
AcDbVertex
100
AcDb2dVertex
10
50.835703
20
40.581693
30
0
70
0
0
VERTEX
100
AcDbEntity
8
CUT
100
AcDbVertex
100
AcDb2dVertex
10
50.741553
20
40.693756
30
0
70
0
0
VERTEX
100
AcDbEntity
8
CUT
100
AcDbVertex
100
AcDb2dVertex
10
50.679040
20
40.826114
30
0
70
0
0
VERTEX
100
AcDbEntity
8
CUT
100
AcDbVertex
100
AcDb2dVertex
10
50.652297
20
40.970029
30
0
70
0
0
VERTEX
100
AcDbEntity
8
CUT
100
AcDbVertex
100
AcDb2dVertex
10
50.663099
20
41.116066
30
0
70
0
0
VERTEX
100
AcDbEntity
8
CUT
100
AcDbVertex
100
AcDb2dVertex
10
50.712499
20
41.257912
30
0
70
0
0
VERTEX
100
AcDbEntity
8
CUT
100
AcDbVertex
100
AcDb2dVertex
10
50.840761
20
41.425527
30
0
70
0
0
VERTEX
100
AcDbEntity
8
CUT
100
AcDbVertex
100
AcDb2dVertex
10
50.962649
20
41.509192
30
0
70
0
0
VERTEX
100
AcDbEntity
8
CUT
100
AcDbVertex
100
AcDb2dVertex
10
52.316528
20
42.047207
30
0
70
0
0
VERTEX
100
AcDbEntity
8
CUT
100
AcDbVertex
100
AcDb2dVertex
10
53.596590
20
42.623509
30
0
70
0
0
VERTEX
100
AcDbEntity
8
CUT
100
AcDbVertex
100
AcDb2dVertex
10
54.376526
20
43.010724
30
0
70
0
0
VERTEX
100
AcDbEntity
8
CUT
100
AcDbVertex
100
AcDb2dVertex
10
55.121977
20
43.405436
30
0
70
0
0
VERTEX
100
AcDbEntity
8
CUT
100
AcDbVertex
100
AcDb2dVertex
10
55.847947
20
43.813753
30
0
70
0
0
VERTEX
100
AcDbEntity
8
CUT
100
AcDbVertex
100
AcDb2dVertex
10
56.561133
20
44.238468
30
0
70
0
0
VERTEX
100
AcDbEntity
8
CUT
100
AcDbVertex
100
AcDb2dVertex
10
57.271922
20
44.686032
30
0
70
0
0
VERTEX
100
AcDbEntity
8
CUT
100
AcDbVertex
100
AcDb2dVertex
10
57.805120
20
45.039153
30
0
70
0
0
VERTEX
100
AcDbEntity
8
CUT
100
AcDbVertex
100
AcDb2dVertex
10
58.693389
20
45.654805
30
0
70
0
0
VERTEX
100
AcDbEntity
8
CUT
100
AcDbVertex
100
AcDb2dVertex
10
59.601735
20
46.323445
30
0
70
0
0
VERTEX
100
AcDbEntity
8
CUT
100
AcDbVertex
100
AcDb2dVertex
10
60.260198
20
46.833509
30
0
70
0
0
VERTEX
100
AcDbEntity
8
CUT
100
AcDbVertex
100
AcDb2dVertex
10
60.973977
20
47.415087
30
0
70
0
0
VERTEX
100
AcDbEntity
8
CUT
100
AcDbVertex
100
AcDb2dVertex
10
61.671276
20
48.011504
30
0
70
0
0
VERTEX
100
AcDbEntity
8
CUT
100
AcDbVertex
100
AcDb2dVertex
10
62.382174
20
48.649446
30
0
70
0
0
SEQEND
100
AcDbEntity
8
CUT
0
POLYLINE
100
AcDbEntity
8
CUT
100
AcDb2dPolyline
66
1
10
0
20
0
30
0
70
1
0
VERTEX
100
AcDbEntity
8
CUT
100
AcDbVertex
100
AcDb2dVertex
10
30.235737
20
37.239660
30
0
70
0
0
VERTEX
100
AcDbEntity
8
CUT
100
AcDbVertex
100
AcDb2dVertex
10
31.596921
20
37.809069
30
0
70
0
0
VERTEX
100
AcDbEntity
8
CUT
100
AcDbVertex
100
AcDb2dVertex
10
33.483113
20
38.463686
30
0
70
0
0
VERTEX
100
AcDbEntity
8
CUT
100
AcDbVertex
100
AcDb2dVertex
10
35.546848
20
39.003256
30
0
70
0
0
VERTEX
100
AcDbEntity
8
CUT
100
AcDbVertex
100
AcDb2dVertex
10
37.507694
20
39.345017
30
0
70
0
0
VERTEX
100
AcDbEntity
8
CUT
100
AcDbVertex
100
AcDb2dVertex
10
38.207743
20
39.429290
30
0
70
0
0
VERTEX
100
AcDbEntity
8
CUT
100
AcDbVertex
100
AcDb2dVertex
10
38.973141
20
39.483113
30
0
70
0
0
VERTEX
100
AcDbEntity
8
CUT
100
AcDbVertex
100
AcDb2dVertex
10
39.188024
20
39.456379
30
0
70
0
0
VERTEX
100
AcDbEntity
8
CUT
100
AcDbVertex
100
AcDb2dVertex
10
39.327435
20
39.388871
30
0
70
0
0
VERTEX
100
AcDbEntity
8
CUT
100
AcDbVertex
100
AcDb2dVertex
10
39.482609
20
39.235058
30
0
70
0
0
VERTEX
100
AcDbEntity
8
CUT
100
AcDbVertex
100
AcDb2dVertex
10
39.567760
20
39.039122
30
0
70
0
0
VERTEX
100
AcDbEntity
8
CUT
100
AcDbVertex
100
AcDb2dVertex
10
39.581032
20
38.888393
30
0
70
0
0
VERTEX
100
AcDbEntity
8
CUT
100
AcDbVertex
100
AcDb2dVertex
10
39.567466
20
38.593538
30
0
70
0
0
VERTEX
100
AcDbEntity
8
CUT
100
AcDbVertex
100
AcDb2dVertex
10
39.490439
20
37.610074
30
0
70
0
0
VERTEX
100
AcDbEntity
8
CUT
100
AcDbVertex
100
AcDb2dVertex
10
39.315367
20
36.085269
30
0
70
0
0
VERTEX
100
AcDbEntity
8
CUT
100
AcDbVertex
100
AcDb2dVertex
10
39.205261
20
35.332940
30
0
70
0
0
VERTEX
100
AcDbEntity
8
CUT
100
AcDbVertex
100
AcDb2dVertex
10
39.056685
20
34.469578
30
0
70
0
0
VERTEX
100
AcDbEntity
8
CUT
100
AcDbVertex
100
AcDb2dVertex
10
38.857012
20
33.457579
30
0
70
0
0
VERTEX
100
AcDbEntity
8
CUT
100
AcDbVertex
100
AcDb2dVertex
10
38.648807
20
32.531331
30
0
70
0
0
VERTEX
100
AcDbEntity
8
CUT
100
AcDbVertex
100
AcDb2dVertex
10
38.447242
20
31.716182
30
0
70
0
0
VERTEX
100
AcDbEntity
8
CUT
100
AcDbVertex
100
AcDb2dVertex
10
38.227136
20
30.905465
30
0
70
0
0
VERTEX
100
AcDbEntity
8
CUT
100
AcDbVertex
100
AcDb2dVertex
10
37.725224
20
29.251477
30
0
70
0
0
VERTEX
100
AcDbEntity
8
CUT
100
AcDbVertex
100
AcDb2dVertex
10
37.400300
20
28.292842
30
0
70
0
0
VERTEX
100
AcDbEntity
8
CUT
100
AcDbVertex
100
AcDb2dVertex
10
37.043153
20
27.314255
30
0
70
0
0
VERTEX
100
AcDbEntity
8
CUT
100
AcDbVertex
100
AcDb2dVertex
10
36.711557
20
26.467352
30
0
70
0
0
VERTEX
100
AcDbEntity
8
CUT
100
AcDbVertex
100
AcDb2dVertex
10
36.323186
20
25.531653
30
0
70
0
0
VERTEX
100
AcDbEntity
8
CUT
100
AcDbVertex
100
AcDb2dVertex
10
35.886624
20
24.541048
30
0
70
0
0
VERTEX
100
AcDbEntity
8
CUT
100
AcDbVertex
100
AcDb2dVertex
10
35.472290
20
23.654113
30
0
70
0
0
VERTEX
100
AcDbEntity
8
CUT
100
AcDbVertex
100
AcDb2dVertex
10
35.002479
20
22.697989
30
0
70
0
0
VERTEX
100
AcDbEntity
8
CUT
100
AcDbVertex
100
AcDb2dVertex
10
34.599395
20
21.919160
30
0
70
0
0
VERTEX
100
AcDbEntity
8
CUT
100
AcDbVertex
100
AcDb2dVertex
10
34.453475
20
21.739788
30
0
70
0
0
VERTEX
100
AcDbEntity
8
CUT
100
AcDbVertex
100
AcDb2dVertex
10
34.252991
20
21.634687
30
0
70
0
0
VERTEX
100
AcDbEntity
8
CUT
100
AcDbVertex
100
AcDb2dVertex
10
34.116940
20
21.611708
30
0
70
0
0
VERTEX
100
AcDbEntity
8
CUT
100
AcDbVertex
100
AcDb2dVertex
10
33.970785
20
21.624540
30
0
70
0
0
VERTEX
100
AcDbEntity
8
CUT
100
AcDbVertex
100
AcDb2dVertex
10
33.764116
20
21.715811
30
0
70
0
0
VERTEX
100
AcDbEntity
8
CUT
100
AcDbVertex
100
AcDb2dVertex
10
21.464993
20
30.412604
30
0
70
0
0
VERTEX
100
AcDbEntity
8
CUT
100
AcDbVertex
100
AcDb2dVertex
10
21.320600
20
30.561012
30
0
70
0
0
VERTEX
100
AcDbEntity
8
CUT
100
AcDbVertex
100
AcDb2dVertex
10
21.235983
20
30.762400
30
0
70
0
0
VERTEX
100
AcDbEntity
8
CUT
100
AcDbVertex
100
AcDb2dVertex
10
21.224951
20
30.909454
30
0
70
0
0
VERTEX
100
AcDbEntity
8
CUT
100
AcDbVertex
100
AcDb2dVertex
10
21.255343
20
31.059365
30
0
70
0
0
VERTEX
100
AcDbEntity
8
CUT
100
AcDbVertex
100
AcDb2dVertex
10
21.350449
20
31.235777
30
0
70
0
0
VERTEX
100
AcDbEntity
8
CUT
100
AcDbVertex
100
AcDb2dVertex
10
21.566304
20
31.446688
30
0
70
0
0
VERTEX
100
AcDbEntity
8
CUT
100
AcDbVertex
100
AcDb2dVertex
10
22.227948
20
32.040834
30
0
70
0
0
VERTEX
100
AcDbEntity
8
CUT
100
AcDbVertex
100
AcDb2dVertex
10
22.866307
20
32.587099
30
0
70
0
0
VERTEX
100
AcDbEntity
8
CUT
100
AcDbVertex
100
AcDb2dVertex
10
23.613519
20
33.198674
30
0
70
0
0
VERTEX
100
AcDbEntity
8
CUT
100
AcDbVertex
100
AcDb2dVertex
10
24.302795
20
33.731733
30
0
70
0
0
VERTEX
100
AcDbEntity
8
CUT
100
AcDbVertex
100
AcDb2dVertex
10
25.338974
20
34.473350
30
0
70
0
0
VERTEX
100
AcDbEntity
8
CUT
100
AcDbVertex
100
AcDb2dVertex
10
26.775086
20
35.407522
30
0
70
0
0
VERTEX
100
AcDbEntity
8
CUT
100
AcDbVertex
100
AcDb2dVertex
10
28.086054
20
36.167635
30
0
70
0
0
SEQEND
100
AcDbEntity
8
CUT
0
POLYLINE
100
AcDbEntity
8
CUT
100
AcDb2dPolyline
66
1
10
0
20
0
30
0
70
1
0
VERTEX
100
AcDbEntity
8
CUT
100
AcDbVertex
100
AcDb2dVertex
10
42.415814
20
38.882430
30
0
70
0
0
VERTEX
100
AcDbEntity
8
CUT
100
AcDbVertex
100
AcDb2dVertex
10
42.447710
20
39.107601
30
0
70
0
0
VERTEX
100
AcDbEntity
8
CUT
100
AcDbVertex
100
AcDb2dVertex
10
42.562077
20
39.299338
30
0
70
0
0
VERTEX
100
AcDbEntity
8
CUT
100
AcDbVertex
100
AcDb2dVertex
10
42.741448
20
39.432456
30
0
70
0
0
VERTEX
100
AcDbEntity
8
CUT
100
AcDbVertex
100
AcDb2dVertex
10
42.956029
20
39.486481
30
0
70
0
0
VERTEX
100
AcDbEntity
8
CUT
100
AcDbVertex
100
AcDb2dVertex
10
43.990220
20
39.405700
30
0
70
0
0
VERTEX
100
AcDbEntity
8
CUT
100
AcDbVertex
100
AcDb2dVertex
10
46.051316
20
39.084673
30
0
70
0
0
VERTEX
100
AcDbEntity
8
CUT
100
AcDbVertex
100
AcDb2dVertex
10
47.744877
20
38.687559
30
0
70
0
0
VERTEX
100
AcDbEntity
8
CUT
100
AcDbVertex
100
AcDb2dVertex
10
49.587137
20
38.110574
30
0
70
0
0
VERTEX
100
AcDbEntity
8
CUT
100
AcDbVertex
100
AcDb2dVertex
10
49.812829
20
38.029683
30
0
70
0
0
VERTEX
100
AcDbEntity
8
CUT
100
AcDbVertex
100
AcDb2dVertex
10
51.764141
20
37.239721
30
0
70
0
0
VERTEX
100
AcDbEntity
8
CUT
100
AcDbVertex
100
AcDb2dVertex
10
53.859373
20
36.197577
30
0
70
0
0
VERTEX
100
AcDbEntity
8
CUT
100
AcDbVertex
100
AcDb2dVertex
10
55.754031
20
35.075418
30
0
70
0
0
VERTEX
100
AcDbEntity
8
CUT
100
AcDbVertex
100
AcDb2dVertex
10
57.212623
20
34.088019
30
0
70
0
0
VERTEX
100
AcDbEntity
8
CUT
100
AcDbVertex
100
AcDb2dVertex
10
58.384059
20
33.200548
30
0
70
0
0
VERTEX
100
AcDbEntity
8
CUT
100
AcDbVertex
100
AcDb2dVertex
10
58.981799
20
32.712699
30
0
70
0
0
VERTEX
100
AcDbEntity
8
CUT
100
AcDbVertex
100
AcDb2dVertex
10
59.750405
20
32.059399
30
0
70
0
0
VERTEX
100
AcDbEntity
8
CUT
100
AcDbVertex
100
AcDb2dVertex
10
60.595237
20
31.294683
30
0
70
0
0
VERTEX
100
AcDbEntity
8
CUT
100
AcDbVertex
100
AcDb2dVertex
10
60.721168
20
31.122288
30
0
70
0
0
VERTEX
100
AcDbEntity
8
CUT
100
AcDbVertex
100
AcDb2dVertex
10
60.767268
20
30.978097
30
0
70
0
0
VERTEX
100
AcDbEntity
8
CUT
100
AcDbVertex
100
AcDb2dVertex
10
60.765866
20
30.770666
30
0
70
0
0
VERTEX
100
AcDbEntity
8
CUT
100
AcDbVertex
100
AcDb2dVertex
10
60.719562
20
30.630574
30
0
70
0
0
VERTEX
100
AcDbEntity
8
CUT
100
AcDbVertex
100
AcDb2dVertex
10
60.641229
20
30.509927
30
0
70
0
0
VERTEX
100
AcDbEntity
8
CUT
100
AcDbVertex
100
AcDb2dVertex
10
60.535234
20
30.412764
30
0
70
0
0
VERTEX
100
AcDbEntity
8
CUT
100
AcDbVertex
100
AcDb2dVertex
10
48.235619
20
21.715624
30
0
70
0
0
VERTEX
100
AcDbEntity
8
CUT
100
AcDbVertex
100
AcDb2dVertex
10
48.103479
20
21.646133
30
0
70
0
0
VERTEX
100
AcDbEntity
8
CUT
100
AcDbVertex
100
AcDb2dVertex
10
47.957826
20
21.613340
30
0
70
0
0
VERTEX
100
AcDbEntity
8
CUT
100
AcDbVertex
100
AcDb2dVertex
10
47.808655
20
21.619493
30
0
70
0
0
VERTEX
100
AcDbEntity
8
CUT
100
AcDbVertex
100
AcDb2dVertex
10
47.666198
20
21.664170
30
0
70
0
0
VERTEX
100
AcDbEntity
8
CUT
100
AcDbVertex
100
AcDb2dVertex
10
47.540232
20
21.744305
30
0
70
0
0
VERTEX
100
AcDbEntity
8
CUT
100
AcDbVertex
100
AcDb2dVertex
10
47.439556
20
21.854169
30
0
70
0
0
VERTEX
100
AcDbEntity
8
CUT
100
AcDbVertex
100
AcDb2dVertex
10
47.030367
20
22.631637
30
0
70
0
0
VERTEX
100
AcDbEntity
8
CUT
100
AcDbVertex
100
AcDb2dVertex
10
46.555919
20
23.593905
30
0
70
0
0
VERTEX
100
AcDbEntity
8
CUT
100
AcDbVertex
100
AcDb2dVertex
10
46.118182
20
24.530583
30
0
70
0
0
VERTEX
100
AcDbEntity
8
CUT
100
AcDbVertex
100
AcDb2dVertex
10
45.726581
20
25.416935
30
0
70
0
0
VERTEX
100
AcDbEntity
8
CUT
100
AcDbVertex
100
AcDb2dVertex
10
45.314517
20
26.400830
30
0
70
0
0
VERTEX
100
AcDbEntity
8
CUT
100
AcDbVertex
100
AcDb2dVertex
10
44.976774
20
27.263663
30
0
70
0
0
VERTEX
100
AcDbEntity
8
CUT
100
AcDbVertex
100
AcDb2dVertex
10
44.643765
20
28.168235
30
0
70
0
0
VERTEX
100
AcDbEntity
8
CUT
100
AcDbVertex
100
AcDb2dVertex
10
44.318940
20
29.113344
30
0
70
0
0
VERTEX
100
AcDbEntity
8
CUT
100
AcDbVertex
100
AcDb2dVertex
10
44.052662
20
29.951190
30
0
70
0
0
VERTEX
100
AcDbEntity
8
CUT
100
AcDbVertex
100
AcDb2dVertex
10
43.801786
20
30.800566
30
0
70
0
0
VERTEX
100
AcDbEntity
8
CUT
100
AcDbVertex
100
AcDb2dVertex
10
43.533579
20
31.788031
30
0
70
0
0
VERTEX
100
AcDbEntity
8
CUT
100
AcDbVertex
100
AcDb2dVertex
10
43.339796
20
32.578172
30
0
70
0
0
VERTEX
100
AcDbEntity
8
CUT
100
AcDbVertex
100
AcDb2dVertex
10
43.153704
20
33.409382
30
0
70
0
0
VERTEX
100
AcDbEntity
8
CUT
100
AcDbVertex
100
AcDb2dVertex
10
42.951851
20
34.419612
30
0
70
0
0
VERTEX
100
AcDbEntity
8
CUT
100
AcDbVertex
100
AcDb2dVertex
10
42.822662
20
35.160965
30
0
70
0
0
VERTEX
100
AcDbEntity
8
CUT
100
AcDbVertex
100
AcDb2dVertex
10
42.680974
20
36.114163
30
0
70
0
0
VERTEX
100
AcDbEntity
8
CUT
100
AcDbVertex
100
AcDb2dVertex
10
42.509301
20
37.613003
30
0
70
0
0
SEQEND
100
AcDbEntity
8
CUT
0
POLYLINE
100
AcDbEntity
8
CUT
100
AcDb2dPolyline
66
1
10
0
20
0
30
0
70
1
0
VERTEX
100
AcDbEntity
8
CUT
100
AcDbVertex
100
AcDb2dVertex
10
39.584186
20
43.117570
30
0
70
0
0
VERTEX
100
AcDbEntity
8
CUT
100
AcDbVertex
100
AcDb2dVertex
10
39.552290
20
42.892399
30
0
70
0
0
VERTEX
100
AcDbEntity
8
CUT
100
AcDbVertex
100
AcDb2dVertex
10
39.437923
20
42.700662
30
0
70
0
0
VERTEX
100
AcDbEntity
8
CUT
100
AcDbVertex
100
AcDb2dVertex
10
39.258552
20
42.567544
30
0
70
0
0
VERTEX
100
AcDbEntity
8
CUT
100
AcDbVertex
100
AcDb2dVertex
10
39.043971
20
42.513519
30
0
70
0
0
VERTEX
100
AcDbEntity
8
CUT
100
AcDbVertex
100
AcDb2dVertex
10
38.009780
20
42.594300
30
0
70
0
0
VERTEX
100
AcDbEntity
8
CUT
100
AcDbVertex
100
AcDb2dVertex
10
35.948684
20
42.915327
30
0
70
0
0
VERTEX
100
AcDbEntity
8
CUT
100
AcDbVertex
100
AcDb2dVertex
10
34.255123
20
43.312441
30
0
70
0
0
VERTEX
100
AcDbEntity
8
CUT
100
AcDbVertex
100
AcDb2dVertex
10
32.412863
20
43.889426
30
0
70
0
0
VERTEX
100
AcDbEntity
8
CUT
100
AcDbVertex
100
AcDb2dVertex
10
32.187171
20
43.970317
30
0
70
0
0
VERTEX
100
AcDbEntity
8
CUT
100
AcDbVertex
100
AcDb2dVertex
10
30.235859
20
44.760279
30
0
70
0
0
VERTEX
100
AcDbEntity
8
CUT
100
AcDbVertex
100
AcDb2dVertex
10
28.140627
20
45.802423
30
0
70
0
0
VERTEX
100
AcDbEntity
8
CUT
100
AcDbVertex
100
AcDb2dVertex
10
26.245969
20
46.924582
30
0
70
0
0
VERTEX
100
AcDbEntity
8
CUT
100
AcDbVertex
100
AcDb2dVertex
10
24.787377
20
47.911981
30
0
70
0
0
VERTEX
100
AcDbEntity
8
CUT
100
AcDbVertex
100
AcDb2dVertex
10
23.615941
20
48.799452
30
0
70
0
0
VERTEX
100
AcDbEntity
8
CUT
100
AcDbVertex
100
AcDb2dVertex
10
23.018201
20
49.287301
30
0
70
0
0
VERTEX
100
AcDbEntity
8
CUT
100
AcDbVertex
100
AcDb2dVertex
10
22.249595
20
49.940601
30
0
70
0
0
VERTEX
100
AcDbEntity
8
CUT
100
AcDbVertex
100
AcDb2dVertex
10
21.404763
20
50.705317
30
0
70
0
0
VERTEX
100
AcDbEntity
8
CUT
100
AcDbVertex
100
AcDb2dVertex
10
21.278832
20
50.877712
30
0
70
0
0
VERTEX
100
AcDbEntity
8
CUT
100
AcDbVertex
100
AcDb2dVertex
10
21.232732
20
51.021903
30
0
70
0
0
VERTEX
100
AcDbEntity
8
CUT
100
AcDbVertex
100
AcDb2dVertex
10
21.234134
20
51.229334
30
0
70
0
0
VERTEX
100
AcDbEntity
8
CUT
100
AcDbVertex
100
AcDb2dVertex
10
21.280438
20
51.369426
30
0
70
0
0
VERTEX
100
AcDbEntity
8
CUT
100
AcDbVertex
100
AcDb2dVertex
10
21.358771
20
51.490073
30
0
70
0
0
VERTEX
100
AcDbEntity
8
CUT
100
AcDbVertex
100
AcDb2dVertex
10
21.464766
20
51.587236
30
0
70
0
0
VERTEX
100
AcDbEntity
8
CUT
100
AcDbVertex
100
AcDb2dVertex
10
33.764381
20
60.284376
30
0
70
0
0
VERTEX
100
AcDbEntity
8
CUT
100
AcDbVertex
100
AcDb2dVertex
10
33.896521
20
60.353867
30
0
70
0
0
VERTEX
100
AcDbEntity
8
CUT
100
AcDbVertex
100
AcDb2dVertex
10
34.042174
20
60.386660
30
0
70
0
0
VERTEX
100
AcDbEntity
8
CUT
100
AcDbVertex
100
AcDb2dVertex
10
34.191345
20
60.380507
30
0
70
0
0
VERTEX
100
AcDbEntity
8
CUT
100
AcDbVertex
100
AcDb2dVertex
10
34.333802
20
60.335830
30
0
70
0
0
VERTEX
100
AcDbEntity
8
CUT
100
AcDbVertex
100
AcDb2dVertex
10
34.459768
20
60.255695
30
0
70
0
0
VERTEX
100
AcDbEntity
8
CUT
100
AcDbVertex
100
AcDb2dVertex
10
34.560444
20
60.145831
30
0
70
0
0
VERTEX
100
AcDbEntity
8
CUT
100
AcDbVertex
100
AcDb2dVertex
10
34.969633
20
59.368363
30
0
70
0
0
VERTEX
100
AcDbEntity
8
CUT
100
AcDbVertex
100
AcDb2dVertex
10
35.444081
20
58.406095
30
0
70
0
0
VERTEX
100
AcDbEntity
8
CUT
100
AcDbVertex
100
AcDb2dVertex
10
35.881818
20
57.469417
30
0
70
0
0
VERTEX
100
AcDbEntity
8
CUT
100
AcDbVertex
100
AcDb2dVertex
10
36.273419
20
56.583065
30
0
70
0
0
VERTEX
100
AcDbEntity
8
CUT
100
AcDbVertex
100
AcDb2dVertex
10
36.685483
20
55.599170
30
0
70
0
0
VERTEX
100
AcDbEntity
8
CUT
100
AcDbVertex
100
AcDb2dVertex
10
37.023226
20
54.736337
30
0
70
0
0
VERTEX
100
AcDbEntity
8
CUT
100
AcDbVertex
100
AcDb2dVertex
10
37.356235
20
53.831765
30
0
70
0
0
VERTEX
100
AcDbEntity
8
CUT
100
AcDbVertex
100
AcDb2dVertex
10
37.681060
20
52.886656
30
0
70
0
0
VERTEX
100
AcDbEntity
8
CUT
100
AcDbVertex
100
AcDb2dVertex
10
37.947338
20
52.048810
30
0
70
0
0
VERTEX
100
AcDbEntity
8
CUT
100
AcDbVertex
100
AcDb2dVertex
10
38.198214
20
51.199434
30
0
70
0
0
VERTEX
100
AcDbEntity
8
CUT
100
AcDbVertex
100
AcDb2dVertex
10
38.466421
20
50.211969
30
0
70
0
0
VERTEX
100
AcDbEntity
8
CUT
100
AcDbVertex
100
AcDb2dVertex
10
38.660204
20
49.421828
30
0
70
0
0
VERTEX
100
AcDbEntity
8
CUT
100
AcDbVertex
100
AcDb2dVertex
10
38.846296
20
48.590618
30
0
70
0
0
VERTEX
100
AcDbEntity
8
CUT
100
AcDbVertex
100
AcDb2dVertex
10
39.048149
20
47.580388
30
0
70
0
0
VERTEX
100
AcDbEntity
8
CUT
100
AcDbVertex
100
AcDb2dVertex
10
39.177338
20
46.839035
30
0
70
0
0
VERTEX
100
AcDbEntity
8
CUT
100
AcDbVertex
100
AcDb2dVertex
10
39.319026
20
45.885837
30
0
70
0
0
VERTEX
100
AcDbEntity
8
CUT
100
AcDbVertex
100
AcDb2dVertex
10
39.490699
20
44.386997
30
0
70
0
0
SEQEND
100
AcDbEntity
8
CUT
0
POLYLINE
100
AcDbEntity
8
CUT
100
AcDb2dPolyline
66
1
10
0
20
0
30
0
70
1
0
VERTEX
100
AcDbEntity
8
CUT
100
AcDbVertex
100
AcDb2dVertex
10
51.764263
20
44.760340
30
0
70
0
0
VERTEX
100
AcDbEntity
8
CUT
100
AcDbVertex
100
AcDb2dVertex
10
50.403079
20
44.190931
30
0
70
0
0
VERTEX
100
AcDbEntity
8
CUT
100
AcDbVertex
100
AcDb2dVertex
10
48.516887
20
43.536314
30
0
70
0
0
VERTEX
100
AcDbEntity
8
CUT
100
AcDbVertex
100
AcDb2dVertex
10
46.453152
20
42.996744
30
0
70
0
0
VERTEX
100
AcDbEntity
8
CUT
100
AcDbVertex
100
AcDb2dVertex
10
44.492306
20
42.654983
30
0
70
0
0
VERTEX
100
AcDbEntity
8
CUT
100
AcDbVertex
100
AcDb2dVertex
10
43.792257
20
42.570710
30
0
70
0
0
VERTEX
100
AcDbEntity
8
CUT
100
AcDbVertex
100
AcDb2dVertex
10
43.026859
20
42.516887
30
0
70
0
0
VERTEX
100
AcDbEntity
8
CUT
100
AcDbVertex
100
AcDb2dVertex
10
42.811976
20
42.543621
30
0
70
0
0
VERTEX
100
AcDbEntity
8
CUT
100
AcDbVertex
100
AcDb2dVertex
10
42.672565
20
42.611129
30
0
70
0
0
VERTEX
100
AcDbEntity
8
CUT
100
AcDbVertex
100
AcDb2dVertex
10
42.517391
20
42.764942
30
0
70
0
0
VERTEX
100
AcDbEntity
8
CUT
100
AcDbVertex
100
AcDb2dVertex
10
42.432240
20
42.960878
30
0
70
0
0
VERTEX
100
AcDbEntity
8
CUT
100
AcDbVertex
100
AcDb2dVertex
10
42.418968
20
43.111607
30
0
70
0
0
VERTEX
100
AcDbEntity
8
CUT
100
AcDbVertex
100
AcDb2dVertex
10
42.432534
20
43.406462
30
0
70
0
0
VERTEX
100
AcDbEntity
8
CUT
100
AcDbVertex
100
AcDb2dVertex
10
42.509561
20
44.389926
30
0
70
0
0
VERTEX
100
AcDbEntity
8
CUT
100
AcDbVertex
100
AcDb2dVertex
10
42.684633
20
45.914731
30
0
70
0
0
VERTEX
100
AcDbEntity
8
CUT
100
AcDbVertex
100
AcDb2dVertex
10
42.794739
20
46.667060
30
0
70
0
0
VERTEX
100
AcDbEntity
8
CUT
100
AcDbVertex
100
AcDb2dVertex
10
42.943315
20
47.530422
30
0
70
0
0
VERTEX
100
AcDbEntity
8
CUT
100
AcDbVertex
100
AcDb2dVertex
10
43.142988
20
48.542421
30
0
70
0
0
VERTEX
100
AcDbEntity
8
CUT
100
AcDbVertex
100
AcDb2dVertex
10
43.351193
20
49.468669
30
0
70
0
0
VERTEX
100
AcDbEntity
8
CUT
100
AcDbVertex
100
AcDb2dVertex
10
43.552758
20
50.283818
30
0
70
0
0
VERTEX
100
AcDbEntity
8
CUT
100
AcDbVertex
100
AcDb2dVertex
10
43.772864
20
51.094535
30
0
70
0
0
VERTEX
100
AcDbEntity
8
CUT
100
AcDbVertex
100
AcDb2dVertex
10
44.274776
20
52.748523
30
0
70
0
0
VERTEX
100
AcDbEntity
8
CUT
100
AcDbVertex
100
AcDb2dVertex
10
44.599700
20
53.707158
30
0
70
0
0
VERTEX
100
AcDbEntity
8
CUT
100
AcDbVertex
100
AcDb2dVertex
10
44.956847
20
54.685745
30
0
70
0
0
VERTEX
100
AcDbEntity
8
CUT
100
AcDbVertex
100
AcDb2dVertex
10
45.288443
20
55.532648
30
0
70
0
0
VERTEX
100
AcDbEntity
8
CUT
100
AcDbVertex
100
AcDb2dVertex
10
45.676814
20
56.468347
30
0
70
0
0
VERTEX
100
AcDbEntity
8
CUT
100
AcDbVertex
100
AcDb2dVertex
10
46.113376
20
57.458952
30
0
70
0
0
VERTEX
100
AcDbEntity
8
CUT
100
AcDbVertex
100
AcDb2dVertex
10
46.527710
20
58.345887
30
0
70
0
0
VERTEX
100
AcDbEntity
8
CUT
100
AcDbVertex
100
AcDb2dVertex
10
46.997521
20
59.302011
30
0
70
0
0
VERTEX
100
AcDbEntity
8
CUT
100
AcDbVertex
100
AcDb2dVertex
10
47.400605
20
60.080840
30
0
70
0
0
VERTEX
100
AcDbEntity
8
CUT
100
AcDbVertex
100
AcDb2dVertex
10
47.546525
20
60.260212
30
0
70
0
0
VERTEX
100
AcDbEntity
8
CUT
100
AcDbVertex
100
AcDb2dVertex
10
47.747009
20
60.365313
30
0
70
0
0
VERTEX
100
AcDbEntity
8
CUT
100
AcDbVertex
100
AcDb2dVertex
10
47.883060
20
60.388292
30
0
70
0
0
VERTEX
100
AcDbEntity
8
CUT
100
AcDbVertex
100
AcDb2dVertex
10
48.029215
20
60.375460
30
0
70
0
0
VERTEX
100
AcDbEntity
8
CUT
100
AcDbVertex
100
AcDb2dVertex
10
48.235884
20
60.284189
30
0
70
0
0
VERTEX
100
AcDbEntity
8
CUT
100
AcDbVertex
100
AcDb2dVertex
10
60.535007
20
51.587396
30
0
70
0
0
VERTEX
100
AcDbEntity
8
CUT
100
AcDbVertex
100
AcDb2dVertex
10
60.679400
20
51.438988
30
0
70
0
0
VERTEX
100
AcDbEntity
8
CUT
100
AcDbVertex
100
AcDb2dVertex
10
60.764017
20
51.237600
30
0
70
0
0
VERTEX
100
AcDbEntity
8
CUT
100
AcDbVertex
100
AcDb2dVertex
10
60.775049
20
51.090546
30
0
70
0
0
VERTEX
100
AcDbEntity
8
CUT
100
AcDbVertex
100
AcDb2dVertex
10
60.744657
20
50.940635
30
0
70
0
0
VERTEX
100
AcDbEntity
8
CUT
100
AcDbVertex
100
AcDb2dVertex
10
60.649551
20
50.764223
30
0
70
0
0
VERTEX
100
AcDbEntity
8
CUT
100
AcDbVertex
100
AcDb2dVertex
10
60.433696
20
50.553312
30
0
70
0
0
VERTEX
100
AcDbEntity
8
CUT
100
AcDbVertex
100
AcDb2dVertex
10
59.772052
20
49.959166
30
0
70
0
0
VERTEX
100
AcDbEntity
8
CUT
100
AcDbVertex
100
AcDb2dVertex
10
59.133693
20
49.412901
30
0
70
0
0
VERTEX
100
AcDbEntity
8
CUT
100
AcDbVertex
100
AcDb2dVertex
10
58.386481
20
48.801326
30
0
70
0
0
VERTEX
100
AcDbEntity
8
CUT
100
AcDbVertex
100
AcDb2dVertex
10
57.697205
20
48.268267
30
0
70
0
0
VERTEX
100
AcDbEntity
8
CUT
100
AcDbVertex
100
AcDb2dVertex
10
56.661026
20
47.526650
30
0
70
0
0
VERTEX
100
AcDbEntity
8
CUT
100
AcDbVertex
100
AcDb2dVertex
10
55.224914
20
46.592478
30
0
70
0
0
VERTEX
100
AcDbEntity
8
CUT
100
AcDbVertex
100
AcDb2dVertex
10
53.913946
20
45.832365
30
0
70
0
0
SEQEND
100
AcDbEntity
8
CUT
0
ENDSEC
0
EOF
